<svg width="20" height="24" viewBox="0 0 20 24" fill="none" xmlns="http://www.w3.org/2000/svg">
<g clip-path="url(#clip0)">
<path d="M10.0044 6.6094C7.16511 6.6094 4.87493 9.01409 4.87493 11.9953C4.87493 14.9766 7.16511 17.3813 10.0044 17.3813C12.8437 17.3813 15.1339 14.9766 15.1339 11.9953C15.1339 9.01409 12.8437 6.6094 10.0044 6.6094ZM10.0044 15.4969C8.16957 15.4969 6.66957 13.9266 6.66957 11.9953C6.66957 10.0641 8.16511 8.49377 10.0044 8.49377C11.8437 8.49377 13.3392 10.0641 13.3392 11.9953C13.3392 13.9266 11.8392 15.4969 10.0044 15.4969ZM16.5401 6.38909C16.5401 7.08752 16.0044 7.64534 15.3437 7.64534C14.6785 7.64534 14.1472 7.08284 14.1472 6.38909C14.1472 5.69534 14.683 5.13284 15.3437 5.13284C16.0044 5.13284 16.5401 5.69534 16.5401 6.38909ZM19.9374 7.66409C19.8615 5.98127 19.4955 4.49065 18.3214 3.26252C17.1517 2.0344 15.7321 1.65002 14.1294 1.56565C12.4776 1.46721 7.52671 1.46721 5.87493 1.56565C4.27671 1.64534 2.85707 2.02971 1.68297 3.25784C0.508859 4.48596 0.147252 5.97659 0.0668945 7.6594C-0.0268555 9.39377 -0.0268555 14.5922 0.0668945 16.3266C0.142787 18.0094 0.508859 19.5 1.68297 20.7282C2.85707 21.9563 4.27225 22.3407 5.87493 22.425C7.52671 22.5235 12.4776 22.5235 14.1294 22.425C15.7321 22.3453 17.1517 21.961 18.3214 20.7282C19.491 19.5 19.8571 18.0094 19.9374 16.3266C20.0312 14.5922 20.0312 9.39846 19.9374 7.66409ZM17.8035 18.1875C17.4553 19.1063 16.7812 19.8141 15.9017 20.1844C14.5847 20.7328 11.4597 20.6063 10.0044 20.6063C8.54904 20.6063 5.41957 20.7282 4.10707 20.1844C3.23207 19.8188 2.55797 19.111 2.20529 18.1875C1.68297 16.8047 1.8035 13.5235 1.8035 11.9953C1.8035 10.4672 1.68743 7.18127 2.20529 5.80315C2.5535 4.8844 3.22761 4.17659 4.10707 3.80627C5.42404 3.25784 8.54904 3.3844 10.0044 3.3844C11.4597 3.3844 14.5892 3.26252 15.9017 3.80627C16.7767 4.1719 17.4508 4.87971 17.8035 5.80315C18.3258 7.18596 18.2053 10.4672 18.2053 11.9953C18.2053 13.5235 18.3258 16.8094 17.8035 18.1875Z" fill="#E6EEEF"/>
</g>
<defs>
<clipPath id="clip0">
<rect width="20" height="24" fill="white"/>
</clipPath>
</defs>
</svg>
