<svg width="600" height="433" viewBox="0 0 600 433" fill="none" xmlns="http://www.w3.org/2000/svg">
<g clip-path="url(#clip0)">
<path opacity="0.1" d="M348.61 76.317C310.145 74.979 273.481 62.5497 238.524 48.9539C203.567 35.3581 168.919 20.2915 131.355 13.0872C107.203 8.44836 79.5817 7.79593 60.1255 20.7559C41.3985 33.2239 35.3495 54.7483 32.0957 74.7191C29.6485 89.7469 28.2288 105.56 34.9186 119.631C39.5755 129.395 47.8397 137.606 53.5572 146.961C73.4443 179.51 59.3852 219.651 37.8298 251.459C27.7205 266.388 15.9927 280.592 8.19248 296.466C0.392313 312.339 -3.22051 330.524 3.6074 346.713C10.3745 362.747 26.4942 374.812 43.9617 383.288C79.4381 400.488 121.24 405.409 162.003 408.229C252.235 414.405 342.953 411.729 433.423 409.053C466.905 408.058 500.537 407.057 533.472 401.865C551.763 398.985 570.65 394.418 583.93 383.393C600.784 369.393 604.966 345.696 593.669 328.141C574.721 298.705 522.335 291.39 509.088 259.797C501.802 242.408 509.287 223.035 519.883 206.907C542.604 172.312 580.698 141.957 582.704 102.408C584.085 75.2443 565.772 48.0471 537.455 35.1922C507.779 21.7069 466.624 23.4099 444.731 45.6973C422.187 68.6593 382.568 77.4947 348.61 76.317Z" fill="#1E90FF"/>
<path d="M133.824 400.875C133.824 400.875 103.441 377.886 97.7009 348.643C95.3733 336.361 89.1301 325.165 79.9075 316.735C75.4956 312.769 70.7304 309.216 65.6716 306.119" stroke="#535461" stroke-width="2" stroke-miterlimit="10"/>
<path d="M61.9539 287.697C64.6166 291.301 65.8208 306.578 65.8208 306.578C65.8208 306.578 51.585 300.966 48.9168 297.367C47.6355 295.636 47.0936 293.468 47.41 291.337C47.7265 289.207 48.8756 287.29 50.6044 286.007C52.3332 284.725 54.5002 284.183 56.6287 284.499C58.7571 284.816 60.6726 285.966 61.9539 287.697Z" fill="#1E90FF"/>
<path d="M87.4868 299.683C87.763 304.156 80.4877 317.636 80.4877 317.636C80.4877 317.636 71.5771 305.174 71.2954 300.701C71.1883 298.568 71.9249 296.48 73.3458 294.887C74.7667 293.294 76.7574 292.326 78.8864 292.193C81.0155 292.059 83.1115 292.77 84.7203 294.172C86.3291 295.574 87.3211 297.554 87.4813 299.683H87.4868Z" fill="#1E90FF"/>
<path d="M112.235 334.14C110.224 338.143 97.1376 346.105 97.1376 346.105C97.1376 346.105 95.7399 330.845 97.7508 326.842C98.7406 324.959 100.429 323.541 102.453 322.892C104.478 322.243 106.675 322.416 108.574 323.372C110.472 324.329 111.919 325.993 112.604 328.007C113.289 330.021 113.156 332.223 112.235 334.14Z" fill="#1E90FF"/>
<path d="M125.101 364.417C123.792 368.702 112.241 378.759 112.241 378.759C112.241 378.759 108.28 363.958 109.589 359.668C110.218 357.609 111.639 355.885 113.538 354.874C115.438 353.864 117.661 353.65 119.718 354.28C121.775 354.909 123.498 356.331 124.507 358.232C125.517 360.134 125.73 362.358 125.101 364.417Z" fill="#1E90FF"/>
<path d="M67.3178 328.473C71.7372 329.07 85.7079 322.756 85.7079 322.756C85.7079 322.756 73.9193 312.981 69.4778 312.384C67.3461 312.097 65.1879 312.669 63.478 313.975C61.7681 315.281 60.6465 317.214 60.3601 319.347C60.0737 321.481 60.6458 323.641 61.9506 325.352C63.2555 327.064 65.1861 328.186 67.3178 328.473Z" fill="#1E90FF"/>
<path d="M82.8134 363.698C87.2328 362.941 98.6513 352.74 98.6513 352.74C98.6513 352.74 84.4762 346.945 80.0624 347.703C79.0056 347.876 77.9936 348.257 77.0848 348.824C76.176 349.391 75.3884 350.133 74.7674 351.006C74.1464 351.879 73.7043 352.867 73.4668 353.912C73.2292 354.957 73.2007 356.039 73.3831 357.095C73.5655 358.151 73.9551 359.161 74.5293 360.065C75.1036 360.97 75.8512 361.752 76.729 362.366C77.6068 362.98 78.5973 363.413 79.6435 363.642C80.6897 363.871 81.7708 363.89 82.8245 363.698H82.8134Z" fill="#1E90FF"/>
<path d="M102.562 395.872C107.042 395.872 120.024 387.75 120.024 387.75C120.024 387.75 107.037 379.638 102.557 379.638C100.406 379.638 98.3433 380.494 96.8225 382.016C95.3017 383.538 94.4473 385.602 94.4473 387.755C94.4473 389.908 95.3017 391.972 96.8225 393.494C98.3433 395.017 100.406 395.872 102.557 395.872H102.562Z" fill="#1E90FF"/>
<path d="M428.982 202.036C428.982 202.036 447.709 168.834 475.937 159.269C487.791 155.329 498.048 147.648 505.171 137.379C508.512 132.47 511.395 127.264 513.784 121.826" stroke="#535461" stroke-width="2" stroke-miterlimit="10"/>
<path d="M531.505 115.744C528.29 118.863 513.325 122.092 513.325 122.092C513.325 122.092 516.999 107.219 520.214 104.095C521.766 102.641 523.826 101.854 525.951 101.906C528.077 101.957 530.097 102.841 531.577 104.368C533.057 105.895 533.879 107.943 533.866 110.071C533.852 112.199 533.005 114.236 531.505 115.744Z" fill="#1E90FF"/>
<path d="M523.042 142.632C518.623 143.505 504.332 138.076 504.332 138.076C504.332 138.076 515.491 127.571 519.882 126.714C520.937 126.48 522.027 126.459 523.09 126.652C524.153 126.845 525.166 127.249 526.071 127.84C526.976 128.431 527.753 129.197 528.358 130.092C528.963 130.988 529.383 131.996 529.593 133.056C529.804 134.116 529.801 135.208 529.584 136.267C529.367 137.326 528.941 138.331 528.331 139.223C527.72 140.115 526.938 140.876 526.03 141.462C525.122 142.047 524.106 142.445 523.042 142.632Z" fill="#1E90FF"/>
<path d="M492.239 171.759C488.008 170.294 478.39 158.373 478.39 158.373C478.39 158.373 493.305 154.956 497.548 156.421C498.567 156.76 499.509 157.297 500.319 158.003C501.129 158.709 501.791 159.569 502.267 160.533C502.742 161.496 503.021 162.545 503.088 163.618C503.156 164.691 503.009 165.766 502.658 166.782C502.306 167.798 501.756 168.733 501.041 169.535C500.325 170.336 499.457 170.987 498.488 171.45C497.519 171.913 496.467 172.179 495.395 172.232C494.322 172.285 493.249 172.124 492.239 171.759Z" fill="#1E90FF"/>
<path d="M463.933 188.545C459.514 187.815 448.046 177.669 448.046 177.669C448.046 177.669 462.182 171.775 466.596 172.505C468.721 172.855 470.619 174.035 471.874 175.786C473.129 177.537 473.638 179.715 473.289 181.841C472.939 183.967 471.76 185.867 470.011 187.124C468.262 188.38 466.086 188.889 463.961 188.539L463.933 188.545Z" fill="#1E90FF"/>
<path d="M491.853 126.449C491.847 130.933 499.973 143.942 499.973 143.942C499.973 143.942 508.088 130.949 508.088 126.471C508.117 125.387 507.928 124.309 507.533 123.3C507.139 122.291 506.546 121.371 505.79 120.595C505.035 119.819 504.131 119.202 503.134 118.78C502.136 118.359 501.064 118.142 499.982 118.142C498.899 118.142 497.827 118.359 496.829 118.78C495.832 119.202 494.929 119.819 494.173 120.595C493.417 121.371 492.825 122.291 492.43 123.3C492.035 124.309 491.847 125.387 491.875 126.471L491.853 126.449Z" fill="#1E90FF"/>
<path d="M459.022 146.497C460.359 150.776 471.982 160.756 471.982 160.756C471.982 160.756 475.849 145.927 474.501 141.648C473.802 139.665 472.362 138.031 470.483 137.09C468.605 136.149 466.434 135.975 464.43 136.603C462.425 137.231 460.742 138.614 459.736 140.459C458.729 142.305 458.477 144.469 459.033 146.497H459.022Z" fill="#1E90FF"/>
<path d="M429.816 170.365C430.413 174.789 440.179 186.604 440.179 186.604C440.179 186.604 446.483 172.643 445.886 168.204C445.768 167.128 445.435 166.087 444.909 165.141C444.383 164.196 443.673 163.365 442.821 162.699C441.969 162.032 440.993 161.542 439.95 161.259C438.906 160.975 437.816 160.904 436.745 161.048C435.673 161.192 434.641 161.549 433.709 162.098C432.778 162.648 431.965 163.378 431.32 164.246C430.674 165.114 430.208 166.103 429.95 167.154C429.692 168.205 429.646 169.297 429.816 170.365Z" fill="#1E90FF"/>
<path opacity="0.25" d="M531.505 115.744C528.29 118.863 513.325 122.092 513.325 122.092C513.325 122.092 516.999 107.219 520.214 104.095C521.766 102.641 523.826 101.854 525.951 101.906C528.077 101.957 530.097 102.841 531.577 104.368C533.057 105.895 533.879 107.943 533.866 110.071C533.852 112.199 533.005 114.236 531.505 115.744Z" fill="black"/>
<path opacity="0.25" d="M523.042 142.632C518.623 143.505 504.332 138.076 504.332 138.076C504.332 138.076 515.491 127.571 519.882 126.714C520.937 126.48 522.027 126.459 523.09 126.652C524.153 126.845 525.166 127.249 526.071 127.84C526.976 128.431 527.753 129.197 528.358 130.092C528.963 130.988 529.383 131.996 529.593 133.056C529.804 134.116 529.801 135.208 529.584 136.267C529.367 137.326 528.941 138.331 528.331 139.223C527.72 140.115 526.938 140.876 526.03 141.462C525.122 142.047 524.106 142.445 523.042 142.632Z" fill="black"/>
<path opacity="0.25" d="M492.239 171.759C488.008 170.294 478.39 158.373 478.39 158.373C478.39 158.373 493.305 154.956 497.548 156.421C498.567 156.76 499.509 157.297 500.319 158.003C501.129 158.709 501.791 159.569 502.267 160.533C502.742 161.496 503.021 162.545 503.088 163.618C503.156 164.691 503.009 165.766 502.658 166.782C502.306 167.798 501.756 168.733 501.041 169.535C500.325 170.336 499.457 170.987 498.488 171.45C497.519 171.913 496.467 172.179 495.395 172.232C494.322 172.285 493.249 172.124 492.239 171.759Z" fill="black"/>
<path opacity="0.25" d="M463.933 188.545C459.514 187.815 448.046 177.669 448.046 177.669C448.046 177.669 462.182 171.775 466.596 172.505C468.721 172.855 470.619 174.035 471.874 175.786C473.129 177.537 473.638 179.715 473.289 181.841C472.939 183.967 471.76 185.867 470.011 187.124C468.262 188.38 466.086 188.889 463.961 188.539L463.933 188.545Z" fill="black"/>
<path opacity="0.25" d="M491.853 126.449C491.847 130.933 499.973 143.942 499.973 143.942C499.973 143.942 508.088 130.949 508.088 126.471C508.117 125.387 507.928 124.309 507.533 123.3C507.139 122.291 506.546 121.371 505.79 120.595C505.035 119.819 504.131 119.202 503.134 118.78C502.136 118.359 501.064 118.142 499.982 118.142C498.899 118.142 497.827 118.359 496.829 118.78C495.832 119.202 494.929 119.819 494.173 120.595C493.417 121.371 492.825 122.291 492.43 123.3C492.035 124.309 491.847 125.387 491.875 126.471L491.853 126.449Z" fill="black"/>
<path opacity="0.25" d="M459.022 146.497C460.359 150.776 471.982 160.756 471.982 160.756C471.982 160.756 475.849 145.927 474.501 141.648C473.802 139.665 472.362 138.031 470.483 137.09C468.605 136.149 466.434 135.975 464.43 136.603C462.425 137.231 460.742 138.614 459.736 140.459C458.729 142.305 458.477 144.469 459.033 146.497H459.022Z" fill="black"/>
<path opacity="0.25" d="M429.816 170.365C430.413 174.789 440.179 186.604 440.179 186.604C440.179 186.604 446.483 172.643 445.886 168.204C445.768 167.128 445.435 166.087 444.909 165.141C444.383 164.196 443.673 163.365 442.821 162.699C441.969 162.032 440.993 161.542 439.95 161.259C438.906 160.975 437.816 160.904 436.745 161.048C435.673 161.192 434.641 161.549 433.709 162.098C432.778 162.648 431.965 163.378 431.32 164.246C430.674 165.114 430.208 166.103 429.95 167.154C429.692 168.205 429.646 169.297 429.816 170.365Z" fill="black"/>
<path d="M430.059 201.378C430.059 201.378 433.738 163.427 455.647 143.246C464.888 134.835 471.156 123.653 473.512 111.376C474.585 105.54 475.119 99.6177 475.109 93.6836" stroke="#535461" stroke-width="2" stroke-miterlimit="10"/>
<path d="M488.842 80.8784C487.185 85.0362 474.788 94.0595 474.788 94.0595C474.788 94.0595 472.126 78.9709 473.8 74.8131C474.605 72.8166 476.171 71.2223 478.151 70.3808C480.131 69.5394 482.364 69.5198 484.359 70.3263C486.354 71.1328 487.947 72.6994 488.788 74.6814C489.628 76.6634 489.648 78.8985 488.842 80.895V80.8784Z" fill="#1E90FF"/>
<path d="M491.996 108.921C488.334 111.498 473.048 112.344 473.048 112.344C473.048 112.344 479.003 98.2228 482.666 95.6463C483.535 94.9957 484.525 94.5261 485.578 94.2653C486.631 94.0046 487.726 93.958 488.797 94.1284C489.869 94.2988 490.895 94.6826 491.816 95.2571C492.737 95.8316 493.533 96.5852 494.157 97.4732C494.782 98.3612 495.222 99.3656 495.451 100.427C495.681 101.488 495.695 102.585 495.494 103.652C495.292 104.719 494.879 105.734 494.278 106.639C493.677 107.543 492.902 108.317 491.996 108.916V108.921Z" fill="#1E90FF"/>
<path d="M475.612 148.056C471.148 148.432 457.525 141.421 457.525 141.421C457.525 141.421 469.789 132.243 474.253 131.867C476.396 131.687 478.523 132.366 480.166 133.755C481.81 135.145 482.834 137.13 483.014 139.276C483.194 141.421 482.516 143.55 481.127 145.195C479.739 146.839 477.755 147.864 475.612 148.045V148.056Z" fill="#1E90FF"/>
<path d="M456.548 174.866C452.211 175.972 437.605 171.399 437.605 171.399C437.605 171.399 448.14 160.281 452.476 159.153C454.558 158.612 456.769 158.922 458.623 160.013C460.477 161.104 461.822 162.888 462.362 164.972C462.902 167.056 462.592 169.269 461.502 171.124C460.412 172.98 458.629 174.326 456.548 174.866Z" fill="#1E90FF"/>
<path d="M456.934 106.776C458.746 110.873 471.419 119.493 471.419 119.493C471.419 119.493 473.573 104.321 471.761 100.224C470.858 98.3076 469.242 96.8202 467.258 96.08C465.274 95.3399 463.08 95.4057 461.144 96.2635C459.207 97.1212 457.683 98.7028 456.897 100.67C456.11 102.638 456.124 104.835 456.934 106.793V106.776Z" fill="#1E90FF"/>
<path d="M435.036 138.413C437.992 141.78 452.653 146.193 452.653 146.193C452.653 146.193 450.178 131.071 447.223 127.704C446.525 126.886 445.672 126.214 444.713 125.729C443.754 125.244 442.708 124.955 441.637 124.877C440.565 124.8 439.489 124.937 438.47 125.28C437.452 125.622 436.511 126.164 435.704 126.874C434.896 127.583 434.238 128.447 433.767 129.413C433.295 130.38 433.021 131.43 432.959 132.504C432.897 133.577 433.048 134.653 433.405 135.667C433.762 136.682 434.316 137.615 435.036 138.413Z" fill="#1E90FF"/>
<path d="M417.972 172.096C420.314 175.911 434.02 182.739 434.02 182.739C434.02 182.739 434.136 167.418 431.81 163.598C430.652 161.834 428.854 160.591 426.795 160.132C424.737 159.673 422.581 160.034 420.785 161.14C418.988 162.245 417.693 164.007 417.173 166.053C416.653 168.098 416.95 170.266 418 172.096H417.972Z" fill="#1E90FF"/>
<path d="M401.885 52.7523C402.803 49.3851 403.907 46.0014 404.681 42.59C403.753 46.0014 402.642 49.3962 401.885 52.7523Z" fill="url(#paint0_linear)"/>
<path d="M397.776 85.1855C397.698 85.0528 397.643 84.9201 397.582 84.7985C397.582 84.7432 397.527 84.6989 397.505 84.6436C397.384 84.7005 397.261 84.7503 397.135 84.7929C396.892 84.8869 396.643 84.9754 396.389 85.0473C396.135 85.1191 396.03 85.1578 395.837 85.2021C395.676 85.2573 395.512 85.2999 395.345 85.3292L395.389 85.4288C395.594 85.3845 395.792 85.3458 395.997 85.2905L396.052 85.9761C396.284 85.9761 396.499 85.943 396.709 85.943C396.809 85.9375 396.908 85.9375 397.008 85.943C397.439 85.943 397.814 85.943 398.113 85.943C397.997 85.6942 397.875 85.4343 397.776 85.1855ZM509.917 263.844C507.32 260.345 502.139 222.78 502.139 222.78C502.139 222.78 491.947 196.07 494.725 185.41C497.504 174.75 487.135 147.475 487.135 147.475C487.135 147.475 480.285 144.495 479.915 140.072C479.915 140.072 451.946 131.226 450.637 124.591C449.576 119.15 432.23 115.247 425.999 114.014C424.098 106.339 422.187 99.1794 420.778 95.2704C420.397 94.054 420.038 93.0035 419.707 92.1742C417.326 86.0922 409.967 85.5393 404.631 86.0259C404.4 84.9893 403.97 84.0074 403.366 83.1342C403.278 82.834 403.103 82.5667 402.863 82.3657C402.749 82.268 402.627 82.1793 402.499 82.1003C402.402 81.9211 402.275 81.7602 402.123 81.6248C401.972 81.4881 401.805 81.3694 401.626 81.2709C401.497 81.2014 401.365 81.1405 401.228 81.0885C400.908 80.9665 400.577 80.8757 400.239 80.8176C399.846 80.7366 399.447 80.6848 399.046 80.6628C400.021 80.2359 400.891 79.5998 401.593 78.7995C402.07 78.2376 402.426 77.5823 402.637 76.8754C402.812 76.2875 402.89 75.675 402.869 75.0619C402.726 75.3145 402.559 75.5533 402.372 75.7751C402.604 73.3258 401.311 70.8377 400.571 68.3994C399.674 65.2251 399.508 61.8886 400.085 58.6407C400.825 53.742 402.659 48.788 403.902 43.8008C403.905 43.7733 403.905 43.7455 403.902 43.7179C404.554 41.2412 404.957 38.7056 405.106 36.1487C405.322 30.9901 404.001 25.8426 401.88 21.143C399.996 16.9796 397.218 12.8826 392.964 11.1907C389.804 9.91354 386.263 10.1181 382.86 9.90801C375.226 9.43252 367.945 6.74542 360.686 4.30159C353.427 1.85777 345.959 -0.364891 338.319 0.0608423C330.679 0.486576 322.818 4.17442 319.332 10.9419C318.227 13.054 317.592 15.4038 316.272 17.3888C313.797 21.1319 309.366 23.0062 305.671 25.5883C301.975 28.1703 298.721 31.8361 297.384 36.2095C296.654 38.5658 296.551 41.0719 297.086 43.4802C297.206 44.024 297.361 44.5596 297.55 45.0836C298.074 46.5445 298.892 47.8824 299.953 49.0147C300.753 49.8516 301.673 50.5652 302.682 51.1323C303.949 51.8354 305.306 52.3636 306.715 52.7025C306.665 52.8684 306.615 53.0453 306.56 53.2167C306.472 53.4987 306.394 53.7697 306.311 54.0737C306.129 54.7538 305.958 55.4449 305.814 56.1416C305.808 56.1912 305.808 56.2413 305.814 56.2909C305.136 59.4358 304.795 62.6442 304.798 65.8616C304.797 67.3832 304.874 68.9039 305.03 70.4175C307.239 92.8542 325.746 110.553 348.61 111.703C349.395 111.741 350.185 111.763 350.986 111.763C351.35 111.763 351.709 111.763 352.09 111.763C352.45 112.239 352.803 112.725 353.14 113.201C353.477 113.676 353.786 114.163 354.079 114.639L353.278 113.809L352.477 113.074C352.26 113.372 352.018 113.651 351.753 113.909C351.231 113.725 350.698 113.573 350.157 113.455C347.864 112.947 344.373 112.759 339.777 114.146C335.551 115.413 330.386 118.017 324.342 122.965L294.893 140.658L278.961 150.356L273.221 164.4C273.221 164.4 268.907 181.086 264.107 200.205C263.919 200.261 263.736 200.316 263.554 200.382C263.165 200.338 262.774 200.316 262.383 200.316C259.598 200.31 256.918 201.384 254.908 203.313C252.897 205.242 251.711 207.875 251.6 210.661C242.054 222.272 241.513 233.883 243.755 239.213C243.958 239.712 244.214 240.188 244.518 240.634C245.987 242.757 248.733 248.23 251.517 254.064C251.445 254.545 251.401 254.948 251.379 255.252C251.374 255.352 251.374 255.451 251.379 255.551C251.379 255.551 253.036 280.603 247.512 287.785C246.302 289.35 246.484 291.407 247.512 293.684C251.213 301.878 265.847 312.82 265.847 312.82C265.847 312.82 283.397 312.726 293.175 311.659C293.147 312.643 293.125 313.622 293.103 314.579C292.882 324.243 292.882 332.343 292.882 332.343L292.517 342.478C292.517 342.478 289.203 363.837 287.546 369.725C286.502 373.418 287.706 407.615 288.755 432.756H461.674C463.707 417.883 460.84 372.694 460.84 372.694C460.84 372.694 458.116 361.011 458.017 350.827C458.012 350.816 458.009 350.803 458.009 350.791C458.009 350.778 458.012 350.766 458.017 350.755C458.017 349.865 458.017 348.997 458.05 348.145L459.304 348.101L461.558 348.024H461.762C461.762 348.024 461.818 347.813 461.945 347.471C462.243 346.617 462.65 345.805 463.154 345.055C464.116 343.634 465.618 342.24 467.878 342.146C469.126 342.096 471.06 341.085 473.242 339.592C473.256 339.595 473.271 339.595 473.286 339.592C479.158 335.616 486.92 328.279 488.803 327.074C491.394 325.415 503.802 314.357 503.802 314.357C503.802 314.357 505.652 312.013 507.624 309.188L507.696 309.088C510.149 305.55 512.756 301.32 512.115 299.988C511.011 297.599 512.856 291.888 512.856 291.888C518.617 281.333 512.513 267.344 509.917 263.844ZM403.095 93.7831C403.148 93.9482 403.182 94.1189 403.195 94.2918C403.057 94.1093 402.919 93.9158 402.78 93.7389L402.648 93.5619L402.554 93.4292L402.764 93.1417C402.764 93.1417 402.764 93.1417 402.764 93.1804C402.91 93.3597 403.022 93.5639 403.095 93.7831ZM401.239 88.8844C400.637 89.006 400.162 89.1166 399.853 89.1996C399.46 88.5029 399.085 87.8062 398.748 87.0985C399.633 87.6128 400.468 88.2108 401.239 88.8844ZM400.201 89.758C400.199 89.747 400.199 89.7358 400.201 89.7248L400.245 89.758C400.471 89.9073 400.692 90.051 400.897 90.2003C401.079 90.333 401.245 90.4602 401.411 90.5929C401.3 90.7864 401.178 90.9854 401.057 91.1458C400.864 90.8417 400.681 90.5486 400.505 90.2445C400.394 90.1229 400.295 89.957 400.201 89.758ZM396.886 82.9352C397.953 82.8298 399.028 82.8298 400.096 82.9352C400.245 82.9352 400.377 82.9628 400.51 82.9849C400.81 83.0313 401.104 83.1072 401.388 83.2116C402.041 84.1258 402.443 85.1953 402.554 86.3134L402.256 86.3576L401.963 86.4129C401.411 86.5069 400.858 86.6009 400.427 86.6894L399.875 86.8055C399.14 86.9658 398.715 87.0875 398.698 87.093C398.626 86.9437 398.555 86.8055 398.477 86.6617C398.356 86.424 398.229 86.1807 398.118 85.943C398.008 85.7052 397.864 85.4343 397.748 85.1855C397.671 85.0528 397.615 84.9201 397.555 84.7985C397.555 84.7432 397.499 84.6989 397.477 84.6436C397.445 84.585 397.417 84.524 397.394 84.4612C397.057 83.7756 396.748 83.09 396.45 82.4155C396.417 82.3491 396.389 82.2772 396.361 82.2109L396.781 82.1832V82.327L396.886 82.9352ZM265.084 425.922C265.04 417.689 264.443 408.782 262.786 400.422C262.079 396.867 261.35 393.312 260.61 389.817C260.422 388.944 260.24 388.081 260.057 387.219L258.356 387.445H258.201C253.561 365.545 248.711 346.249 248.711 346.249C248.711 346.249 239.076 309.431 240.192 306.495C240.336 306.114 240.154 305.085 239.745 303.576C237.414 295.205 227.68 272.138 224.277 264.254C224.277 264.22 224.249 264.182 224.238 264.154C223.686 262.833 223.288 261.942 223.167 261.683L223.968 249.917L224.012 249.209L224.117 247.705L224.073 247.667L224.117 246.97C224.117 246.97 215.709 240.07 201.468 235.088C200.915 234.889 200.33 234.695 199.75 234.507C200.462 229.747 201.407 224.373 202.639 219.137C202.755 218.612 202.882 218.103 203.014 217.589C203.13 217.075 203.263 216.577 203.396 216.074C203.605 215.255 203.832 214.448 204.064 213.652C204.832 213.409 205.589 213.138 206.334 212.85L206.622 212.74C215.809 209.162 223.39 202.373 227.96 193.631C232.531 184.888 233.781 174.785 231.481 165.19C230.169 159.749 227.746 154.638 224.365 150.179C224.111 149.836 223.841 149.493 223.57 149.156C223.299 148.819 222.973 148.443 222.669 148.1C224.266 144.468 226.15 141.012 226.304 137.479C226.332 137.031 226.332 136.583 226.304 136.135V136.08C226.1 133.808 225.095 131.508 222.752 129.091C219.333 125.547 214.466 123.75 209.599 122.888C204.732 122.025 199.772 122.003 194.877 121.423C186.762 120.45 178.857 117.945 170.742 117.176C160.746 116.25 150.683 117.966 141.558 122.152C135.52 124.917 129.404 129.749 129.04 136.379C128.741 141.858 132.553 147.11 131.592 152.523C130.636 157.842 125.223 162.028 125.698 167.407C125.88 169.508 126.957 171.388 128.305 173.064C128.769 173.616 129.261 174.169 129.769 174.722C131.736 176.807 133.901 178.808 135 181.434C135.045 181.545 135.089 181.656 135.127 181.766C136.061 184.359 135.641 187.638 133.332 189.125C133.345 189.135 133.354 189.149 133.36 189.164C133.393 189.208 133.426 189.241 133.454 189.286C133.457 189.277 133.457 189.267 133.454 189.258C134.272 190.23 135.376 190.918 136.608 191.226L137.078 191.37C136.696 191.785 136.337 192.216 135.973 192.669L135.735 192.985C135.126 193.804 134.573 194.663 134.078 195.556C133.796 196.053 133.525 196.551 133.299 197.048C132.542 198.565 131.994 200.178 131.669 201.842C131.078 205.502 131.912 209.317 131.017 212.9C129.913 217.323 126.416 220.718 124.444 224.826C120.709 232.567 122.825 241.651 123.576 250.199C124.598 261.81 122.941 273.47 121.289 285.004C120.413 291.137 119.536 297.276 118.66 303.421C116.45 318.843 114.24 334.266 112.031 349.688C111.224 355.338 110.269 361.299 106.507 365.661H106.545C106.545 365.661 106.545 365.694 106.507 365.705C107.636 366.199 108.837 366.509 110.064 366.623C114.975 367.115 120.179 364.738 124.598 362.139C128.098 360.115 131.413 357.786 134.503 355.178C134.05 356.837 133.564 358.645 133.045 360.591C133.047 360.609 133.047 360.628 133.045 360.646C126.808 384.421 116.776 428.006 116.776 428.006C116.776 428.006 115.865 429.903 114.682 432.728H270.465C268.642 430.516 266.946 428.399 265.62 426.69L265.084 425.922ZM149.739 206.088C149.778 206.022 149.805 205.961 149.844 205.9C149.844 206.077 149.844 206.249 149.844 206.415C149.844 206.58 149.844 206.73 149.844 206.885C149.844 207.039 149.844 207.023 149.844 207.1C149.844 207.178 149.844 207.1 149.844 207.1C149.844 207.327 149.794 207.554 149.756 207.78C149.756 207.78 149.756 207.808 149.756 207.83L150.308 208.035L150.949 208.3C154.735 209.796 158.568 211.151 162.45 212.364C162.848 212.491 163.251 212.613 163.654 212.729L163.737 213.414C163.837 214.116 163.931 214.83 164.019 215.543C164.019 215.543 164.019 215.576 164.019 215.598C164.268 217.572 164.511 219.54 164.726 221.465C164.726 221.465 154.584 217.594 154.711 223.472C154.705 223.577 154.705 223.682 154.711 223.787C154.7 223.927 154.7 224.067 154.711 224.207C154.805 228.785 156.235 231.5 156.523 232.893C156.505 232.951 156.475 233.004 156.434 233.048C156.189 233.582 156.105 234.175 156.191 234.756C156.182 235.745 156.259 236.733 156.423 237.709C156.125 237.891 155.832 238.074 155.539 238.262C155.318 238.4 155.108 238.555 154.893 238.71C153.538 234.005 151.765 229.43 149.595 225.042C148.076 221.912 146.369 218.65 146.386 215.217C146.386 214.996 146.386 214.769 146.413 214.542C146.475 213.547 146.664 212.564 146.977 211.617C147.104 211.258 147.242 210.904 147.397 210.556C147.758 209.728 148.162 208.92 148.607 208.134C148.894 207.614 149.198 207.1 149.49 206.58C149.584 206.426 149.673 206.265 149.761 206.11L149.739 206.088ZM397.776 85.1855C397.698 85.0528 397.643 84.9201 397.582 84.7985C397.582 84.7432 397.527 84.6989 397.505 84.6436C397.384 84.7005 397.261 84.7503 397.135 84.7929C396.892 84.8869 396.643 84.9754 396.389 85.0473C396.135 85.1191 396.03 85.1578 395.837 85.2021L395.345 85.3292L395.389 85.4288C395.594 85.3845 395.792 85.3458 395.997 85.2905L396.052 85.9761C396.284 85.9761 396.499 85.943 396.709 85.943H397.008C397.439 85.943 397.814 85.943 398.113 85.943C397.997 85.6942 397.875 85.4343 397.776 85.1855Z" fill="url(#paint1_linear)"/>
<path d="M277.072 166.396L273.757 167.861C273.757 167.861 252.152 251.869 252.152 258.658C252.152 265.448 297.964 303.228 297.964 303.228L305.113 254.937C305.113 254.937 294.849 144.197 277.072 166.396Z" fill="#E8F5FF"/>
<path d="M377.563 139.674L358.421 129.677C357.349 125.103 355.447 120.764 352.809 116.878C350.008 112.831 346.285 108.855 341.644 106.782C329.916 101.518 391.252 73.8897 391.252 73.8897C392.218 77.2087 393.355 80.4752 394.66 83.6761C397.82 91.483 403.062 101.579 409.818 104.454C421.303 109.347 377.563 139.674 377.563 139.674Z" fill="#FFC1C7"/>
<path opacity="0.1" d="M394.66 83.6761C392.039 92.9012 386.589 101.069 379.08 107.027C371.57 112.984 362.381 116.43 352.809 116.878C350.008 112.831 346.285 108.855 341.644 106.782C329.916 101.518 391.252 73.8897 391.252 73.8897C392.218 77.2087 393.355 80.4752 394.66 83.6761Z" fill="black"/>
<path d="M396.383 69.7264C396.386 78.7739 393.707 87.6188 388.686 95.1426C383.666 102.666 376.528 108.531 368.177 111.994C359.826 115.458 350.637 116.365 341.77 114.601C332.904 112.837 324.76 108.481 318.368 102.084C311.975 95.6863 307.622 87.5355 305.858 78.6618C304.095 69.7882 305 60.5903 308.459 52.2316C311.919 43.8729 317.777 36.7288 325.294 31.7028C332.811 26.6769 341.648 23.9948 350.687 23.9959C356.695 23.9681 362.65 25.1319 368.206 27.4202C373.762 29.7084 378.811 33.0758 383.059 37.3277C387.308 41.5796 390.673 46.6319 392.96 52.1928C395.247 57.7537 396.41 63.7129 396.383 69.7264Z" fill="#FFC1C7"/>
<path d="M402.979 133.802L390.517 162.907L379.524 182.225H344.335L334.071 155.813L338.23 128.422H365.105L382.457 127.444L388.318 125.486L392.097 127.632L402.979 133.802Z" fill="#575A89"/>
<path opacity="0.1" d="M398.687 95.005C398.687 95.005 406.46 96.6637 399.499 102.375C392.539 108.087 368.525 126.249 368.525 126.249C368.525 126.249 376.96 133.769 375.215 142.577L403.162 126.985L408.133 102.038C408.133 102.038 408.691 94.5406 398.687 95.005Z" fill="black"/>
<path opacity="0.1" d="M374.021 126.249L356.245 129.185C356.245 129.185 359.913 142.759 358.079 146.613C358.023 146.732 357.977 146.856 357.941 146.983L350.687 166.606L356.123 182.015L374.938 156.333L368.525 146.613C368.525 146.613 375.303 137.623 379.336 134.504C383.368 131.386 374.021 126.249 374.021 126.249Z" fill="black"/>
<path d="M374.021 125.492L356.245 128.422C356.245 128.422 359.913 141.996 358.079 145.85C358.023 145.97 357.977 146.093 357.941 146.22L350.687 165.843L356.123 181.252L374.938 155.553L368.525 145.833C368.525 145.833 375.303 136.843 379.336 133.725C383.368 130.606 374.021 125.492 374.021 125.492Z" fill="#DCE6F2"/>
<path d="M399.433 93.5398C399.433 93.5398 407.205 95.1985 400.239 100.91C393.273 106.621 368.525 126.249 368.525 126.249C368.525 126.249 377.69 132.304 375.949 141.106L403.896 125.52L408.868 100.573C408.868 100.573 409.421 93.0753 399.433 93.5398Z" fill="#575A89"/>
<path opacity="0.1" d="M354.029 118.608C354.029 118.608 355.725 121.782 363.211 127.505C363.211 127.505 350.748 134.139 355.515 143.467L336.451 138.491L333.518 129.318L354.029 118.608Z" fill="black"/>
<path d="M353.295 117.879C353.295 117.879 354.991 121.052 362.476 126.775C362.476 126.775 350.013 133.376 354.781 142.731L335.722 137.755L332.789 128.588L353.295 117.879Z" fill="#575A89"/>
<path opacity="0.1" d="M402.979 133.802L390.517 162.907L379.546 182.225H344.335L334.071 155.813L338.225 128.422H345.699C345.577 134.814 347.909 142.322 347.76 145.114C347.505 149.703 354.598 174.462 354.598 174.462C354.598 174.462 369.442 150.433 375.303 148.294C378.988 146.95 386.794 135.77 392.091 127.632L402.979 133.802Z" fill="black"/>
<path d="M452.073 286.961L450.808 288.554C450.808 288.554 459.973 334.594 457.437 345.049C457.006 346.934 456.76 348.856 456.702 350.788V350.871C456.255 361.509 459.464 375.315 459.464 375.315C459.464 375.315 462.027 416.008 460.569 432.745H288.976C287.971 407.997 286.888 375.934 287.872 372.379C289.529 366.513 292.843 345.231 292.843 345.231L293.208 335.147C293.208 335.147 293.208 325.399 293.506 314.54C293.633 309.658 293.821 304.532 294.092 299.988C294.44 294.271 294.926 289.455 295.594 287.088C296.006 285.295 296.243 283.465 296.301 281.626C296.301 281.454 296.301 281.277 296.335 281.1C296.335 280.548 296.39 279.95 296.412 279.337C296.412 279.165 296.412 278.994 296.412 278.784C296.517 275.223 296.478 270.999 296.362 266.62C296.362 266.382 296.362 266.139 296.362 265.896C296.268 262.611 296.13 259.261 295.976 256.076C295.495 246.124 294.871 237.709 294.871 237.709L273.796 167.822L279.475 153.823L295.235 144.158L324.375 126.548C338.589 114.854 347.947 116.259 351.516 117.541C351.862 117.66 352.202 117.798 352.532 117.956C352.643 118.011 352.731 118.055 352.814 118.105C352.928 118.159 353.037 118.222 353.14 118.293C352.163 118.764 351.314 119.464 350.665 120.333C349.934 121.323 349.414 122.452 349.135 123.651C348.948 124.394 348.817 125.15 348.743 125.912C348.671 126.714 348.643 127.543 348.643 128.378C348.683 130.209 348.84 132.035 349.113 133.846C349.113 133.879 349.113 133.924 349.113 133.968C349.295 135.262 349.522 136.528 349.743 137.717C349.74 137.737 349.74 137.757 349.743 137.777C349.997 139.165 350.251 140.448 350.422 141.554C350.455 141.753 350.483 141.935 350.51 142.107C350.632 142.837 350.69 143.577 350.682 144.318C350.744 146.107 350.984 147.885 351.4 149.626C351.543 150.356 351.709 151.136 351.892 151.948C352.14 153.054 352.411 154.259 352.704 155.487C352.864 156.161 353.035 156.858 353.212 157.549C353.278 157.826 353.35 158.102 353.416 158.384L353.527 158.821C354.703 163.504 355.979 168.165 356.764 170.985C357.228 172.643 357.521 173.666 357.521 173.666C357.521 173.666 365.84 160.203 372.48 152.54C372.58 152.429 372.668 152.324 372.762 152.225C373.419 151.467 374.066 150.776 374.684 150.168C376.038 148.819 377.253 147.857 378.231 147.503C378.439 147.426 378.641 147.332 378.833 147.221C381.551 145.678 385.937 140.077 390.042 134.211C390.445 133.658 390.837 133.056 391.235 132.486C392.146 131.17 393.03 129.849 393.864 128.583C394.505 127.615 395.118 126.675 395.698 125.779C398.461 121.478 400.405 118.271 400.405 118.271L404.239 118.1L404.907 118.066H405.355L422.761 117.259C422.761 117.259 423.513 117.386 424.75 117.635C424.816 117.635 424.883 117.635 424.955 117.679C431.131 118.907 448.289 122.794 449.338 128.185C450.62 134.786 478.296 143.594 478.296 143.594C478.661 148.017 485.439 150.931 485.439 150.931C485.439 150.931 495.703 178.078 492.958 188.716C490.245 199.221 500.017 225.208 500.277 225.937L498.404 228.304L452.073 286.961Z" fill="#E8F5FF"/>
<path opacity="0.1" d="M398.682 93.0754C398.682 93.0754 415.624 88.2652 419.475 98.1676C423.325 108.07 431.937 148.061 431.937 148.061C431.937 148.061 409.575 152.28 403.714 148.061C400.276 145.558 396.021 144.444 391.798 144.943L379.154 153.563L375.419 152.457C375.419 152.457 395.649 122.357 400.046 112.128C404.443 101.9 405.929 97.3272 398.682 93.0754Z" fill="black"/>
<path d="M397.947 90.8638C397.947 90.8638 414.901 86.0535 418.768 95.956C422.635 105.858 431.23 145.85 431.23 145.85C431.23 145.85 408.874 150.068 403.007 145.85C399.571 143.346 395.318 142.232 391.097 142.731L378.441 151.351L374.707 150.245C374.707 150.245 394.936 120.145 399.333 109.917C403.731 99.6881 405.195 95.1266 397.947 90.8638Z" fill="#E8F5FF"/>
<path opacity="0.1" d="M284.22 250.403C284.22 250.403 296.865 253.522 299.252 260.676C301.638 267.831 289.905 268.013 289.905 268.013C289.905 268.013 282.756 255.357 284.22 250.403Z" fill="black"/>
<path opacity="0.1" d="M331.32 303.228C331.32 303.228 300.351 366.695 307.499 372.749C314.647 378.804 331.32 303.228 331.32 303.228Z" fill="black"/>
<path opacity="0.1" d="M374.021 256.458C374.021 256.458 398.764 318.106 393.815 327.627C388.865 337.148 404.443 327.627 404.443 327.627L374.021 256.458Z" fill="black"/>
<path d="M408.476 317.354C408.476 317.354 324.906 321.39 349.284 347.438C373.662 373.485 423.69 348.543 423.69 348.543L408.476 317.354Z" fill="#FFC1C7"/>
<path opacity="0.1" d="M396.383 69.7263C396.391 75.7254 395.214 81.6668 392.92 87.2091C392.152 87.2975 391.384 87.3528 390.644 87.386C389.539 84.9588 390.13 82.1555 390.152 79.485C390.174 76.8145 389.191 73.674 386.622 72.9553C381.501 71.5122 377.966 81.094 372.917 79.3634C369.05 78.0475 370.061 72.1757 367.834 68.7864C366.072 66.1048 362.542 65.3473 359.797 63.6665C353.958 60.0782 354.134 54.3391 351.422 48.9096C348.583 43.2202 342.583 44.9011 337.374 48.2572C333.419 50.8116 330.005 54.234 325.773 56.2687C322.111 58.038 317.995 58.6794 313.935 58.7734C311.435 58.8703 308.935 58.6059 306.51 57.9882C309.362 47.2586 316.015 37.9333 325.23 31.7513C334.444 25.5693 345.59 22.9527 356.59 24.3894C367.59 25.8262 377.692 31.2182 385.013 39.5599C392.334 47.9016 396.373 58.6236 396.378 69.7263H396.383Z" fill="black"/>
<path d="M337.391 46.792C333.43 49.3464 330.021 52.7634 325.79 54.8091C322.127 56.5728 318.012 57.2142 313.951 57.3082C308.98 57.4188 303.627 56.5452 300.229 52.9513C297.108 49.6339 296.362 44.5307 297.683 40.1793C299.003 35.828 302.168 32.2176 305.886 29.6023C309.604 26.9871 313.918 25.1791 316.382 21.436C317.686 19.4566 318.316 17.1234 319.398 15.0168C322.862 8.27694 330.651 4.62779 338.181 4.17441C345.71 3.72103 353.173 5.96581 360.344 8.39858C367.514 10.8313 374.74 13.5074 382.308 14.0105C385.678 14.2206 389.18 14.0105 392.307 15.2877C396.511 16.9962 399.267 21.0821 401.145 25.2399C403.25 29.9285 404.559 35.0484 404.338 40.1683C403.874 51.0991 396.66 61.8254 399.831 72.2974C400.67 75.0895 402.245 77.9535 401.405 80.7457C400.179 84.8206 394.925 85.7494 390.677 85.943C389.572 83.5157 390.163 80.707 390.185 78.042C390.207 75.377 389.224 72.231 386.661 71.5122C381.534 70.0802 377.999 79.6454 372.961 77.9204C369.122 76.5989 370.116 70.7327 367.884 67.3434C366.122 64.6563 362.586 63.9043 359.846 62.2235C354.007 58.6352 354.184 52.8961 351.472 47.4666C348.61 41.7496 342.605 43.4304 337.391 46.792Z" fill="#99607E"/>
<path d="M256.356 257.187L252.141 258.658C252.141 258.658 253.798 283.605 248.274 290.76C242.75 297.914 266.416 315.701 266.416 315.701C266.416 315.701 298.854 315.519 299.771 312.936C300.688 310.354 298.113 266.714 298.113 266.714C298.113 266.714 280.701 259.924 282.165 249.104C282.165 249.104 276.851 274.598 268.973 273.498C261.096 272.398 252.152 265.813 256.356 257.187Z" fill="#E8F5FF"/>
<path opacity="0.1" d="M270.415 281.217C276.557 281.217 281.535 276.659 281.535 271.038C281.535 265.416 276.557 260.859 270.415 260.859C264.274 260.859 259.295 265.416 259.295 271.038C259.295 276.659 264.274 281.217 270.415 281.217Z" fill="black"/>
<path d="M282.574 257.923C282.574 257.923 280.364 190.425 261.129 205.464C241.894 220.502 241.706 238.488 245.368 243.802C249.031 249.115 260.775 275.715 260.775 275.715C262.612 276.781 264.676 277.396 266.796 277.509C268.916 277.623 271.033 277.232 272.973 276.369C274.914 275.506 276.622 274.195 277.959 272.544C279.295 270.892 280.222 268.948 280.662 266.869L282.574 257.923Z" fill="#FFC1C7"/>
<path opacity="0.1" d="M402.565 86.9492C402.475 86.6527 402.303 86.3879 402.068 86.1862C401.118 85.3182 399.074 85.0141 395.991 85.2795L396.118 86.7391C400.228 86.3853 401.04 87.2036 401.145 87.3418V87.48L401.272 87.6625C401.785 88.3518 402.148 89.1406 402.338 89.9785C402.528 90.8163 402.542 91.6847 402.377 92.528C401.477 97.0342 395.947 100.622 395.892 100.661L395.759 100.739L395.676 100.866C393.29 104.41 379.794 114.412 376.264 116.999L375.955 116.646C374.375 118.017 360.487 130.186 359.736 134.847C359.25 137.772 355.957 138.905 354.764 139.221C353.505 138.264 349.417 135.007 347.29 131.358C345.296 127.925 353.322 121.224 354.029 118.608L352.925 117.475C352.809 117.895 342.5 127.538 345.368 132.464C347.666 136.417 351.864 139.801 353.333 140.918C352.864 145.186 349.942 170.249 345.45 176.187C339.871 183.569 335.181 220.768 335.7 233.756C336.159 245.295 333.148 267.09 323.094 276.451C321.353 278.142 319.253 279.419 316.951 280.184C314.649 280.95 312.203 281.186 309.797 280.874H309.676H309.554C309.411 280.874 294.827 282.367 282.574 272.027C272.548 263.585 266.869 249.806 265.686 231.063H265.443L265.344 225.606C268.063 225.181 270.511 223.718 272.174 221.525C273.838 219.331 274.587 216.578 274.265 213.843C273.943 211.108 272.574 208.605 270.446 206.859C268.318 205.113 265.597 204.26 262.855 204.48C260.112 204.7 257.561 205.976 255.739 208.039C253.916 210.101 252.963 212.791 253.08 215.542C253.197 218.294 254.375 220.893 256.366 222.793C258.357 224.693 261.007 225.747 263.759 225.733H263.88L263.98 231.157L263.493 231.19C264.709 250.542 270.675 264.856 281.171 273.697C289.149 280.314 299.339 283.651 309.681 283.036C310.415 283.116 311.153 283.157 311.891 283.157C316.632 283.182 321.193 281.346 324.597 278.043C335.186 268.174 338.407 245.577 337.904 233.645C337.352 219.883 342.274 184.022 347.213 177.492C352.052 171.084 354.985 146.115 355.499 141.277C357.25 140.785 361.211 139.232 361.885 135.195C362.371 132.276 371.646 123.28 377.353 118.299L377.181 118.1C380.253 115.855 389.804 108.778 394.538 104.233C396.008 102.823 397.466 101.413 398.991 100.07C400.825 98.444 403.156 95.862 403.769 92.81C403.978 91.8025 403.979 90.7629 403.772 89.7551C403.565 88.7472 403.154 87.7924 402.565 86.9492Z" fill="black"/>
<path d="M353.145 140.57C352.913 140.409 347.411 136.467 344.655 131.723C341.793 126.797 352.101 117.16 352.212 116.74L353.317 117.873C352.615 120.483 344.588 127.189 346.583 130.617C349.096 134.947 354.388 138.734 354.444 138.773L353.145 140.57Z" fill="#353146"/>
<path d="M375.546 118.072L374.684 116.883C374.861 116.756 392.213 104.194 394.947 100.13L395.035 100.009L395.163 99.9258C395.218 99.8871 400.748 96.3043 401.648 91.7926C401.814 90.9503 401.802 90.0824 401.611 89.2452C401.421 88.408 401.057 87.6201 400.543 86.9326L400.416 86.7446V86.6119C400.306 86.4682 399.494 85.6554 395.384 86.0093L395.256 84.5441C398.345 84.2787 400.383 84.5828 401.333 85.4508C401.57 85.6546 401.744 85.9209 401.836 86.2194C402.433 87.06 402.852 88.0142 403.067 89.0232C403.282 90.0321 403.287 91.0743 403.084 92.0857C402.471 95.1432 400.145 97.7253 398.306 99.3453C396.787 100.689 395.323 102.11 393.859 103.509C388.307 108.833 376.154 117.635 375.546 118.072Z" fill="#E8F5FF"/>
<path d="M264.631 223.681L263.167 223.708L263.331 232.613L264.794 232.587L264.631 223.681Z" fill="#E8F5FF"/>
<path d="M263.046 225.031C268.949 225.031 273.735 220.241 273.735 214.332C273.735 208.423 268.949 203.633 263.046 203.633C257.142 203.633 252.356 208.423 252.356 214.332C252.356 220.241 257.142 225.031 263.046 225.031Z" fill="#1E90FF"/>
<path d="M263.046 223.217C267.949 223.217 271.923 219.239 271.923 214.332C271.923 209.425 267.949 205.447 263.046 205.447C258.143 205.447 254.168 209.425 254.168 214.332C254.168 219.239 258.143 223.217 263.046 223.217Z" fill="#E8F5FF"/>
<path d="M311.195 282.444C310.457 282.445 309.719 282.406 308.985 282.328C298.644 282.937 288.455 279.6 280.475 272.989C269.979 264.143 264.024 249.845 262.797 230.477L265.007 230.339C266.189 249.082 271.868 262.866 281.9 271.303C294.153 281.615 308.731 280.149 308.875 280.149H308.996H309.118C311.525 280.46 313.97 280.224 316.273 279.458C318.576 278.692 320.677 277.417 322.42 275.726C332.469 266.366 335.479 244.57 335.021 233.031C334.468 220.033 339.158 182.833 344.743 175.458C349.632 168.994 352.665 139.862 352.698 139.569L352.781 138.739L353.599 138.596C353.648 138.596 358.421 137.689 359.018 134.117C359.791 129.462 373.657 117.292 375.231 115.916L376.673 117.574C370.945 122.551 361.67 131.552 361.205 134.477C360.532 138.524 356.571 140.072 354.825 140.559C354.273 145.402 351.361 170.365 346.539 176.774C341.6 183.303 336.678 219.164 337.23 232.926C337.706 244.858 334.518 267.46 323.928 277.324C320.518 280.635 315.946 282.474 311.195 282.444Z" fill="#353146"/>
<g opacity="0.1">
<path opacity="0.1" d="M401.09 56.6558C401.996 53.3052 403.09 49.9325 403.852 46.5377C402.941 49.9491 401.841 53.3052 401.09 56.6558Z" fill="black"/>
<path opacity="0.1" d="M391.848 82.9849C390.743 80.5577 391.334 77.7489 391.356 75.084C391.378 72.419 390.395 69.3006 387.832 68.5542C382.705 67.1222 379.17 76.6929 374.132 74.9623C370.265 73.6409 371.287 67.7746 369.055 64.3853C367.293 61.6982 363.763 60.9463 361.023 59.2655C355.178 55.6771 355.355 49.938 352.648 44.5085C349.803 38.8136 343.81 40.4945 338.595 43.8561C334.634 46.4105 331.225 49.833 326.994 51.8732C323.331 53.6369 319.216 54.2783 315.156 54.3723C310.211 54.4884 304.831 53.6093 301.433 50.0154C298.815 47.2509 297.87 43.1981 298.412 39.3997C298.318 39.6596 298.235 39.9194 298.152 40.1793C296.826 44.5306 297.6 49.645 300.699 52.9513C304.096 56.5452 309.477 57.4188 314.421 57.3082C318.487 57.2142 322.597 56.5728 326.265 54.8091C330.507 52.7633 333.916 49.3464 337.866 46.792C343.08 43.4304 349.08 41.7495 351.919 47.4444C354.626 52.8739 354.455 58.613 360.294 62.2014C363.056 63.8601 366.564 64.6341 368.332 67.3212C370.541 70.7216 369.563 76.5768 373.408 77.8982C378.441 79.6233 381.976 70.0581 387.103 71.4901C389.666 72.2089 390.655 75.3604 390.627 78.0199C390.6 80.6793 390.025 83.4936 391.119 85.9208C395.367 85.7273 400.62 84.815 401.852 80.7235C402.022 80.1364 402.1 79.5266 402.084 78.9156C400.289 82.0173 395.671 82.8135 391.848 82.9849Z" fill="black"/>
</g>
<path opacity="0.1" d="M491.687 219.22L498.1 226.009C498.1 226.009 503.232 263.424 505.796 266.924C508.359 270.424 514.413 284.346 508.729 294.801C508.729 294.801 506.895 300.491 507.994 302.874C509.094 305.257 499.752 317.183 499.752 317.183C499.752 317.183 487.472 328.185 484.903 329.839C482.334 331.492 468.778 344.695 464.198 344.878C459.619 345.06 458.122 350.749 458.122 350.749L432.28 351.667C432.28 351.667 418.005 350.921 414.9 352.939C414.9 352.939 416.558 331.11 400.609 316.801L420.949 309.464C420.949 309.464 428.65 306.147 431.031 302.68C432.529 300.555 434.654 298.952 437.108 298.097C437.108 298.097 442.787 294.06 442.969 291.86C443.151 289.659 449.913 286.961 449.913 286.961L446.085 254.257L448.101 199.962C448.101 199.962 454.515 154.47 468.076 157.04C481.638 159.611 491.687 219.22 491.687 219.22Z" fill="black"/>
<path d="M493.897 219.22L500.31 226.009C500.31 226.009 505.442 263.424 508.005 266.924C510.569 270.424 516.623 284.346 510.939 294.801C510.939 294.801 509.11 300.491 510.21 302.874C511.309 305.257 501.962 317.183 501.962 317.183C501.962 317.183 489.682 328.185 487.113 329.839C484.544 331.492 470.988 344.695 466.408 344.878C461.829 345.06 460.332 350.749 460.332 350.749L434.489 351.667C434.489 351.667 420.204 350.921 417.11 352.939C417.11 352.939 418.767 331.11 402.819 316.801L423.159 309.464C423.159 309.464 430.86 306.147 433.241 302.68C434.739 300.555 436.864 298.952 439.318 298.097C439.318 298.097 444.996 294.06 445.179 291.86C445.361 289.659 452.123 286.961 452.123 286.961L448.294 254.257L450.311 199.962C450.311 199.962 456.724 154.47 470.286 157.04C483.848 159.611 493.897 219.22 493.897 219.22Z" fill="#E8F5FF"/>
<path opacity="0.1" d="M470.054 274.068C470.054 274.068 488.93 269.091 493.88 275.173C498.83 281.255 470.054 274.068 470.054 274.068Z" fill="black"/>
<path opacity="0.1" d="M465.657 282.411C472.071 286.906 491.864 287.088 491.864 287.088L465.657 282.411Z" fill="black"/>
<path opacity="0.1" d="M475.368 304.881C475.921 305.063 488.975 319.007 494.455 314.789C499.935 310.57 475.368 304.881 475.368 304.881Z" fill="black"/>
<path opacity="0.1" d="M299.566 187.854C299.566 187.854 303.4 214.271 301.511 225.031C299.622 235.79 306.516 249.121 306.516 249.121L299.566 187.854Z" fill="black"/>
<path d="M214.692 198.597C210.273 202.063 207.047 210.268 204.71 219.286C200.633 235.016 199.302 253.256 199.302 253.256C199.302 253.256 164.113 245.184 166.676 241.518C168.289 239.213 166.124 221.84 164.317 209.245C163.24 201.803 162.279 196.026 162.279 196.026C162.279 196.026 226.79 189.053 214.692 198.597Z" fill="#FFCCD0"/>
<path opacity="0.1" d="M214.692 197.861C210.273 201.333 207.047 209.533 204.71 218.551C197.699 220.681 190.243 220.874 183.131 219.107C176.02 217.34 169.519 213.68 164.317 208.516C163.24 201.068 162.279 195.29 162.279 195.29C162.279 195.29 226.79 188.324 214.692 197.861Z" fill="black"/>
<path d="M233.607 178.101C233.611 187.717 230.215 197.025 224.021 204.377C217.827 211.729 209.235 216.651 199.764 218.271C190.293 219.892 180.554 218.107 172.272 213.232C163.99 208.357 157.698 200.706 154.509 191.635C151.321 182.563 151.441 172.655 154.85 163.663C158.259 154.672 164.736 147.178 173.135 142.507C181.533 137.836 191.312 136.289 200.741 138.14C210.17 139.992 218.64 145.122 224.653 152.623C230.447 159.848 233.606 168.836 233.607 178.101Z" fill="#FFCCD0"/>
<path opacity="0.1" d="M265.692 432.745H254.091L253.113 412.238L252.091 391.012C252.091 391.012 254.726 390.619 258.925 390.033L260.621 389.806H260.759C261.676 394.113 262.582 398.537 263.455 402.954C264.907 410.797 265.664 418.753 265.714 426.729C265.714 427.282 265.714 427.835 265.714 428.355C265.747 429.831 265.714 431.307 265.692 432.745Z" fill="black"/>
<path d="M263.466 432.745H117.98C118.61 431.313 119.03 430.445 119.03 430.445C119.03 430.445 130.669 379.478 136.586 357.915C136.588 357.897 136.588 357.878 136.586 357.86C137.325 354.93 138.217 352.042 139.259 349.207C139.327 349.014 139.414 348.829 139.519 348.654C142.447 343.888 146.115 338.751 140.983 331.414C135.851 324.077 137.668 291.793 137.668 291.793C137.668 291.793 143.9 264.276 150.496 249.602C151.497 247.329 152.917 245.265 154.683 243.52C155.257 242.958 155.87 242.437 156.517 241.961C157.009 241.59 157.522 241.249 158.053 240.938L158.158 240.871C160.929 239.299 164.005 238.343 167.179 238.068C169.433 237.832 171.708 237.895 173.946 238.256C184.641 239.826 193.203 242.453 200.009 245.444C218.454 253.555 224.039 264.425 224.15 264.652L224.194 264.746C224.934 266.476 235.762 291.777 239.662 303.581C240.673 306.655 241.225 308.817 241.004 309.409C239.899 312.339 249.434 349.024 249.434 349.024C249.434 349.024 253.853 366.717 258.273 387.456C258.466 388.319 258.648 389.182 258.825 390.055C259.615 393.82 260.4 397.657 261.156 401.489C262.623 409.386 263.379 417.398 263.416 425.43C263.497 427.932 263.513 430.371 263.466 432.745Z" fill="#FF748E"/>
<path opacity="0.1" d="M166.312 225.451C166.312 225.451 156.274 221.581 156.396 227.452C156.517 233.324 158.843 236.133 158.108 236.99C157.373 237.847 158.473 242.983 158.473 242.983C158.473 242.983 172.035 242.983 178.266 245.792C184.497 248.601 207.467 254.229 210.4 255.943C213.334 257.657 224.211 265.343 224.211 265.343L225.188 250.79C225.188 250.79 213.947 241.496 195.501 236.73C177.056 231.964 166.312 225.451 166.312 225.451Z" fill="black"/>
<path d="M166.312 224.716C166.312 224.716 156.274 220.845 156.396 226.717C156.517 232.589 158.843 235.398 158.108 236.255C157.373 237.112 158.473 242.248 158.473 242.248C158.473 242.248 172.035 242.248 178.266 245.062C184.497 247.877 207.467 253.5 210.4 255.208C213.334 256.917 224.211 264.607 224.211 264.607L225.2 250.099C225.2 250.099 213.958 240.805 195.512 236.039C177.067 231.273 166.312 224.716 166.312 224.716Z" fill="#FF748E"/>
<path opacity="0.1" d="M196.612 259.736C196.612 259.736 215.792 280.52 214.814 286.276C213.836 292.031 196.612 259.736 196.612 259.736Z" fill="black"/>
<path opacity="0.1" d="M165.455 334.815C165.455 334.815 151.396 347.78 147.253 348.516C143.11 349.251 150.429 351.695 155.191 349.743C159.953 347.791 170.107 342.655 170.107 342.655L165.455 334.815Z" fill="black"/>
<path d="M269.178 432.745H236.392C231.806 428.764 227.47 425.076 224.708 422.859C220.288 419.309 217.101 414.084 215.068 409.882C214.61 408.926 214.212 408.03 213.875 407.217C213.272 405.817 212.74 404.387 212.284 402.932L236.563 388.501C237.905 389.643 239.165 390.878 240.336 392.195L240.629 392.532C241.977 394.124 243.164 395.932 243.269 397.414C243.391 399.139 248.186 405.813 253.086 412.221C258.057 418.74 263.151 424.971 263.488 425.391C263.488 425.391 264.327 426.535 265.697 428.294C266.664 429.565 267.857 431.091 269.178 432.745Z" fill="#FFCCD0"/>
<path opacity="0.1" d="M224.653 152.623C223.487 155.255 222.443 157.986 222.288 160.916C221.852 169.376 222.559 188.29 213.201 192.537C208.566 194.627 203.605 190.038 198.523 189.927C194.866 189.85 191.513 192.172 189.281 195.075C187.049 197.977 185.663 201.422 184.044 204.706C182.571 207.687 180.874 210.552 178.967 213.276C178.398 214.11 177.77 214.902 177.089 215.648C171.383 213.238 166.302 209.556 162.233 204.883C158.164 200.21 155.214 194.669 153.608 188.682C152.003 182.695 151.784 176.421 152.969 170.336C154.153 164.252 156.71 158.519 160.443 153.573C164.177 148.627 168.989 144.6 174.514 141.798C180.038 138.995 186.129 137.492 192.321 137.403C198.514 137.313 204.645 138.64 210.248 141.281C215.851 143.923 220.778 147.809 224.653 152.645V152.623Z" fill="black"/>
<path d="M221.554 159.423C221.112 167.883 221.824 186.798 212.461 191.038C207.826 193.128 202.865 188.545 197.783 188.434C194.126 188.351 190.778 190.679 188.541 193.576C186.304 196.473 184.928 199.924 183.304 203.213C181.83 206.194 180.133 209.059 178.227 211.783C177.089 213.398 175.83 215.018 174.079 215.924C171.029 217.517 167.334 216.621 164.063 215.598C159.821 214.26 155.641 212.753 151.523 211.076C151.618 210.453 151.666 209.825 151.667 209.196C151.545 209.428 151.413 209.643 151.28 209.876L151.021 210.329C150.551 211.158 150.093 211.988 149.673 212.839C149.513 213.165 149.358 213.503 149.22 213.84C148.664 215.095 148.315 216.432 148.187 217.799C147.905 221.487 149.722 224.986 151.336 228.304C157.539 241.137 161.373 256.142 156.705 269.606C154.683 275.461 151.181 280.664 148.623 286.32C144.152 296.338 142.836 307.481 144.85 318.266C146.126 324.968 148.684 331.602 148.054 338.398C146.949 350.091 136.873 358.794 126.78 364.776C121.328 367.994 114.655 370.858 108.865 368.315C112.556 364.002 113.506 358.037 114.301 352.408C116.478 337.056 118.66 321.696 120.847 306.329C121.72 300.214 122.591 294.099 123.46 287.984C125.085 276.495 126.731 264.878 125.714 253.317C124.974 244.797 122.886 235.751 126.576 228.039C128.526 223.953 132.001 220.569 133.084 216.168C133.973 212.59 133.144 208.786 133.73 205.143C134.05 203.485 134.593 201.878 135.343 200.366C136.298 198.313 137.545 196.41 139.044 194.715C137.564 194.284 136.183 193.692 135.343 192.454C137.718 190.906 138.077 187.417 137 184.796C135.923 182.175 133.769 180.179 131.83 178.112C129.891 176.044 128.023 173.633 127.78 170.813C127.311 165.445 132.669 161.287 133.614 155.99C134.57 150.599 130.791 145.358 131.095 139.901C131.448 133.304 137.503 128.511 143.48 125.73C152.5 121.551 162.464 119.834 172.361 120.754C180.415 121.517 188.21 124.01 196.242 124.978C201.086 125.531 205.997 125.586 210.809 126.437C215.621 127.289 220.443 129.086 223.83 132.619C232.757 141.935 222.062 149.604 221.554 159.423Z" fill="#FFE0D0"/>
<path opacity="0.1" d="M214.085 409.888C211.268 408.666 206.141 409.396 197.341 406.714C188.541 404.032 186.845 391.913 186.845 391.913V391.874C186.74 391.598 185.922 389.795 180.387 383.481C174.272 376.509 161.053 341.295 161.053 341.295C161.053 341.295 149.33 328.694 149.7 324.05C150.07 319.405 147.618 307.048 147.861 293.226C148.104 279.403 174.25 270.236 174.25 270.236C224.592 261.307 212.737 319.394 211.395 323.795C210.052 328.197 217.018 340.084 217.018 340.084C216.035 345.259 221.051 353.271 221.051 353.271C221.051 353.271 222.266 360.359 222.515 363.051C222.529 363.176 222.556 363.298 222.598 363.416C223.404 365.954 229.978 368.254 232.652 369.653C235.464 371.124 244.507 383.962 244.507 383.962C246.457 393.389 216.891 411.126 214.085 409.888Z" fill="black"/>
<path d="M215.549 407.676C212.737 406.449 207.605 407.184 198.811 404.497C190.016 401.81 188.315 389.701 188.315 389.701V389.663C188.215 389.381 187.392 387.584 181.857 381.27C175.741 374.297 162.522 339.078 162.522 339.078C162.522 339.078 150.8 326.483 151.164 321.838C151.529 317.194 149.087 304.836 149.33 291.025C149.573 277.214 175.703 268.052 175.703 268.052C226.045 259.123 214.19 317.21 212.848 321.611C211.505 326.013 218.471 337.9 218.471 337.9C217.488 343.075 222.504 351.087 222.504 351.087C222.504 351.087 223.719 358.175 223.973 360.867C223.983 360.992 224.009 361.115 224.051 361.232C224.857 363.77 231.431 366.07 234.11 367.469C236.916 368.934 245.965 381.778 245.965 381.778C247.926 391.189 218.361 408.926 215.549 407.676Z" fill="#FF748E"/>
<path opacity="0.1" d="M176.697 298.379C176.697 298.379 198.689 321.6 204.429 321.6C210.168 321.6 176.697 298.379 176.697 298.379Z" fill="black"/>
<path d="M215.549 407.676C212.737 406.449 207.605 407.184 198.81 404.497C190.016 401.81 188.314 389.701 188.314 389.701V389.663C194.142 385.792 208.903 374.861 214.72 370.864C218.814 368.061 222.156 363.942 224.111 361.21C224.918 363.748 231.492 366.048 234.171 367.447C236.977 368.912 246.026 381.756 246.026 381.756C247.926 391.189 218.361 408.926 215.549 407.676Z" fill="#FF748E"/>
<g opacity="0.1">
<path opacity="0.1" d="M135.376 192.515C135.404 192.559 135.443 192.598 135.476 192.642C135.641 192.432 135.813 192.222 135.989 192.023C135.801 192.206 135.596 192.371 135.376 192.515Z" fill="black"/>
<path opacity="0.1" d="M148.192 217.86C148.424 214.791 150.065 212.087 151.601 209.389C150.595 209.002 149.59 208.61 148.596 208.2C148.69 207.58 148.738 206.954 148.739 206.326C147.187 209.091 145.496 211.811 145.259 214.924C144.977 218.617 146.795 222.111 148.408 225.429C154.617 238.256 158.445 253.262 153.777 266.731C151.75 272.58 148.253 277.789 145.695 283.445C141.226 293.461 139.912 304.603 141.928 315.386C143.193 322.093 145.756 328.722 145.126 335.517C144.021 347.211 133.951 355.913 123.853 361.89C119.726 364.334 114.903 366.573 110.291 366.413C109.864 367.101 109.387 367.757 108.865 368.376C114.66 370.936 121.328 368.055 126.78 364.826C136.884 358.855 146.977 350.174 148.082 338.458C148.712 331.663 146.148 325.034 144.878 318.327C142.861 307.545 144.171 296.405 148.634 286.386C151.175 280.736 154.711 275.522 156.716 269.672C161.384 256.203 157.55 241.198 151.347 228.37C149.739 225.031 147.911 221.553 148.192 217.86Z" fill="black"/>
<path opacity="0.1" d="M223.819 132.685C223.275 132.127 222.692 131.61 222.073 131.137C228.768 139.829 219.101 147.215 218.62 156.571C218.189 165.03 218.897 183.95 209.533 188.185C204.904 190.281 199.938 185.692 194.861 185.581C191.198 185.504 187.851 187.832 185.613 190.729C183.376 193.626 182 197.076 180.382 200.36C178.905 203.341 177.206 206.205 175.3 208.93C174.195 210.55 172.902 212.165 171.145 213.077C168.107 214.664 164.411 213.774 161.136 212.745C157.95 211.743 154.794 210.637 151.667 209.428C151.661 210.004 151.613 210.578 151.523 211.147C155.644 212.828 159.826 214.336 164.069 215.67C167.339 216.699 171.035 217.589 174.079 216.002C175.83 215.09 177.1 213.47 178.233 211.85C180.141 209.129 181.838 206.265 183.31 203.285C184.934 200.001 186.304 196.545 188.547 193.648C190.789 190.751 194.132 188.429 197.789 188.506C202.871 188.617 207.837 193.206 212.466 191.11C221.83 186.875 221.117 167.955 221.554 159.495C222.062 149.659 232.757 141.996 223.819 132.685Z" fill="black"/>
</g>
<path opacity="0.1" d="M151.026 210.335C150.556 211.164 150.098 211.993 149.678 212.845C149.518 213.171 149.363 213.508 149.225 213.846C146.33 210.926 139.282 203.987 135.348 201.836C136.305 199.785 137.551 197.882 139.05 196.186C139.05 196.186 148.424 201.145 151.026 210.335Z" fill="black"/>
<path d="M151.286 209.881C149.115 200.045 139.05 194.721 139.05 194.721C137.55 196.416 136.303 198.319 135.348 200.371C139.497 202.644 147.143 210.263 149.678 212.845L151.286 209.881Z" fill="#FF748E"/>
</g>
<defs>
<linearGradient id="paint0_linear" x1="403.283" y1="52.7523" x2="403.283" y2="42.59" gradientUnits="userSpaceOnUse">
<stop stop-color="#808080" stop-opacity="0.25"/>
<stop offset="0.54" stop-color="#808080" stop-opacity="0.12"/>
<stop offset="1" stop-color="#808080" stop-opacity="0.1"/>
</linearGradient>
<linearGradient id="paint1_linear" x1="253435" y1="364088" x2="253435" y2="25385" gradientUnits="userSpaceOnUse">
<stop stop-color="#808080" stop-opacity="0.25"/>
<stop offset="0.54" stop-color="#808080" stop-opacity="0.12"/>
<stop offset="1" stop-color="#808080" stop-opacity="0.1"/>
</linearGradient>
<clipPath id="clip0">
<rect width="600" height="432.739" fill="white"/>
</clipPath>
</defs>
</svg>
