<svg width="1006" height="276" viewBox="0 0 1006 276" fill="none" xmlns="http://www.w3.org/2000/svg">
<path d="M228.881 225.705L220.593 211.93L228.881 225.705ZM33.0759 144C33.0759 82.7383 82.7383 33.0759 144 33.0759V0.924051C64.9813 0.924051 0.924051 64.9813 0.924051 144H33.0759ZM144 33.0759C205.262 33.0759 254.924 82.7383 254.924 144H287.076C287.076 64.9813 223.019 0.924051 144 0.924051V33.0759ZM254.924 144C254.924 172.199 238.944 200.889 220.593 211.93L237.169 239.48C266.625 221.756 287.076 181.69 287.076 144H254.924ZM220.593 211.93C205.01 221.307 189.919 221.815 179.76 216.414C170.227 211.345 160.076 198.334 160.076 169.439H127.924C127.924 205.813 141.244 232.349 164.666 244.803C187.463 256.924 214.813 252.931 237.169 239.48L220.593 211.93ZM0.924051 144C0.924051 167.284 5.44989 185.356 14.1448 202.411C22.5002 218.801 34.5726 233.869 48.1764 250.863L73.2767 230.77C59.1571 213.132 49.3663 200.71 42.7892 187.808C36.5517 175.573 33.0759 162.553 33.0759 144H0.924051Z" fill="url(#paint0_linear)"/>
<path d="M70.6936 112.852C70.6936 136.885 80.4333 155.316 95.2739 167.426C109.654 179.161 127.863 184.229 144.482 184.229V152.077C133.933 152.077 123.285 148.786 115.602 142.516C108.378 136.621 102.845 127.401 102.845 112.852H70.6936ZM144.482 184.229C160.628 184.229 177.814 179.137 191.207 167.442C204.959 155.433 213.448 137.54 213.448 114.781H181.296C181.296 128.997 176.281 137.79 170.059 143.224C163.478 148.971 154.219 152.077 144.482 152.077V184.229Z" fill="url(#paint1_linear)"/>
<circle cx="87.0911" cy="113.173" r="25.7215" fill="#65B2FB"/>
<circle cx="87.0911" cy="113.173" r="25.7215" fill="#65B2FB"/>
<circle cx="87.0911" cy="113.173" r="25.7215" fill="#65B2FB"/>
<circle cx="64.5848" cy="241.138" r="25.7215" fill="#65B2FB"/>
<circle cx="64.5848" cy="241.138" r="25.7215" fill="#65B2FB"/>
<circle cx="64.5848" cy="241.138" r="25.7215" fill="#65B2FB"/>
<circle cx="197.694" cy="113.173" r="25.7215" fill="#65B2FB"/>
<circle cx="197.694" cy="113.173" r="25.7215" fill="#65B2FB"/>
<circle cx="197.694" cy="113.173" r="25.7215" fill="#65B2FB"/>
<path d="M369.685 205C365.004 205 361.394 203.73 358.853 201.189C356.312 198.648 355.041 195.037 355.041 190.357V78.2257C355.041 73.5452 356.312 69.9345 358.853 67.3937C361.394 64.8528 365.004 63.5824 369.685 63.5824H410.004C425.382 63.5824 438.622 66.3907 449.721 72.0073C460.82 77.6239 469.312 85.7144 475.196 96.279C481.08 106.843 484.022 119.481 484.022 134.191C484.022 148.901 481.08 161.605 475.196 172.303C469.446 182.868 461.021 190.959 449.922 196.575C438.822 202.192 425.516 205 410.004 205H369.685ZM407.797 179.725C437.886 179.725 452.931 164.547 452.931 134.191C452.931 103.968 437.886 88.857 407.797 88.857H386.334V179.725H407.797ZM549.956 104.102C564.399 104.102 575.097 107.646 582.051 114.733C589.005 121.687 592.482 132.386 592.482 146.828V192.162C592.482 196.575 591.211 200.052 588.67 202.593C586.13 205 582.586 206.204 578.039 206.204C573.76 206.204 570.283 204.933 567.608 202.392C565.067 199.718 563.797 196.308 563.797 192.162V190.758C561.791 195.706 558.448 199.584 553.767 202.392C549.087 205.201 543.604 206.605 537.319 206.605C530.632 206.605 524.548 205.267 519.065 202.593C513.716 199.918 509.436 196.174 506.227 191.36C503.151 186.546 501.613 181.196 501.613 175.312C501.613 168.091 503.419 162.408 507.029 158.262C510.774 154.116 516.725 151.108 524.882 149.235C533.039 147.363 544.206 146.427 558.381 146.427H563.596V142.816C563.596 137.2 562.326 133.121 559.785 130.58C557.378 128.039 553.299 126.769 547.549 126.769C541.799 126.769 533.507 128.775 522.676 132.787C519.6 134.258 516.992 134.993 514.852 134.993C511.91 134.993 509.57 133.99 507.832 131.984C506.093 129.845 505.224 127.103 505.224 123.76C505.224 121.086 505.826 118.879 507.029 117.141C508.233 115.402 510.172 113.797 512.846 112.326C517.527 109.786 523.21 107.78 529.897 106.309C536.717 104.838 543.403 104.102 549.956 104.102ZM543.938 185.743C549.822 185.743 554.57 183.804 558.18 179.926C561.791 175.914 563.596 170.766 563.596 164.48V161.07H560.186C549.354 161.07 541.732 161.94 537.319 163.678C533.039 165.416 530.9 168.559 530.9 173.106C530.9 176.85 532.103 179.926 534.51 182.333C537.051 184.606 540.194 185.743 543.938 185.743ZM676.911 104.102C688.679 104.102 697.438 107.579 703.188 114.533C708.939 121.353 711.814 131.717 711.814 145.625V191.961C711.814 196.375 710.41 199.851 707.601 202.392C704.927 204.933 701.249 206.204 696.569 206.204C691.888 206.204 688.211 204.933 685.536 202.392C682.862 199.851 681.524 196.375 681.524 191.961V147.029C681.524 140.342 680.254 135.461 677.713 132.386C675.306 129.31 671.495 127.772 666.279 127.772C659.994 127.772 654.912 129.778 651.034 133.79C647.29 137.802 645.418 143.151 645.418 149.837V191.961C645.418 196.375 644.08 199.851 641.406 202.392C638.731 204.933 635.054 206.204 630.373 206.204C625.693 206.204 621.948 204.933 619.14 202.392C616.465 199.851 615.128 196.375 615.128 191.961V118.344C615.128 114.199 616.532 110.855 619.341 108.315C622.283 105.774 626.027 104.503 630.574 104.503C634.719 104.503 638.063 105.774 640.603 108.315C643.278 110.722 644.615 113.864 644.615 117.742V120.551C648.092 115.202 652.572 111.123 658.055 108.315C663.672 105.506 669.957 104.102 676.911 104.102ZM749.671 206.204C745.258 206.204 741.58 205 738.638 202.593C735.83 200.186 734.426 196.642 734.426 191.961V118.745C734.426 114.065 735.897 110.521 738.839 108.114C741.781 105.707 745.391 104.503 749.671 104.503C753.95 104.503 757.494 105.707 760.302 108.114C763.244 110.521 764.715 114.065 764.715 118.745V191.961C764.715 196.642 763.244 200.186 760.302 202.593C757.494 205 753.95 206.204 749.671 206.204ZM749.671 88.4559C744.322 88.4559 740.109 87.1186 737.033 84.444C733.958 81.6357 732.42 77.8913 732.42 73.2109C732.42 68.5304 733.958 64.8528 737.033 62.1783C740.109 59.5037 744.322 58.1664 749.671 58.1664C754.886 58.1664 759.032 59.5706 762.108 62.3789C765.317 65.0534 766.922 68.6641 766.922 73.2109C766.922 77.8913 765.384 81.6357 762.308 84.444C759.232 87.1186 755.02 88.4559 749.671 88.4559ZM880.778 181.531C883.854 184.473 885.392 187.816 885.392 191.56C885.392 195.305 883.988 198.648 881.179 201.59C878.505 204.532 875.362 206.003 871.752 206.003C868.275 206.003 865.065 204.599 862.123 201.791L818.193 161.07V191.761C818.193 196.441 816.722 199.985 813.78 202.392C810.972 204.799 807.428 206.003 803.149 206.003C798.736 206.003 795.058 204.799 792.116 202.392C789.308 199.985 787.904 196.441 787.904 191.761V76.8215C787.904 72.141 789.308 68.5972 792.116 66.1901C795.058 63.783 798.736 62.5795 803.149 62.5795C807.428 62.5795 810.972 63.783 813.78 66.1901C816.722 68.5972 818.193 72.141 818.193 76.8215V148.634L858.312 109.117C861.254 106.175 864.53 104.704 868.141 104.704C871.885 104.704 875.162 106.108 877.97 108.916C880.778 111.591 882.182 114.8 882.182 118.545C882.182 122.022 880.644 125.298 877.569 128.374L850.89 153.849L880.778 181.531ZM946.118 206.605C935.687 206.605 926.527 204.532 918.637 200.386C910.747 196.107 904.662 190.156 900.383 182.534C896.104 174.777 893.964 165.684 893.964 155.253C893.964 144.822 896.104 135.796 900.383 128.173C904.662 120.417 910.747 114.466 918.637 110.32C926.527 106.175 935.687 104.102 946.118 104.102C956.549 104.102 965.709 106.175 973.599 110.32C981.489 114.466 987.574 120.417 991.853 128.173C996.132 135.796 998.272 144.822 998.272 155.253C998.272 165.684 996.132 174.777 991.853 182.534C987.574 190.156 981.489 196.107 973.599 200.386C965.709 204.532 956.549 206.605 946.118 206.605ZM946.118 183.537C960.828 183.537 968.183 174.109 968.183 155.253C968.183 145.758 966.244 138.671 962.366 133.99C958.622 129.31 953.206 126.97 946.118 126.97C931.408 126.97 924.053 136.397 924.053 155.253C924.053 174.109 931.408 183.537 946.118 183.537Z" fill="#1E90FF"/>
<circle cx="749.707" cy="73.7124" r="17.5518" fill="#81BEF9"/>
<defs>
<linearGradient id="paint0_linear" x1="144" y1="17" x2="144" y2="240.816" gradientUnits="userSpaceOnUse">
<stop stop-color="#0784FE"/>
<stop offset="0.9999" stop-color="#85C0F9"/>
<stop offset="1" stop-color="#85C0F9"/>
</linearGradient>
<linearGradient id="paint1_linear" x1="142.071" y1="112.852" x2="142.071" y2="168.153" gradientUnits="userSpaceOnUse">
<stop stop-color="#0784FE"/>
<stop offset="0.9999" stop-color="#85C0F9"/>
<stop offset="1" stop-color="#85C0F9"/>
</linearGradient>
</defs>
</svg>
