<svg width="1167" height="1044" viewBox="0 0 1167 1044" fill="none" xmlns="http://www.w3.org/2000/svg">
<path d="M493.152 1004.6C490.752 1015.2 488.452 1025.9 485.852 1036.5C485.352 1038.7 486.152 1043 482.652 1042.3C479.152 1041.6 481.552 1038.1 482.052 1035.8C484.252 1025.4 486.452 1015 488.652 1004.6C488.352 1004.2 488.252 1003.7 488.152 1003.2C488.152 1002.2 488.452 1001.2 488.452 1000.2C490.752 989.1 492.952 978 495.752 966.9C496.152 965.6 496.452 964.3 496.452 963C502.152 936.9 507.452 910.8 513.652 884.9C514.452 883.2 514.352 881.2 514.652 879.4C517.752 866.3 520.452 853.1 523.452 839.9C523.752 838.6 524.352 837.4 524.352 836C526.652 826.2 528.652 816.3 531.252 806.6C531.352 805.8 531.552 805.1 531.752 804.3C532.852 799 532.752 798.9 526.952 798.9C506.752 798.9 488.752 792.5 472.452 780.7C471.252 779.7 469.952 778.9 468.752 777.9C449.552 762 438.252 741.5 434.252 716.9C432.452 705.6 429.852 694.4 428.152 683.1C427.952 682 427.552 681 427.352 680C423.652 660.4 420.152 640.7 416.352 621C416.152 619.1 416.252 617.2 415.552 615.4C413.952 608.3 412.852 601.1 411.352 593.9C411.252 593.1 411.152 592.3 411.152 591.5C407.852 573.8 403.452 556.3 401.852 538.4C400.452 522.8 406.152 509 416.552 497.2C427.752 484.4 442.252 478.6 458.852 477.3C463.152 477 467.452 476 471.752 476.1C475.252 476.1 478.752 474.4 482.152 475.1C479.052 472.7 475.152 470.6 472.652 467C467.552 460.8 463.652 454.1 463.352 445.9C463.352 441.8 463.252 437.7 463.352 433.5C464.652 423.7 469.452 415.5 474.852 407.5C475.652 406.4 476.452 405.5 477.352 404.6C486.252 394.1 497.252 387.8 511.352 386.9C516.252 386.6 521.252 386.4 526.252 385.6C534.752 384.1 542.652 381.4 549.752 376.4C550.552 375.9 551.452 375.4 552.252 374.9C562.552 368.1 569.752 358.7 575.652 348.1C578.852 342.4 582.152 336.8 586.852 332.3C587.752 331.5 588.552 330.6 589.352 329.8C596.452 323.8 604.352 319.5 613.552 317.9C614.352 317.9 615.052 318.2 615.652 318.6C630.652 318.4 644.552 322.6 657.752 329.3C659.452 330.2 661.252 330.4 663.052 330.7C676.952 333 684.252 342.1 683.352 356.1C682.852 358.6 681.152 358.2 679.552 357.6C669.952 354.2 660.452 350.6 651.052 346.9C648.252 345.8 647.852 343.8 649.452 341.3C651.152 338.6 653.452 336.4 654.652 333.4C639.552 332.5 627.452 342.4 624.352 354.1C622.952 359.4 621.552 364.7 619.052 369.6C614.952 370 614.452 366.1 612.452 364C610.152 361.6 609.352 357.7 605.252 357C602.052 357.1 598.952 356.4 595.752 356.8C585.352 358.1 581.152 366.8 586.752 375.7C588.452 378.4 591.052 380.3 592.352 383.3C593.052 388.2 597.352 391.7 597.852 396.7C589.252 403.2 587.152 413.5 582.752 422.4C581.952 424 581.452 425.8 579.652 426.8C577.652 427.3 575.652 427.4 573.652 427.6C568.352 427.1 563.052 426.3 557.752 426.1C534.352 425.1 513.252 441.2 508.152 464.3C499.652 502.8 491.452 541.5 483.552 580.1C479.852 598.3 485.652 611.4 501.452 621.4C505.052 623.7 506.552 626.5 507.052 630.7C509.252 649.5 509.952 668.6 513.652 687.2C520.152 720.1 549.052 746.7 582.452 751.1C592.052 752.4 601.652 752.4 611.352 751.4C619.952 750.5 628.652 751.2 637.352 751.1C641.952 751.1 646.452 751.1 651.052 751.1C666.852 750 682.552 752.3 698.352 752C708.452 751.8 718.652 751.9 728.752 752C734.952 752.1 736.152 753.2 736.252 759.2C736.452 765.8 736.352 772.5 736.252 779.1C736.252 781.1 736.152 783.1 735.052 784.9C726.052 793.8 715.552 799 702.652 798.9C686.752 798.9 670.852 797.3 654.952 798C653.352 798.1 651.152 796.9 650.252 799.4C653.752 814.7 657.352 829.9 660.752 845.2C667.752 876.9 674.652 908.6 681.652 940.3C687.852 968.6 694.152 996.9 700.352 1025.2C701.352 1029.7 702.152 1034.2 703.052 1038.7C703.352 1040.2 704.352 1041.7 702.052 1042.3C699.552 1043 698.852 1040.7 698.652 1039.2C697.752 1030.9 695.452 1023 693.752 1014.9C689.552 994.7 685.252 974.5 680.852 954.4C676.952 936.2 673.052 918.1 668.752 900C664.352 881 660.252 861.8 655.752 842.8C652.652 829.5 649.652 816.2 646.652 802.9C646.252 801.3 645.752 799.8 645.352 798.3C634.952 798.1 624.452 797.2 614.052 798.8C612.452 799 610.752 798.9 609.052 798.9C588.452 798.9 567.752 798.9 547.152 798.9C545.152 798.9 543.152 798.6 541.252 799.3C539.452 800.1 538.952 801.8 538.352 803.5C537.952 804.7 537.752 805.9 537.652 807.2C535.252 817.2 532.652 827.1 530.652 837.2C530.452 838.3 530.052 839.2 529.852 840.3C526.852 852.6 524.452 865 521.452 877.2C520.752 879 520.752 880.9 520.352 882.7C514.352 909.5 508.752 936.3 502.752 963.1C502.452 964.4 501.852 965.6 501.852 967C499.752 978.2 497.052 989.3 494.752 1000.5C494.552 1001.5 494.252 1002.5 493.652 1003.3C493.752 1003.9 493.452 1004.2 493.152 1004.6Z" fill="black"/>
<path d="M734.753 981.7C734.853 965 734.853 948.4 734.953 931.7C734.353 930.9 734.553 930 734.753 929.1C735.153 915.1 734.953 901.2 734.853 887.2C734.853 881.4 735.053 880.7 741.053 880C758.053 877.8 775.053 876.1 792.053 874.2C798.453 873.5 804.953 872.6 811.353 872.1C814.853 871.8 816.453 870.1 816.353 866.6C816.053 855.5 817.053 844.3 815.653 833.2C814.653 825.1 815.753 823.2 823.353 820.5C831.653 817.5 839.853 814.3 848.353 811.8C852.153 811.6 852.953 814.3 853.553 817.2C856.453 830.1 859.453 842.9 862.053 855.9C862.253 857.2 862.453 858.5 862.853 859.8C865.553 871.9 868.453 884.1 870.853 896.3C871.753 901 873.953 903.9 878.553 905.6C891.053 910.5 903.353 915.9 915.753 921.1C918.153 922.1 920.953 922.7 921.953 925.7C922.653 939.7 923.053 953.8 921.753 967.8C921.053 969.8 918.953 968.6 917.753 969.5C908.453 971.5 899.153 973.5 889.853 975.5C874.953 978.8 860.053 982.2 844.153 985.7C850.453 990.3 856.153 994.4 861.853 998.5C867.153 1002.3 872.853 1005.7 877.753 1010C886.953 1017.9 890.153 1028.6 890.853 1040.3C889.553 1041.4 887.953 1040.9 886.553 1040.9C837.053 1040.9 787.653 1040.9 738.153 1040.9C736.753 1040.9 735.153 1041.7 734.053 1040.1C734.053 1038 734.053 1035.9 734.053 1033.8C734.953 1026.5 734.253 1019.2 734.453 1011.9C734.653 1001.9 734.053 991.8 734.753 981.7Z" fill="#8F3600"/>
<path d="M920.753 968.7C920.753 954 920.753 939.2 920.753 924.5C919.853 922.7 919.353 920.8 919.353 918.8C919.453 899.3 919.153 879.8 919.453 860.3C919.453 859 919.453 857.7 919.453 856.4C919.153 830.7 919.353 805.1 919.353 779.4C919.353 741.7 919.353 704.1 919.353 666.4C919.353 657.4 917.153 649.3 910.953 642.5C903.953 634.7 895.253 631.2 884.753 631.2C840.453 631.5 796.053 631 751.753 631.2C749.253 631.2 746.753 631.3 744.253 631.1C743.253 631.1 742.353 631.1 741.353 631.1C714.253 631.4 687.053 631.3 659.953 631.2C627.553 631.4 595.053 631.3 562.653 631.2C556.553 631.2 555.453 630 556.253 625.7C558.853 623.6 561.953 624.2 564.853 624.2C615.353 624.2 665.753 624.1 716.253 624.2C721.453 624.2 725.753 623 728.953 618.8C729.753 617.7 730.953 616.7 730.453 615.3C729.853 613.8 728.153 614.1 726.953 614.2C719.653 614.6 712.353 612.7 705.053 613.1C704.253 613.1 703.353 613.1 702.553 612.9C700.653 612.6 698.653 612 698.653 609.8C698.553 607.2 700.753 606.5 702.753 606.4C709.853 605.9 717.053 606.3 724.253 606.2C725.953 606.2 727.553 606.3 729.253 606.1C730.853 605.9 732.853 606.2 732.953 603.8C733.053 601.4 731.053 601.4 729.453 601.3C727.453 601.1 725.453 601.2 723.453 601.2C717.953 601.2 712.453 601.2 706.953 601.2C705.253 601.2 703.553 601.2 702.053 600.6C700.253 599.9 698.753 598.8 698.953 596.6C699.153 594.7 700.653 593.9 702.353 593.5C703.853 593.2 705.353 593.2 706.853 593.2C713.653 593.2 720.553 593.1 727.353 593.3C728.453 593.3 729.953 594 730.453 592.6C730.953 591.4 729.853 590.5 729.053 589.6C726.553 586.8 723.353 584.9 719.653 584.2C706.553 581.9 693.553 579 680.053 580.9C676.453 581.4 672.753 581.5 669.153 580.7C667.353 580.3 665.553 579.4 665.553 577.2C665.553 574.7 667.353 573.8 669.453 573.5C673.053 573 676.753 573.1 680.453 573.3C685.353 573.6 689.653 571.9 693.853 569.8C695.953 568.7 698.053 567.2 697.053 564.4C696.153 561.8 693.853 561.4 691.353 561.5C688.153 561.6 684.953 564 681.753 561.7C680.753 560.2 680.653 558.6 680.653 556.9C680.553 543.1 680.553 529.3 680.653 515.6C680.653 514.1 680.853 512.6 681.353 511.2C694.053 494.1 707.253 477.5 720.253 460.6C723.853 455.9 727.253 450.9 731.253 446.4C733.553 443.8 733.053 441.9 730.253 439.9C724.953 436.1 720.053 431.9 714.953 427.8C714.153 427 713.353 426.2 712.453 425.5C710.953 424.4 709.453 423.5 707.853 422.5C702.953 418.7 698.153 414.9 693.353 411.1C691.353 409.5 689.453 409 686.953 409.7C682.653 410.8 678.353 410.2 674.253 408.4C671.053 406.9 669.153 404.8 669.853 401C670.453 400.4 671.153 400.3 671.853 400.4C672.653 400.6 673.353 401.1 674.053 401.4C680.253 404.6 681.353 404.4 685.653 399C688.353 395.7 690.853 392.2 693.553 388.8C697.253 384.2 697.053 382.4 693.053 378.2C690.953 376 688.553 374.3 685.553 373.7C672.953 371.9 664.053 382.7 668.353 394.6C668.953 396.4 669.853 401 669.853 401C669.853 401 665.053 400.4 663.453 398.8C661.953 396.7 662.353 393.4 660.453 392.1C658.253 390.6 656.053 393.8 653.553 393.9C652.253 394 650.953 394.1 649.553 394C647.053 393 643.853 393.2 642.753 390C644.753 388 647.453 388.9 649.853 388.5C655.953 387.4 660.353 384 662.053 378.1C663.753 372.4 663.053 366.7 658.153 362.6C653.553 358.8 648.653 356.3 642.753 358.7C634.453 362 630.453 373.1 634.653 381.1C635.653 383 637.353 384.5 637.453 386.8C634.453 388.6 633.353 388.2 629.253 384.1C625.053 375.3 625.353 366.9 631.853 359.5C637.753 352.8 645.353 350.6 654.053 353.1C661.353 355.2 665.853 360.5 668.353 367.4C669.353 370.2 670.053 371.2 673.053 369.5C675.753 368 678.653 366.5 681.953 367.7L688.753 369.5C696.453 372.6 701.353 378.1 702.253 386.5C702.553 389.5 703.753 391.2 705.953 393C726.753 409.2 747.453 425.7 768.453 441.7C777.653 448.7 782.353 457.5 781.953 469C781.253 471.7 781.253 471.7 782.953 472.1C785.053 469.5 787.153 466.9 789.153 464.3C790.253 462.9 791.653 462.4 793.053 463.4C794.453 464.5 794.453 466.1 793.153 467.3C790.953 469.5 792.053 470.9 794.153 472.3C796.553 474 798.953 475.9 801.253 477.8C803.053 479.3 803.553 481.1 802.153 483.1C800.653 485.3 798.553 485.3 796.453 483.9C794.853 482.8 793.253 481.5 791.753 480.2C786.353 476 786.353 476 782.353 481.7C785.453 484.1 788.653 486.6 791.753 489C793.653 490.5 794.753 492.3 793.153 494.6C791.453 497 789.253 496.7 787.053 495.1C784.953 493.5 782.853 491.9 780.753 490.3C779.153 489.1 777.953 487 775.653 490C773.753 492.5 773.853 493.8 776.453 495.4C778.753 496.8 780.653 498.6 782.753 500.2C784.653 501.7 785.753 503.5 784.053 505.7C782.253 508.1 780.153 507.7 777.953 506.2C776.753 505.3 775.553 504.4 774.353 503.5C771.353 501.3 768.553 497.3 765.253 503.3C764.553 504.6 762.953 504.4 761.753 503.3C760.653 502.2 760.753 501 761.653 499.8C763.453 497.5 765.253 495.1 767.053 492.6C765.353 491.3 764.153 492.4 762.853 492.8C754.553 495.4 746.353 495.1 738.853 490.4C736.553 489 735.353 489 733.653 491.3C726.653 500.6 719.653 509.9 712.353 519C710.353 521.4 710.853 524 710.853 526.6C710.853 529.2 713.053 528.1 714.253 528.1C726.053 528.2 737.953 528.2 749.753 528.2C768.253 528.2 786.753 528.2 805.253 528.2C808.053 528.2 810.653 528.4 811.753 531.5C812.853 534.8 810.453 537.4 806.053 537.4C793.353 537.5 780.753 537.4 768.053 537.4C764.353 537.4 760.753 537.5 757.053 537.4C754.453 537.3 753.253 537.9 753.153 540.9C752.853 551.2 752.753 551.3 762.953 551.3C767.053 551.3 770.253 552.1 770.753 556.9C770.353 557.9 770.753 559.1 769.953 559.9C768.753 561.2 767.253 561.9 765.553 562.3C765.053 562.4 764.553 562.5 764.053 562.5C754.453 563.2 754.453 563.2 754.453 573C754.453 583 754.553 593 754.453 603C754.453 607.1 755.953 608.7 760.053 608.6C766.353 608.4 772.753 608.4 779.053 608.6C787.653 608.8 791.053 612.2 791.253 620.8C791.253 623.4 792.153 624.5 794.653 624.5C796.353 624.5 797.953 624.5 799.653 624.5C827.753 624.5 855.953 624.5 884.053 624.5C908.953 624.6 926.353 641.6 926.453 666.4C926.653 729.3 926.553 792.3 926.453 855.2C926.453 855.7 926.353 856.2 926.353 856.7C926.353 858 926.353 859.2 926.353 860.5C926.553 882.6 926.553 904.8 926.353 926.9C926.653 938.5 926.453 950.2 926.453 961.8C926.453 964 926.453 966.2 924.853 967.9C924.753 991.5 924.653 1015.1 924.653 1038.8C924.653 1041.4 924.853 1043.9 921.153 1043.8C919.853 1043 920.353 1041.7 920.353 1040.7C920.353 1017.3 920.353 993.9 920.353 970.5C920.453 969.6 920.553 969.2 920.753 968.7Z" fill="black"/>
<path d="M489.652 1001.5C489.452 1002.2 489.152 1003 488.952 1003.7C487.152 1004.5 485.352 1004.1 483.552 1004.1C324.552 1004.1 165.552 1004.1 6.55244 1004.1C4.75244 1004.1 2.85244 1004.4 1.05244 1003.8C-0.547559 1002.3 0.152447 1000.3 0.152447 998.6C0.152447 700.6 0.152441 402.6 0.0524411 104.6C0.0524411 89.5 3.45245 75.6 12.1524 63.3C24.0524 46.4 40.5524 36.9 61.0524 34.5C62.8524 33.9 64.6524 34.2 66.5524 34.2C227.552 34.2 388.452 34.2 549.452 34.2C551.252 34.2 553.152 34 554.952 34.5C586.252 39.4 607.852 58.7 614.552 87.8C615.852 93.5 616.152 99.3 616.152 105.2C616.152 176.3 616.152 247.5 616.152 318.6C615.452 318.6 614.752 318.7 614.052 318.7C611.752 316 612.552 312.7 612.552 309.6C612.552 241.6 612.552 173.6 612.552 105.6C612.552 88.9 607.952 73.7 596.952 60.8C584.952 46.8 569.652 39.4 551.152 38.3C549.852 38.2 548.452 38.3 547.152 38.3C387.652 38.3 228.252 38.3 68.7524 38.3C37.5524 38.3 10.9524 60.5 5.45244 91C4.85244 94.1 4.75242 97.3 4.75242 100.5C4.75242 397.6 4.75242 694.7 4.75242 991.8C4.75242 992.5 4.75242 993.1 4.75242 993.8C4.85242 999.4 5.25245 999.8 10.6524 1000C12.4524 1000.1 14.3524 1000 16.1524 1000C170.652 1000 325.052 1000 479.552 1000C482.852 1000.1 486.552 999.2 489.652 1001.5Z" fill="#5D85B1"/>
<path d="M766.853 560.5C767.953 559.9 768.953 559.2 770.053 558.6C771.653 557.9 773.353 558.2 774.953 558.2C879.953 558.2 984.853 558.2 1089.85 558.2C1091.55 558.2 1093.15 558 1094.85 558.5C1108.05 563.4 1111.85 568.9 1111.85 583C1111.85 647.6 1111.85 712.1 1111.85 776.7C1111.85 778.7 1112.05 780.7 1112.15 782.7C1113.85 783.7 1115.75 783.2 1117.45 783.2C1132.35 783.2 1147.25 783.2 1162.15 783.3C1163.75 783.3 1165.45 782.6 1166.85 784C1166.85 816.3 1166.75 848.6 1166.95 880.8C1166.95 885.4 1165.75 886.8 1161.05 886.7C1146.55 886.4 1132.05 886.8 1117.65 886.5C1112.65 886.4 1111.65 888 1111.75 892.6C1112.05 908.6 1111.45 924.6 1111.95 940.5C1112.35 952.9 1101.15 963.4 1089.65 962.7C1077.55 962 1077.65 962.6 1077.45 974.7C1077.25 984.7 1078.25 994.6 1076.85 1004.6C1076.55 1004.8 1076.25 1005.1 1075.95 1005.1C1057.65 1005.1 1039.25 1005.5 1020.95 1004.9C1019.55 1003.3 1020.15 1001.4 1020.15 999.6C1020.05 988.8 1019.95 978 1020.25 967.2C1020.35 963.4 1019.05 962.5 1015.45 962.5C993.353 962.6 971.253 962.5 949.153 962.4C951.953 958.6 956.253 959.5 960.053 958.9C1002.85 959.2 1045.65 959.1 1088.45 958.9C1100.85 958.9 1107.75 952.7 1108.05 940.4C1108.75 915.6 1108.25 890.8 1108.35 866C1108.35 862.6 1106.65 861.2 1103.45 861.3C1101.65 861.3 1099.75 861.3 1097.95 861.3C1043.35 861.3 988.653 861.3 934.053 861.3C930.953 861.3 927.653 862 924.953 859.6C924.953 858.7 924.953 857.7 924.953 856.8C927.653 854.5 930.953 855.1 934.053 855.1C988.853 855.1 1043.65 855.1 1098.45 855.1C1108.35 855.1 1108.35 855.1 1108.35 845.4C1108.35 759.3 1108.35 673.2 1108.35 587.1C1108.35 584.1 1108.45 581.1 1107.95 578.1C1106.35 568.5 1099.85 562.8 1090.15 562.5C1087.85 562.4 1085.45 562.5 1083.15 562.5C980.853 562.5 878.653 562.5 776.353 562.5C773.053 562.3 769.553 563.2 766.853 560.5Z" fill="#5A83AF"/>
<path d="M1049.95 179.5C1049.95 237.3 1049.95 295.1 1050.05 353C1050.05 357.3 1049.45 358.9 1044.45 358.9C961.152 358.7 877.852 358.7 794.452 358.9C790.252 358.9 788.752 358.1 788.852 353.5C788.952 237.5 788.952 121.5 788.852 5.6C788.852 1.1 790.052 0 794.452 0C877.752 0.1 961.052 0.1 1044.45 0C1048.85 0 1050.05 1.1 1050.05 5.6C1049.85 63.5 1049.95 121.5 1049.95 179.5Z" fill="#5983AF"/>
<path d="M682.052 367.7C677.152 368.5 672.452 370 668.252 373.3C667.452 364.3 663.552 357.8 655.252 354.5C647.952 351.6 641.252 352.8 635.152 357.5C627.552 363.4 625.852 372.2 630.052 383.7C629.452 384 628.652 384.2 628.152 383.8C623.752 379.8 619.652 375.7 618.652 369.5C620.352 364.1 621.952 358.7 623.652 353.4C627.152 341.9 635.252 335.6 646.552 332.9C650.052 332 653.652 331.6 657.852 330.8C655.952 335.4 653.052 338.7 650.752 342.3C649.752 343.9 648.952 345 651.552 345.9C661.352 349.5 671.152 353.2 680.852 356.9C682.052 357.4 683.052 357.3 683.752 356.2C684.252 360.1 683.152 363.9 682.052 367.7Z" fill="#FD9993"/>
<path d="M958.853 959.8C955.553 960.7 952.352 961.5 949.052 962.4C940.952 964.1 932.953 965.9 924.853 967.6C924.853 953.9 924.853 940.2 924.853 926.6C932.453 926.7 938.753 930.4 944.653 934.7C951.453 939.6 955.753 946.5 958.753 954.3C959.553 956 960.553 958 958.853 959.8Z" fill="#8F3600"/>
<path d="M493.252 1003.7C493.552 1003 493.752 1002.3 494.052 1001.5C496.652 999.4 499.752 1000 502.752 1000C536.252 1000 569.752 1000 603.252 1000C604.952 1000 606.552 999.9 608.252 1000C611.152 1000 612.452 998.5 612.452 995.7C612.452 994.4 612.452 993 612.452 991.7C612.452 930.9 612.452 870.1 612.452 809.3C612.452 800.4 612.452 800.4 603.752 800.4C584.752 800.4 565.752 800.4 546.752 800.4C544.152 800.4 541.352 800.8 539.252 798.6C540.052 797 541.652 797.7 542.752 797.7C575.952 797.7 609.152 797.7 642.352 797.7C643.552 797.7 645.052 797 645.952 798.5C636.352 798.6 626.652 798.7 617.052 798.8C616.052 800.7 616.552 802.7 616.552 804.7C616.552 868.9 616.552 933 616.552 997.2C616.552 999 616.852 1000.9 616.252 1002.6C616.052 1002.9 616.052 1003.2 616.052 1003.5C615.152 1004.5 613.852 1004.2 612.752 1004.2C573.752 1004.2 534.752 1004.2 495.852 1004.2C494.852 1004.1 494.052 1004.1 493.252 1003.7Z" fill="#5881AE"/>
<path d="M554.852 34.5C410.052 34.5 265.252 34.5 120.452 34.5C100.652 34.5 80.8521 34.5 60.9521 34.6C62.5521 33.2 64.4522 33.8 66.2522 33.8C227.352 33.8 388.452 33.8 549.552 33.8C551.352 33.8 553.252 33.2 554.852 34.5Z" fill="#FCFCFC"/>
<path d="M1.05273 1003.8C3.25273 1003.8 5.35273 1003.7 7.55273 1003.7C168.053 1003.7 328.453 1003.7 488.953 1003.7C489.153 1004 489.053 1004.3 488.853 1004.6C328.353 1004.6 167.853 1004.6 7.35272 1004.6C5.25272 1004.6 2.95273 1005.3 1.05273 1003.8Z" fill="#FCFCFC"/>
<path d="M1094.85 558.5C988.053 558.5 881.353 558.5 774.553 558.5C773.053 558.5 771.553 558.6 770.053 558.6C770.353 557.9 770.553 557.1 770.853 556.4C772.653 558.7 775.153 557.6 777.353 557.7C881.053 557.8 984.853 557.7 1088.55 557.8C1090.65 557.7 1092.95 557 1094.85 558.5Z" fill="#FCFCFC"/>
<path d="M650.553 799.6C651.153 797.7 651.153 797.6 652.753 797.6C663.853 797.6 674.853 797.6 685.953 797.7C691.853 797.7 697.853 797.8 703.753 797.9C702.453 801 699.653 800.1 697.353 800.2C690.553 800.5 690.453 800.5 690.453 807.4C690.453 830.5 690.453 853.6 690.453 876.8C690.453 882.6 690.853 883.1 696.653 883.1C706.753 883.2 716.953 883.1 727.053 883.1C729.353 883.1 731.753 882.9 733.953 883.8C734.853 884.3 735.353 885 735.153 886.1C734.953 886.8 734.453 887 733.753 886.8C718.153 886.7 702.653 886.7 687.053 886.6C685.553 885 686.353 883.1 686.353 881.4C686.253 855.7 686.353 830 686.253 804.2C686.253 802.4 686.753 800.5 685.753 798.8C674.653 798.7 663.553 798.6 652.553 798.5C651.853 798.5 651.053 798.9 650.553 799.6Z" fill="#5983AF"/>
<path d="M616.152 1002.6C616.152 973 616.052 943.3 616.052 913.7C616.052 877.1 616.052 840.4 616.052 803.8C616.052 802.1 615.052 800.1 616.952 798.7C616.952 864.7 616.952 930.7 616.952 996.8C616.952 998.7 617.552 1000.8 616.152 1002.6Z" fill="#FCFCFC"/>
<path d="M734.053 1040.3C735.353 1040.4 736.653 1040.7 737.953 1040.7C787.953 1040.7 837.853 1040.7 887.853 1040.7C888.853 1040.7 889.853 1040.6 890.853 1040.5C889.553 1042.4 887.453 1041.6 885.753 1041.6C836.753 1041.6 787.853 1041.6 738.853 1041.6C737.253 1041.6 735.153 1042.5 734.053 1040.3Z" fill="#FCFCFC"/>
<path d="M493.253 1003.7C531.953 1003.7 570.753 1003.7 609.453 1003.6C611.653 1003.6 613.753 1003.4 615.953 1003.4C614.453 1005.4 612.253 1004.5 610.453 1004.5C571.353 1004.6 532.353 1004.5 493.253 1004.5C493.053 1004.3 493.053 1004 493.253 1003.7Z" fill="#FCFCFC"/>
<path d="M685.952 798.9C687.652 800.4 686.752 802.3 686.752 804C686.852 829.4 686.752 854.8 686.852 880.2C686.852 882.3 687.152 884.5 687.252 886.6C685.052 885.2 686.052 883 686.052 881.1C685.952 853.7 685.952 826.3 685.952 798.9Z" fill="#FCFCFC"/>
<path d="M1081.05 444.9C1082.75 445 1083.15 446.3 1083.65 447.3C1086.75 453.5 1089.85 459.8 1092.85 466C1093.35 466.9 1094.35 468.1 1092.85 469C1091.05 470 1090.95 468.1 1090.55 467.4C1087.25 460.8 1084.05 454.1 1080.75 447.4C1080.15 446.2 1079.55 445.3 1081.05 444.9Z" fill="#688EB6"/>
<path d="M920.753 968.7C920.753 991.7 920.853 1014.6 920.953 1037.6C920.953 1039.6 921.253 1041.6 921.353 1043.5C919.053 1042.2 920.052 1039.9 920.052 1038.1C919.952 1017 920.053 995.9 919.953 974.8C919.953 972.9 921.153 970.2 917.853 969.5C918.553 968.7 919.653 968.8 920.753 968.7Z" fill="#FCFCFC"/>
<path d="M894.453 496.1C893.153 495.6 892.953 495.1 893.553 493.5C896.153 486.7 898.553 479.7 901.053 472.8C901.353 471.9 901.353 470.7 902.753 470.9C904.153 471.1 903.953 472.2 903.653 473.2C901.153 480.3 898.653 487.4 896.153 494.5C895.753 495.3 895.253 495.8 894.453 496.1Z" fill="#648BB4"/>
<path d="M1020.95 1004.8C1039.55 1004.7 1058.25 1004.6 1076.85 1004.5C1076.05 1005.7 1074.85 1005.6 1073.75 1005.6C1057.05 1005.6 1040.45 1005.6 1023.75 1005.6C1022.75 1005.6 1021.75 1005.6 1020.95 1004.8Z" fill="#FCFCFC"/>
<path d="M1166.85 783.9C1150.35 783 1133.75 783.8 1117.25 783.5C1115.55 783.5 1113.65 784.4 1112.15 782.7C1128.75 782.7 1145.35 782.7 1161.85 782.7C1163.55 782.7 1165.55 781.9 1166.85 783.9Z" fill="#FCFCFC"/>
<path d="M734.753 981.7C734.753 999.1 735.053 1016.6 734.053 1034C734.053 1017.7 733.953 1001.3 733.953 985C733.953 983.8 733.853 982.6 734.753 981.7Z" fill="#FCFCFC"/>
<path d="M733.952 886.8C734.152 886.7 734.452 886.6 734.752 886.7C734.952 887 735.352 887.2 735.352 887.5C735.352 901.6 735.852 915.7 735.052 929.8C735.052 930.4 734.952 931.1 734.952 931.7C733.352 930.2 734.052 928.3 734.052 926.5C733.952 913.2 733.952 900 733.952 886.8Z" fill="#FCFCFC"/>
<path d="M782.853 471.7C782.653 472.9 781.853 473.6 780.053 474C780.753 472 781.253 470.3 781.853 468.6C782.353 469.6 781.653 470.9 782.853 471.7Z" fill="#D2D2D2"/>
<path d="M489.652 1001.5C487.852 1001.5 485.952 1001.6 484.152 1001.6C325.652 1001.6 167.252 1001.6 8.75232 1001.7C3.95232 1001.7 2.65234 1000.6 2.65234 995.7C2.75234 698.1 2.75232 400.5 2.75232 102.9C2.75232 65.4999 31.5523 36.7 68.8523 36.7C228.452 36.7 388.152 36.7 547.752 36.7C584.552 36.7 613.652 65.8999 613.752 102.8C613.752 172.8 613.752 242.8 613.752 312.7C613.752 314.7 613.852 316.7 613.852 318.7C604.952 320.8 597.152 325.1 589.952 330.7C587.952 328.6 588.552 326 588.552 323.6C588.452 300.6 588.552 277.6 588.552 254.6C588.552 248.2 588.552 248.2 582.252 248.2C399.452 248.2 216.652 248.2 33.9523 248.2C27.5523 248.2 27.5523 248.2 27.5523 254.5C27.5523 303 27.5523 351.5 27.5523 400C27.5523 406.2 27.6523 406.3 34.1523 406.3C62.4523 406.3 90.7523 406.1 119.052 406.2C156.852 406.3 194.652 406.3 232.552 406.3C310.852 406.3 389.152 406.3 467.452 406.4C470.352 406.4 473.552 405.5 476.052 407.9C471.352 415.7 466.952 423.7 465.052 432.8C462.652 434.9 459.652 434.2 456.952 434.2C384.652 434.2 312.352 434.2 240.052 434.2C172.952 434.2 105.752 434.2 38.6523 434.2C36.8523 434.2 34.9523 434.3 33.1523 434.2C29.1523 433.9 27.6523 435.3 27.6523 439.6C27.7523 488.7 27.7523 537.9 27.7523 587C27.7523 592.1 27.9523 592.3 33.7523 592.3C63.5523 592.3 93.3523 592.3 123.152 592.2C177.152 592 231.052 592 285.052 592.2C325.152 592.4 365.352 592.2 405.452 592.4C408.052 592.4 410.852 591.8 413.052 593.9C414.452 601.2 415.952 608.6 417.352 615.9C418.152 618.5 416.852 619.7 414.452 620C412.152 620.3 409.752 620.2 407.452 620.2C283.852 620.2 160.252 620.2 36.6523 620.2C25.9523 620.2 27.6523 620.4 27.6523 629C27.6523 676.5 27.6523 723.9 27.6523 771.4C27.6523 778.3 27.6523 778.3 34.5523 778.3C121.452 778.2 208.452 778.3 295.352 778.3C351.652 778.3 407.952 778.3 464.252 778.3C467.252 778.3 470.252 778.6 473.052 779.7C491.552 792.6 511.952 799.1 534.752 798C534.752 800.6 534.252 802.8 533.052 804.8C530.652 806.8 527.652 806.2 524.852 806.2C480.352 806.2 435.852 806.2 391.452 806.2C273.152 806.2 154.852 806.2 36.5523 806.2C25.7523 806.2 27.5523 806.4 27.5523 815C27.5523 862.5 27.5523 910 27.5523 957.4C27.5523 964.3 27.5523 964.3 34.4523 964.3C109.052 964.3 183.752 964.3 258.352 964.3C322.352 964.3 386.252 964.3 450.252 964.3C463.952 964.3 477.552 964.2 491.252 964.4C493.452 964.4 496.052 963.7 497.252 966.7C494.652 978.2 492.152 989.8 489.652 1001.5Z" fill="#FEFEFE"/>
<path d="M587.952 332.8C582.352 338.8 578.752 346 574.552 352.9C568.952 361.9 562.352 370.1 553.052 375.8C551.052 373.7 551.652 371.1 551.652 368.7C551.652 342.9 551.652 317.1 551.652 291.2C551.652 284.3 551.652 284.3 544.752 284.3C509.952 284.3 475.152 284.3 440.252 284.3C434.452 284.3 434.452 284.3 434.452 290.2C434.452 325.4 434.452 360.5 434.452 395.7C434.452 397.2 434.452 398.7 434.452 400.2C434.352 406.2 433.752 406.8 427.852 406.8C390.052 406.8 352.252 406.8 314.352 406.8C308.652 406.8 308.652 406.7 310.252 401C310.752 399.4 310.552 397.7 310.552 396C310.652 378.3 310.452 360.7 310.552 343C310.652 335.6 313.452 332.8 321.352 332.2C319.052 332.2 317.352 332.2 315.752 331.6C313.752 330.8 312.352 329.4 311.452 327.6C310.452 325.8 310.552 323.7 310.452 321.7C310.352 316.2 310.352 316.2 304.752 316.2C304.252 316.2 303.752 316.2 303.252 316.2C296.552 316.4 295.152 314.6 295.252 323.6C295.252 324.9 295.152 326.3 294.452 327.5C293.152 329.7 291.452 331.7 288.652 331.5C285.952 331.3 284.852 329 284.052 326.8C283.352 324.9 283.452 322.8 283.552 320.9C283.752 317.4 282.052 316 278.752 316.3C278.052 316.3 277.452 316.3 276.752 316.3C269.352 316.5 268.352 314.8 268.352 323.8C268.352 328.2 265.352 331.5 262.152 331.6C258.952 331.7 256.052 328.3 255.652 324C254.952 316.3 254.952 316.3 247.052 316.3C240.752 316.3 240.752 316.3 240.552 322.7C240.352 330 238.052 332.2 230.852 332.3C229.052 332.3 227.352 332.3 226.152 332.3C227.352 332.5 229.152 332.3 230.952 332.3C237.352 332.4 240.052 334.8 240.452 341.3C240.752 347.1 240.552 353 240.552 358.8C240.552 370.3 240.552 381.8 240.552 393.3C240.552 396.5 240.452 399.6 241.652 402.6C242.752 405.4 241.852 406.7 238.852 406.7C237.852 406.7 236.852 406.7 235.852 406.7C200.052 406.7 164.252 406.7 128.352 406.7C126.252 406.7 123.252 407.7 122.452 405.5C121.652 403.1 124.752 402.3 126.352 401.2C143.752 389 143.952 363.3 126.652 351C122.952 348.4 121.452 345.3 121.452 340.9C121.552 329.2 121.452 317.6 121.552 305.9C121.552 302.5 120.552 301 117.052 301.1C112.052 301.3 107.052 301.3 102.052 301.1C98.5523 301 97.3522 302.4 97.3522 305.8C97.4522 317.3 97.2523 328.8 97.4522 340.3C97.5522 344.8 96.0523 347.5 92.0523 350C74.0523 360.8 72.9523 387.1 89.5523 400.2C91.5523 401.7 95.5523 402.8 94.5523 405.5C93.6523 408 89.7522 406.7 87.1522 406.7C69.4522 406.8 51.8523 406.8 34.1523 406.7C28.3523 406.7 27.5523 405.9 27.5523 400C27.4523 351.8 27.5523 303.7 27.5523 255.5C27.5523 249.4 28.7523 248.3 34.9523 248.2C36.4523 248.2 37.9523 248.2 39.4523 248.2C219.052 248.2 398.652 248.2 578.352 248.2C589.052 248.2 589.052 248.2 589.052 258.9C589.052 281.2 589.052 303.6 589.052 325.9C588.952 328.3 589.352 330.7 587.952 332.8Z" fill="#FEFEFE"/>
<path d="M472.952 477.5C462.952 479 452.652 478.6 442.852 481.7C415.352 490.5 398.952 518.5 404.552 546.9C407.452 561.7 409.952 576.7 412.652 591.5C411.152 593 409.252 592.6 407.452 592.6C371.952 592.6 336.452 592.6 300.952 592.6C295.452 592.6 294.552 591.8 294.452 586.3C294.352 577.8 294.352 569.3 294.452 560.8C294.552 555.6 295.752 554.5 301.052 554.2C301.752 554.2 300.852 554.2 301.552 554.2C313.452 553.9 313.452 553.9 313.452 541.6C313.452 535.6 313.352 529.6 313.452 523.6C313.552 520.1 312.152 519 308.652 519C299.352 519.2 289.952 519.1 280.652 519C273.252 519 272.452 518.1 272.352 510.6C272.352 504.1 272.352 497.6 272.352 491.1C272.352 484 272.252 484 264.952 484C214.452 484 163.952 484 113.452 484C107.952 484 102.452 484 96.9525 484C91.4525 484.1 91.2525 484.2 91.2525 489.6C91.2525 497.4 91.2525 505.3 91.2525 513.1C91.2525 519 91.3525 519.1 97.5525 519.1C106.752 519.1 115.852 519.1 125.052 519.1C130.852 519.1 132.152 520.4 132.252 526.1C132.352 533.8 132.352 541.4 132.252 549.1C132.152 554.7 131.052 555.8 125.452 556C122.752 556.1 120.152 556.1 117.452 556C113.652 555.8 112.052 557.2 112.152 561.2C112.352 569.4 112.252 577.5 112.252 585.7C112.152 591.8 111.452 592.6 105.252 592.6C81.7525 592.6 58.2524 592.6 34.7524 592.6C27.9524 592.6 27.2524 592 27.2524 585.2C27.2524 537.2 27.2524 489.2 27.2524 441.2C27.2524 434.1 27.8525 433.6 34.9525 433.6C166.052 433.6 297.252 433.6 428.352 433.6C438.652 433.6 449.052 433.7 459.352 433.5C463.052 433.4 464.452 434.7 464.152 438.4C463.952 441 463.752 443.7 464.452 446.3C465.152 454.1 469.252 460.4 473.652 466.5C475.152 470.5 477.152 474.3 472.952 477.5Z" fill="#FEFEFE"/>
<path d="M556.852 626C555.652 627.9 556.052 629.2 558.352 629.5C559.652 629.7 561.052 629.6 562.352 629.6C593.152 629.6 623.952 629.6 654.652 629.6C656.452 629.6 658.252 629.7 660.152 629.8C660.952 630.4 661.852 631 662.052 632C663.152 635.9 666.152 636 669.552 636.2C684.952 637.2 700.452 637.6 715.752 639.1C716.752 639.2 717.752 639.4 718.652 639.7C721.852 641.6 719.352 643.5 718.452 645.1C712.852 654.7 706.852 664.2 700.952 673.6C686.152 697.5 671.352 721.5 656.652 745.4C655.052 748.1 654.052 751.8 649.952 752.1C645.552 752.3 641.152 751.6 636.852 752.5C619.052 752.2 601.252 754.8 583.452 752.7C545.852 748.4 514.052 715.4 510.752 677.6C509.352 661 507.352 644.5 505.652 628C505.452 625.8 504.652 624.5 502.552 623.4C485.052 613.6 478.452 598.9 482.652 579C490.652 541.1 498.652 503.2 506.752 465.4C512.452 438.7 536.652 421.6 563.552 425.3C567.352 425.8 571.252 425.3 574.952 426.7C577.752 431.5 575.352 436.5 574.952 441.3C573.552 456.4 572.052 471.4 570.552 486.5C570.052 491.4 568.552 494.2 563.752 496.1C555.852 499.2 552.452 507.7 555.252 515C558.252 522.7 566.452 526.8 573.952 524.1C579.652 522 583.252 517.8 584.352 511.7C584.652 509.9 584.452 508 585.252 506.3C585.552 505.7 586.052 505.5 586.752 505.6C588.152 506.6 588.352 508.1 588.352 509.6C589.552 531.4 591.552 553.1 592.852 574.9C592.952 575.7 592.752 576.5 592.452 577.3C590.552 579.5 587.952 579 585.452 579C573.652 579.1 561.852 579 550.052 579C543.852 579 543.952 579 545.752 585.1C549.352 596.9 552.952 608.6 556.252 620.5C556.852 622.4 557.252 624.2 556.852 626Z" fill="#6DB5DE"/>
<path d="M532.753 806.8C530.453 816.8 528.153 826.8 525.853 836.8C524.153 839.3 521.553 839 519.053 839C507.853 839 496.753 839 485.553 839C479.653 839 479.353 839.3 479.353 845.2C479.353 881.4 479.353 917.5 479.353 953.7C479.353 954.4 479.353 955 479.353 955.7C479.353 964.2 475.753 966.8 467.453 964.4C464.753 963.6 464.553 961.4 464.453 959.3C464.353 953.6 464.253 948 464.453 942.3C464.653 938.4 463.353 936.9 459.353 937C452.853 937.2 446.353 937.2 439.853 937C434.853 936.9 433.653 935.7 433.553 930.7C433.453 924.7 433.353 918.7 433.553 912.7C433.653 907.7 435.153 906.4 440.353 906.1C441.553 906 442.653 906 443.853 906C446.253 906 447.553 905.1 447.453 902.5C447.353 895 447.353 887.5 447.453 880C447.453 876.9 445.953 875.8 443.153 876C441.953 876.1 440.853 876 439.653 876C380.353 876 321.053 876 261.653 876C254.353 876 254.353 876 254.353 883.5C254.353 889.3 254.353 895.2 254.353 901C254.353 904.9 252.653 907.1 248.653 906.9C244.453 906.7 243.153 908.7 243.253 912.7C243.453 919.2 243.453 925.7 243.253 932.2C243.153 935.8 244.253 937.2 248.053 937.2C258.253 937.2 258.253 937.4 258.253 947.6C258.253 951.8 258.353 955.9 258.153 960.1C258.053 963.1 256.653 964.7 253.453 964.6C244.953 964.6 236.453 964.6 227.953 964.6C224.453 964.6 222.753 962.9 222.453 959.5C222.353 958.2 222.353 956.8 222.353 955.5C222.353 923 222.353 890.5 222.353 858C222.353 849.9 222.753 849.3 230.653 849.2C234.153 849.1 235.353 847.8 235.353 844.4C235.253 832.5 236.253 834.1 225.353 834.1C171.053 834.1 116.753 834.1 62.3526 834.1C59.8526 834.1 56.2527 832.7 55.0527 835.6C53.4527 839.2 53.8526 843.5 54.8526 847.4C55.4526 849.6 57.8527 849 59.6527 849.1C66.3527 849.4 67.2527 850.2 67.2527 856.7C67.3526 890 67.3526 923.4 67.2527 956.7C67.2527 963.6 66.2527 964.6 59.5527 964.6C50.8527 964.6 42.2527 964.7 33.5527 964.6C28.3527 964.6 27.4526 963.7 27.4526 958.4C27.3526 946.9 27.4526 935.4 27.4526 923.9C27.4526 887.7 27.4526 851.6 27.4526 815.4C27.4526 813.6 27.3527 811.7 27.5527 809.9C27.8527 807.2 29.0527 805.6 32.0527 805.6C33.5527 805.6 35.0527 805.6 36.5527 805.6C199.553 805.6 362.453 805.6 525.453 805.6C527.953 805.7 530.553 804.9 532.753 806.8Z" fill="#FEFEFE"/>
<path d="M417.953 620.7C422.053 640.5 425.853 660.4 428.853 680.5C426.853 682.6 424.253 682 421.753 682.1C403.553 682.2 385.453 682.1 367.253 682.1C361.453 682.1 361.453 682.2 361.453 687.9C361.453 715.4 361.453 742.9 361.453 770.4C361.453 778.3 361.053 778.6 353.353 778.6C336.553 778.6 319.653 778.6 302.853 778.6C296.053 778.6 295.453 778 295.453 771.2C295.453 735.1 295.453 698.9 295.453 662.8C295.453 656.1 295.453 656.1 288.853 656.1C241.553 656.1 194.253 656.1 146.953 656.1C140.553 656.1 140.453 656.2 140.453 663C140.453 697.8 140.453 732.6 140.453 767.4C140.453 769.4 140.453 771.4 140.353 773.4C140.053 776.7 138.553 778.6 134.953 778.6C126.753 778.6 118.653 778.6 110.453 778.6C106.553 778.6 105.453 776.3 105.753 773.1C106.653 762.8 106.953 752.5 108.053 742.3C108.753 736 108.953 729.7 109.353 723.4C110.153 711 111.453 698.6 111.853 686.1C111.953 682.9 111.053 681.9 108.153 681.9C92.1527 681.9 76.1527 681.9 60.1527 681.9C56.7527 681.9 55.4527 683.3 55.4527 686.7C55.3527 694 56.2527 701.3 56.8527 708.6C57.3527 714.9 57.6527 721.2 58.2527 727.5C59.5527 741.7 60.0527 756 61.3527 770.2C62.0527 777.5 60.9527 778.5 53.4527 778.5C46.9527 778.5 40.4527 778.5 33.9527 778.5C28.4527 778.5 27.7527 777.6 27.5527 772.1C27.5527 771.1 27.5527 770.1 27.5527 769.1C27.5527 722.5 27.5527 675.8 27.5527 629.2C27.5527 627.7 27.5527 626.2 27.5527 624.7C27.6527 621.3 29.1527 619.4 32.7527 619.6C33.9527 619.7 35.0527 619.6 36.2527 619.6C161.053 619.6 285.853 619.6 410.653 619.6C413.053 619.7 415.653 619 417.953 620.7Z" fill="#FEFEFE"/>
<path d="M651.052 751.8C660.352 736.9 669.752 722 679.052 707C692.652 685 706.252 662.9 719.852 640.8C721.152 638.6 723.452 638.6 725.452 638.1C730.752 636.8 736.152 635.7 741.552 634.6C742.352 634.4 743.152 634.3 743.952 634.2C753.652 631.7 763.452 630.4 773.552 630C793.552 629.1 810.852 644.4 815.252 662.3C818.952 677.3 822.352 692.5 825.852 707.5C833.452 740.6 841.352 773.7 848.952 806.8C849.352 808.7 850.352 810.6 849.052 812.6C840.352 815.8 831.752 819.4 822.852 822.2C818.152 823.7 816.952 826.1 817.152 830.8C817.652 843.1 817.452 855.4 817.852 867.7C817.952 871.7 816.852 873.2 812.752 873.6C788.452 876.1 764.252 879 739.952 881.5C736.752 881.8 735.852 882.8 735.852 886C735.952 898.8 735.752 911.6 735.652 924.4C735.652 926.2 736.052 928.1 735.152 929.8C735.052 915.4 734.952 901.1 734.852 886.7C734.852 885.9 734.852 885.2 734.852 884.4C733.252 882.4 733.452 880 733.452 877.7C733.452 848.9 733.452 820.1 733.452 791.3C733.452 789.3 733.552 787.3 734.252 785.4C735.852 775.5 734.652 765.5 734.952 755.6C735.052 752.4 732.352 753.7 730.852 753.6C715.252 753.4 699.552 753.4 683.952 753.2C672.952 753.1 662.052 752.8 651.052 752.6C650.752 752.4 650.652 752.2 650.852 752C650.752 751.8 650.952 751.8 651.052 751.8Z" fill="#FD9993"/>
<path d="M551.053 376.9C541.753 384.3 530.753 386.9 519.153 387.7C510.553 388.3 501.953 388.7 494.053 392.7C487.653 395.9 482.753 400.7 477.853 405.7C476.553 406.5 475.053 406.6 473.553 406.6C462.053 406.6 450.553 406.5 439.053 406.7C435.053 406.8 433.853 405.1 433.853 401.3C433.953 372.5 433.953 343.7 433.853 314.9C433.853 310.7 435.753 309.2 439.553 309.2C464.653 309.2 489.853 309.1 514.953 309.2C520.053 309.2 521.153 310.5 521.253 316C521.353 334.5 521.253 353 521.253 371.5C521.253 373.2 521.053 374.9 521.353 376.5C522.453 383.2 527.653 379.3 530.953 380.1C533.553 380.7 536.353 380.4 536.353 376.3C536.253 370.1 536.353 364 536.353 357.8C536.353 344.1 536.353 330.5 536.353 316.8C536.353 314.2 535.953 311 539.053 309.9C542.653 308.6 546.553 308.6 550.253 310.1C551.653 310.7 551.753 312.2 551.753 313.5C551.753 333.8 551.853 354.1 551.653 374.5C551.853 375.5 551.453 376.2 551.053 376.9Z" fill="#FEFEFE"/>
<path d="M539.052 798.5C562.152 798.5 585.352 798.6 608.452 798.4C612.452 798.4 613.852 799.2 613.852 803.5C613.752 867.9 613.752 932.3 613.852 996.7C613.852 1000.8 612.552 1001.6 608.752 1001.6C570.452 1001.5 532.152 1001.5 493.952 1001.5C496.352 989.8 498.752 978.1 501.052 966.4C502.852 963.7 505.652 964.2 508.352 964.2C532.852 964.1 557.252 964.2 581.752 964.2C588.552 964.2 588.552 964.2 588.552 957.2C588.552 909.1 588.552 861 588.552 812.9C588.552 806 588.552 806 581.552 806C568.952 806 556.252 806.1 543.652 805.9C541.552 805.9 538.752 806.7 537.752 803.6C538.152 802 538.652 800.2 539.052 798.5Z" fill="#FEFEFE"/>
<path d="M617.821 369.634C621.221 374.634 623.721 380.534 629.221 383.834C631.521 385.034 633.221 387.534 636.321 386.834C638.821 386.634 640.521 388.034 641.921 389.834C644.421 390.934 646.921 391.934 649.521 393.034C654.421 393.534 659.321 394.434 663.121 397.934C664.521 399.134 666.121 400.234 668.121 399.634C669.021 399.534 669.521 399.934 669.321 400.934C671.421 407.234 677.421 410.434 685.021 408.234C688.821 407.134 691.121 408.134 693.821 410.434C698.521 414.334 703.321 418.134 708.121 421.934C712.121 428.434 714.821 435.534 718.321 441.734C716.921 437.134 712.721 433.234 712.521 427.634C712.921 426.934 713.321 426.434 714.221 426.834C720.221 431.534 726.221 436.234 732.321 440.834C733.921 442.034 734.421 442.934 732.921 444.734C715.921 466.434 699.021 488.134 682.121 509.934C679.721 508.434 679.421 505.834 678.721 503.534C673.821 487.234 668.921 471.034 662.521 455.334C659.321 447.534 653.721 442.134 646.421 438.334C643.321 436.634 641.421 437.234 641.121 441.134C640.121 450.734 639.021 460.334 638.321 469.934C638.121 472.334 639.121 473.434 641.321 474.234C653.921 478.534 657.621 484.134 656.321 497.434C655.021 510.634 653.621 523.934 652.321 537.134C652.121 539.234 651.921 541.534 649.321 542.334C647.421 541.434 647.021 539.534 646.421 537.834C639.821 519.134 633.621 500.334 627.021 481.634C625.521 477.534 623.921 473.534 630.021 471.734C630.721 471.534 630.921 470.434 631.221 469.634C632.021 459.434 632.821 449.234 633.821 439.134C634.121 436.234 632.821 434.834 630.021 434.434C628.421 434.234 626.821 433.734 625.121 433.534C621.621 433.434 618.221 432.834 614.921 431.934C612.421 429.834 614.121 427.434 615.021 425.634C617.121 421.434 615.821 419.034 612.221 416.534C606.621 412.834 602.421 407.534 598.721 402.034C597.721 400.534 596.521 399.034 597.021 397.034C595.421 394.134 593.821 391.334 592.321 388.434C591.621 387.034 590.221 385.734 591.421 383.934C592.621 382.134 593.821 383.134 595.021 383.934C597.921 386.734 598.921 390.634 601.021 393.934C604.121 398.834 604.421 398.834 608.821 395.334C612.221 392.634 615.321 389.734 618.021 386.334C620.021 383.834 620.621 381.834 618.321 379.434C616.721 377.734 615.821 375.534 614.421 373.634C610.921 369.434 607.921 364.834 604.721 360.434C604.021 358.934 603.121 357.434 604.921 356.134C607.221 354.834 608.021 356.734 609.121 358.134C611.821 361.934 614.821 365.734 617.821 369.634Z" fill="#FEFEFE"/>
<path d="M530.053 837.6C531.553 827.1 534.353 816.9 537.053 806.7C538.453 805.4 540.153 805.7 541.853 805.7C555.653 805.7 569.453 805.7 583.353 805.7C588.653 805.7 589.053 806.1 589.053 811.4C589.053 860.3 589.053 909.3 589.053 958.2C589.053 963.7 588.153 964.6 582.653 964.6C570.353 964.7 558.053 964.7 545.653 964.6C540.553 964.6 539.653 963.6 539.553 958.4C539.453 948.1 539.553 937.8 539.553 927.4C539.553 900.1 539.553 872.8 539.553 845.5C539.553 839.7 539.553 839.7 533.753 839C532.253 838.8 530.953 838.6 530.053 837.6Z" fill="#FEFEFE"/>
<path d="M429.553 682.8C432.453 697.9 434.753 713.2 438.353 728.1C442.953 746.8 452.953 762.4 467.653 775C468.553 775.7 469.153 776.7 469.953 777.6C468.453 779.1 466.553 778.7 464.753 778.7C432.453 778.7 400.153 778.7 367.953 778.7C362.353 778.7 361.553 777.9 361.553 772.4C361.453 744.3 361.453 716.2 361.553 688.1C361.553 682.6 362.353 681.8 367.953 681.8C386.753 681.8 405.553 681.8 424.353 681.8C426.153 681.7 428.053 681.4 429.553 682.8Z" fill="#FEFEFE"/>
<path d="M551.052 376.9C550.953 359.6 550.852 342.3 550.752 325C550.752 322.7 550.752 320.3 550.752 318C550.652 309.7 551.852 311.2 543.652 310.7C538.952 310.4 537.452 311.6 537.452 316.6C537.752 336.4 537.452 356.2 537.652 376.1C537.652 380 536.852 381.7 532.452 381.6C519.752 381.4 519.752 381.6 519.752 369.1C519.752 351.1 519.652 333.1 519.852 315.1C519.852 311.5 518.752 310.6 515.352 310.7C490.052 310.8 464.752 310.8 439.452 310.7C436.052 310.7 434.852 311.4 434.952 315.1C435.052 343.9 435.152 372.7 434.952 401.5C434.952 405.1 436.152 405.9 439.452 405.8C452.252 405.6 465.052 405.7 477.952 405.7C477.652 406.7 476.952 407.4 475.952 407.8C473.752 407.8 471.652 407.9 469.452 407.9C351.852 407.9 234.152 407.9 116.552 407.9C88.2525 407.9 59.9525 407.8 31.5525 408C27.3525 408 26.2524 406.7 26.2524 402.6C26.3524 352.5 26.3524 302.3 26.2524 252.2C26.2524 248.1 27.3525 246.8 31.5525 246.8C215.952 246.9 400.452 246.9 584.852 246.8C588.752 246.8 589.952 247.7 589.952 251.8C589.752 278.1 589.952 304.4 589.952 330.8C589.652 331.9 588.852 332.4 587.952 332.8C587.852 308.3 587.752 283.8 587.652 259.3C587.652 249.4 587.652 249.4 577.652 249.4C397.052 249.4 216.352 249.4 35.7524 249.4C27.8524 249.4 28.7524 248.5 28.7524 256.3C28.7524 304.3 28.8525 352.3 28.6525 400.3C28.6525 405 30.0525 406 34.4525 406C54.2525 405.8 74.1525 405.9 93.9525 405.9C94.1525 404.1 92.5525 404.2 91.7525 403.7C70.5525 390.2 70.9525 360.7 92.7525 348C95.1525 346.6 95.8524 345.1 95.8524 342.5C95.7524 329.7 95.8525 316.8 95.7525 304C95.7525 300.8 96.5525 299.5 99.9525 299.7C106.152 299.9 112.252 300 118.452 299.7C122.152 299.5 122.852 301 122.852 304.3C122.652 317.1 122.852 330 122.752 342.8C122.752 345.2 123.052 347 125.452 348.7C147.252 363.7 145.952 391.6 122.152 405.6C162.352 405.6 201.752 405.6 241.452 405.6C238.952 401.7 239.152 397.2 239.152 392.7C239.152 376 239.152 359.4 239.152 342.7C239.152 335.9 237.152 333.9 230.552 333.9C226.952 333.9 223.252 333.7 219.652 333.5C219.452 333.5 219.352 333 218.952 332.3C222.752 330.4 226.752 331.5 230.552 331.4C237.252 331.2 239.152 329.6 239.152 323C239.152 315.3 239.152 315.3 247.152 315.3C247.452 315.3 247.852 315.3 248.152 315.3C256.952 315.3 257.252 315.3 256.952 323.9C256.852 327.2 259.052 328.6 260.452 330.6C261.652 332.4 266.152 329.3 266.752 326.1C266.852 325.5 266.752 324.8 266.852 324.1C267.052 315.4 267.052 315.4 275.652 315.4C277.352 315.4 278.952 315.5 280.652 315.4C283.752 315.2 284.552 316.7 284.752 319.6C284.852 322.4 283.352 325.7 285.952 328.1C287.152 329.2 287.152 332.3 289.752 331.2C291.752 330.3 293.152 328.4 293.952 326.2C294.252 325.5 294.052 324.6 294.052 323.7C294.152 315.4 294.152 315.4 302.752 315.4C303.252 315.4 303.752 315.4 304.252 315.4C313.252 315.4 311.952 315.1 312.052 323.2C312.152 329.3 314.252 331.3 320.352 331.4C322.752 331.5 325.352 330.5 327.652 332.7C325.552 335 322.952 333.9 320.652 333.9C314.552 334.1 312.152 336.3 312.152 342.4C312.152 360.1 312.152 377.7 312.152 395.4C312.152 398.9 312.252 402.4 309.752 405.3C311.352 406.6 312.852 406.1 314.252 406.1C352.052 406.1 389.952 406.1 427.752 406.2C431.852 406.2 433.052 405.2 433.052 401C432.852 363.7 433.052 326.4 432.852 289C432.852 284.6 433.652 283 438.552 283.1C474.752 283.3 510.852 283.3 547.052 283.1C551.753 283.1 553.252 284.1 553.252 289.1C553.052 318.1 553.152 347.1 553.252 376.1C552.652 376.6 551.852 376.8 551.052 376.9Z" fill="#5983AF"/>
<path d="M532.752 806.8C530.752 806.8 528.752 806.7 526.752 806.7C362.952 806.7 199.152 806.7 35.3521 806.7C28.0521 806.7 28.9521 805.7 28.9521 813C28.9521 861.3 28.9521 909.6 28.8521 958C28.8521 962.4 29.8521 963.7 34.3521 963.6C43.3521 963.2 52.3521 963.4 61.3521 963.5C64.6521 963.6 66.0522 962.8 66.0522 959.1C65.9522 924.3 65.9522 889.4 66.0522 854.6C66.0522 851.5 65.3521 849.8 61.8521 850.3C60.2521 850.5 58.5521 850.3 56.8521 850.3C54.5521 850.4 53.4521 849.4 53.4521 847.1C53.4521 843.6 53.5521 840.1 53.3521 836.6C53.2521 834 54.4521 833 56.9521 833C58.1521 833 59.2521 833 60.4521 833C117.152 833 173.752 833 230.452 833C236.952 833 236.952 833 236.952 839.6C236.952 840.1 236.952 840.6 236.952 841.1C236.952 850 236.952 850.1 228.152 850.3C224.952 850.4 224.252 851.6 224.252 854.5C224.352 889.5 224.352 924.5 224.252 959.5C224.252 962.5 225.152 963.6 228.252 963.6C236.752 963.4 245.252 963.5 253.752 963.6C256.352 963.6 257.252 962.7 257.152 960.1C257.052 954.1 257.052 948.1 257.152 942.1C257.252 939.6 256.452 938.6 253.752 938.6C249.952 938.6 245.052 940.3 242.652 937.8C239.952 934.9 241.852 929.9 241.752 925.7C241.552 920.5 241.852 915.4 241.652 910.2C241.452 906.8 242.552 905.6 246.152 905.7C252.852 905.9 252.852 905.7 252.852 899.2C252.852 892.7 253.052 886.2 252.752 879.7C252.552 875.9 253.852 874.9 257.552 874.9C274.752 875.1 291.852 875 309.052 875C353.352 875 397.752 875 442.052 875C448.752 875 448.752 875 448.752 881.9C448.752 889.1 448.552 896.2 448.852 903.4C448.952 906.8 447.952 908 444.352 908C435.252 907.9 435.252 908.1 435.252 917.3C435.252 922.1 435.452 927 435.152 931.8C434.952 935.4 436.352 936.3 439.752 936.2C446.952 936 454.052 936.3 461.252 936.1C464.652 936 466.052 937.1 465.852 940.6C465.652 946.8 465.952 952.9 465.752 959.1C465.652 962.6 466.752 964 470.252 963.5C471.052 963.4 471.952 963.4 472.752 963.5C476.852 964.2 478.052 962.6 478.052 958.4C477.852 920.2 477.952 882.1 477.952 843.9C477.952 837.6 477.952 837.6 484.452 837.6C496.452 837.6 508.452 837.6 520.452 837.6C522.252 837.6 524.152 837.9 525.852 836.9C525.552 837.9 525.252 838.8 524.952 839.8C522.852 841.6 520.252 841.3 517.852 841.3C507.652 841.4 497.552 841.3 487.352 841.3C482.152 841.3 481.652 841.8 481.652 847.1C481.552 855.6 481.752 864.1 481.552 872.6C481.452 876.6 482.952 878.3 487.052 878.2C494.552 878 502.052 878.1 509.552 878.2C511.852 878.2 514.252 878 516.052 880C515.852 881.6 516.452 883.3 515.152 884.7C506.052 884.2 496.852 884.4 487.752 884.4C482.152 884.4 481.652 884.9 481.652 890.3C481.552 912.2 481.552 934.2 481.652 956.1C481.652 961.5 482.352 962 487.652 962.3C491.052 962.5 494.652 961.4 497.852 963.7C497.752 964.7 498.352 965.9 497.352 966.8C495.552 965 493.252 965.9 491.152 965.9C338.552 965.9 185.852 965.9 33.2521 965.9C26.5521 965.9 26.5522 965.9 26.5522 959.1C26.5522 909.6 26.6521 860.1 26.4521 810.6C26.4521 806.1 27.5521 804.7 32.2521 804.7C197.852 804.8 363.552 804.8 529.152 804.8C530.452 804.8 531.852 804.9 533.152 804.9C532.952 805.4 532.852 806.1 532.752 806.8Z" fill="#5982AF"/>
<path d="M464.753 446.5C463.353 444.4 463.553 441.9 463.953 439.7C464.653 435.4 462.753 434.8 459.053 434.8C317.453 434.9 175.753 434.9 34.1526 434.8C30.1526 434.8 28.7525 435.6 28.7525 439.9C28.9525 488.9 28.8525 537.9 28.7525 586.9C28.7525 590.5 29.4525 591.7 33.3525 591.7C57.8525 591.5 82.3525 591.5 106.853 591.7C110.453 591.7 111.353 590.6 111.253 587.2C111.053 578 111.353 568.9 111.153 559.7C111.053 555.9 111.953 554.1 116.153 554.5C119.753 554.9 123.453 554.4 127.153 554.6C130.053 554.8 131.353 554.1 131.253 550.8C131.053 542 131.053 533.1 131.253 524.3C131.353 521 130.153 520.1 126.953 520.1C116.253 520.3 105.653 520 94.9525 520.2C91.2525 520.3 90.0525 519.1 90.1525 515.3C90.3525 505.8 90.3525 496.3 90.1525 486.8C90.0525 483.5 90.8526 482.1 94.5526 482.1C153.053 482.2 211.553 482.2 270.053 482.1C273.753 482.1 274.453 483.5 274.353 486.8C274.153 494.8 274.253 502.8 274.253 510.8C274.253 518.6 273.353 517.5 281.253 517.6C291.053 517.7 300.953 517.7 310.753 517.6C313.753 517.6 315.253 518.1 315.153 521.6C314.953 531.6 314.953 541.6 315.153 551.6C315.153 554.6 314.353 555.8 311.253 555.6C307.253 555.4 303.253 555.6 299.253 555.5C296.853 555.4 295.553 556 295.553 558.8C295.653 568.6 295.753 578.5 295.553 588.3C295.453 591.7 297.453 591.5 299.753 591.5C315.953 591.5 332.053 591.5 348.253 591.5C369.753 591.5 391.253 591.4 412.753 591.4C412.853 592.1 412.853 592.9 412.953 593.6C295.453 593.6 178.053 593.6 60.5526 593.7C50.7526 593.7 40.8526 593.6 31.0526 593.8C27.6526 593.9 26.3525 593 26.3525 589.4C26.4525 538.6 26.4525 487.8 26.3525 437C26.3525 432.2 28.9526 432.7 32.0526 432.7C154.053 432.7 275.953 432.7 397.953 432.7C420.253 432.7 442.653 432.7 464.953 432.7C464.853 437.3 464.853 441.9 464.753 446.5Z" fill="#5982AF"/>
<path d="M429.552 682.8C408.452 682.7 387.352 682.7 366.152 682.6C363.252 682.6 362.452 683.6 362.552 686.4C362.652 715.5 362.652 744.6 362.552 773.7C362.552 777.9 364.852 777.6 367.652 777.6C401.752 777.6 435.852 777.6 469.952 777.6C471.352 777.8 472.152 778.7 472.952 779.6C470.752 779.6 468.652 779.7 466.452 779.7C321.952 779.7 177.552 779.7 33.0525 779.7C26.3525 779.7 26.2524 779.7 26.2524 773C26.2524 723.7 26.2524 674.4 26.2524 625.1C26.2524 618.7 26.2524 618.7 32.7524 618.7C159.052 618.7 285.352 618.7 411.652 618.6C413.652 618.6 417.052 620.2 417.052 615.9C418.452 617.4 417.652 619.2 417.752 620.8C290.152 620.8 162.552 620.8 34.8524 620.7C29.8524 620.7 28.5525 621.8 28.5525 626.9C28.7525 675.4 28.7525 723.9 28.5525 772.3C28.5525 776.4 29.5524 777.8 33.7524 777.6C41.0524 777.2 48.4524 777.4 55.7524 777.6C59.0524 777.7 60.0524 776.7 59.8524 773.4C58.2524 752.3 56.7524 731.2 55.2524 710.1C54.6524 701.5 54.2525 692.8 53.5525 684.2C53.3525 681.4 54.2525 680.4 57.1525 680.4C74.8525 680.5 92.4525 680.5 110.152 680.4C113.252 680.4 113.552 681.7 113.352 684.4C111.352 711.1 109.552 737.9 107.752 764.6C107.552 767.8 107.252 770.9 106.952 774C106.652 776.5 107.352 777.6 110.152 777.6C118.352 777.5 126.452 777.4 134.652 777.6C138.252 777.7 138.752 776.1 138.752 773.1C138.652 755.8 138.752 738.4 138.752 721.1C138.752 700.8 138.852 680.4 138.652 660.1C138.552 655.6 139.952 654.6 144.252 654.6C193.052 654.8 241.852 654.8 290.752 654.6C295.752 654.6 296.752 656.2 296.752 660.8C296.552 697.8 296.752 734.8 296.552 771.8C296.552 776.4 297.652 777.7 302.352 777.6C319.852 777.3 337.352 777.3 354.852 777.6C359.452 777.7 360.252 776.2 360.252 772C360.052 743 360.152 714 360.052 685C360.052 681.7 360.652 680.3 364.352 680.3C385.852 680.5 407.352 680.4 428.852 680.5C429.052 681.3 429.352 682 429.552 682.8Z" fill="#5982AF"/>
<path d="M734.152 785.4C734.352 786.3 734.852 787.3 734.852 788.2C734.852 820.2 734.752 852.3 734.752 884.3C720.752 884.3 706.752 884.3 692.752 884.4C690.052 884.4 688.952 883.7 688.952 880.8C689.052 854.5 689.052 828.1 688.952 801.8C688.952 799.1 689.952 798.4 692.452 798.4C696.252 798.3 700.052 799.2 703.752 797.8C714.152 797.3 723.252 793.7 731.152 786.9C732.052 786.2 732.852 785.4 734.152 785.4Z" fill="#FEFEFE"/>
<path d="M502.152 963.4C505.952 945.6 509.652 927.8 513.552 910C515.552 900.8 517.752 891.7 519.852 882.5C525.052 880 530.552 881.1 535.952 881.6C539.052 881.9 539.352 884.8 539.452 887.4C539.552 893.5 539.452 899.7 539.452 905.8C539.452 922.7 539.452 939.7 539.452 956.6C539.452 964.2 539.052 964.6 531.752 964.6C523.652 964.6 515.452 964.6 507.352 964.6C505.552 964.6 503.552 965 502.152 963.4Z" fill="#FEFEFE"/>
<path d="M497.752 963.5C493.152 963.5 488.452 963.3 483.852 963.5C481.052 963.6 480.152 962.5 480.152 959.7C480.252 935.1 480.252 910.6 480.152 886C480.152 883.9 480.452 882.5 483.052 882.5C492.852 882.6 502.652 882.6 512.452 882.5C513.952 882.5 515.052 882.8 515.152 884.5C509.352 910.8 503.552 937.1 497.752 963.5Z" fill="#FEFEFE"/>
<path d="M516.053 879.9C505.353 879.9 494.753 879.9 484.053 880.1C480.953 880.2 480.053 879.1 480.053 876.1C480.153 865.4 480.253 854.8 480.053 844.1C479.953 840.6 480.953 839.5 484.453 839.6C497.953 839.8 511.453 839.7 524.953 839.7C521.953 853.1 518.953 866.5 516.053 879.9Z" fill="#FEFEFE"/>
<path d="M502.152 963.4C512.752 963.4 523.452 963.3 534.052 963.4C537.052 963.4 538.052 962.5 538.052 959.5C537.952 935 537.952 910.6 538.052 886.1C538.052 883.2 537.152 882.3 534.352 882.5C529.552 882.7 524.752 882.5 519.852 882.5C520.052 880.9 519.252 879.1 520.652 877.7C524.452 878 528.252 878.2 532.152 878.1C535.052 878 536.452 876.8 536.452 873.9C536.552 864.4 536.452 854.9 536.452 845.5C536.452 843 535.652 841.3 532.852 841.1C531.552 841 530.152 840.8 529.252 839.7C529.552 839 529.852 838.2 530.052 837.5C540.652 837.3 540.652 837.3 540.652 847.8C540.652 884.3 540.752 920.7 540.552 957.2C540.552 961.9 541.452 963.6 546.452 963.4C558.752 963 571.052 963.2 583.452 963.3C586.652 963.3 587.752 962.3 587.752 959C587.652 909.5 587.652 860.1 587.752 810.6C587.752 807.3 586.752 806.4 583.552 806.4C568.052 806.6 552.552 806.5 537.052 806.5C537.152 805.5 536.752 804.3 537.752 803.5C539.352 804.9 541.252 804.3 543.052 804.3C557.252 804.4 571.352 804.4 585.552 804.3C589.052 804.3 590.052 805.3 590.052 808.8C589.952 859.6 589.952 910.4 590.052 961.2C590.052 964.9 588.752 965.6 585.452 965.6C559.352 965.5 533.152 965.5 507.052 965.6C505.052 965.6 503.052 965.1 501.252 966.5C501.452 965.5 501.852 964.5 502.152 963.4Z" fill="#5D86B1"/>
<path d="M597.752 396.6C602.352 404.8 608.352 411.8 616.152 417.1C618.752 418.9 619.352 420.4 617.852 423.2C616.652 425.5 615.852 428 614.852 430.5C614.152 431.7 612.952 431.9 611.852 431.8C601.852 430.8 591.852 430.2 581.952 428.3C581.452 428.1 580.852 427.8 580.452 427.5C580.252 427.3 580.052 427 579.952 426.8C582.452 421.2 585.152 415.7 587.352 410C589.452 404.3 592.352 399.5 597.752 396.6Z" fill="#FD9993"/>
<path d="M585.852 507.1C587.552 521.2 573.152 530.9 561.552 524.3C555.352 520.8 552.452 515.2 553.052 508C553.552 501.6 558.352 495.9 564.852 494C566.752 493.4 568.652 493.5 568.952 490.6C570.952 469.3 573.052 447.9 575.052 426.6C576.652 424.9 578.352 425.5 579.952 426.6L579.852 426.7C581.752 431.2 580.252 435.8 579.852 440.3C578.452 456 576.752 471.8 575.252 487.5C574.952 490.9 575.652 493 578.852 494.8C583.252 497.5 586.352 501.4 585.852 507.1Z" fill="#FDFEFE"/>
<path d="M529.153 839.7C537.953 839.5 537.953 839.5 537.953 848.5C537.953 857.3 537.753 866.1 538.053 874.9C538.253 879.2 536.753 880.5 532.653 880C529.853 879.7 527.053 879.9 524.153 879.9C522.453 879.9 520.753 880 520.553 877.6C523.553 865 526.353 852.4 529.153 839.7Z" fill="#FEFEFE"/>
<path d="M605.653 355.8C604.853 357.1 605.853 358.2 605.953 359.4C603.453 368 600.653 376.5 594.853 383.6C593.953 382.8 593.053 383.2 592.053 383.5C590.653 381.9 589.153 380.4 587.753 378.7C583.953 374.1 581.653 369 584.253 363.2C586.853 357.4 592.153 355.5 598.053 355.3C600.753 355.3 603.153 355.7 605.653 355.8Z" fill="#FC9993"/>
<path d="M472.952 477.5C474.752 474 473.352 470.3 473.952 466.8C477.252 469.6 480.552 472.4 483.952 475.3C480.352 477 476.552 476.6 472.952 477.5Z" fill="#E6E9EC"/>
<path d="M651.052 751.8C651.052 752.1 650.952 752.4 650.952 752.6C646.252 752.9 641.652 753 636.952 752.5C641.552 750.9 646.352 751.9 651.052 751.8Z" fill="#B0A8BB"/>
<path d="M848.952 812.6C840.952 778.4 832.952 744.1 824.952 709.9C821.352 694.6 817.952 679.2 814.152 663.9C808.152 639.8 785.852 626.2 761.552 631.7C755.752 633 749.852 634.2 744.052 635.4C742.352 633.5 742.452 631.6 744.052 629.7C771.352 629.6 798.652 629.6 826.052 629.5C845.752 629.5 865.352 629.5 885.052 629.5C906.552 629.5 920.952 644 920.952 665.6C920.952 727.6 920.952 789.6 920.952 851.5C920.952 853.2 920.852 854.8 920.852 856.5C919.252 858.1 917.252 858 915.252 858C898.952 858 882.652 858 866.352 858C864.552 858 862.652 858.1 861.152 856.8C858.152 843.2 855.052 829.6 852.052 816C851.552 814.4 851.752 812.3 848.952 812.6Z" fill="#FEFEFE"/>
<path d="M920.753 859.7C920.753 881.3 920.753 902.9 920.753 924.5C905.153 918 889.652 911.5 874.052 905C872.452 904.4 871.253 903.8 870.853 901.8C867.953 887.7 864.853 873.6 861.853 859.5C863.453 858 865.553 858.2 867.453 858.2C883.353 858.2 899.253 858.2 915.253 858.2C917.153 858.2 919.153 858 920.753 859.7Z" fill="#FEFEFE"/>
<path d="M920.753 859.7C901.053 859.7 881.453 859.6 861.753 859.6C860.853 858.9 860.953 857.9 861.053 857C880.952 856.9 900.853 856.8 920.753 856.7C920.753 857.7 920.753 858.7 920.753 859.7Z" fill="#5881AE"/>
<path d="M817.152 928.4C817.152 920.2 817.152 912 817.152 903.8C817.352 903.8 817.452 903.8 817.652 903.8C817.652 912.1 817.652 920.3 817.652 928.6C817.452 928.5 817.352 928.5 817.152 928.4Z" fill="#A84D22"/>
<path d="M766.852 560.5C768.852 560.6 770.852 560.7 772.852 560.7C877.652 560.7 982.352 560.9 1087.15 560.5C1101.95 560.5 1109.85 569.3 1109.85 583.1C1109.55 672.4 1109.65 761.7 1109.85 850.9C1109.85 855.6 1108.85 857.1 1103.95 857C1045.85 856.8 987.652 856.9 929.552 856.9C928.052 856.9 926.552 856.8 925.052 856.8C924.952 844 924.852 831.1 924.852 818.3C924.852 768 924.852 717.7 924.852 667.3C924.852 641.4 909.052 625.8 883.052 625.8C853.252 625.8 823.352 625.8 793.552 625.8C791.752 625.8 789.952 625.8 788.252 625.8C787.852 624.4 788.852 623.7 789.252 622.9C792.252 616.2 788.352 609.9 780.852 609.8C772.852 609.7 764.852 609.6 756.852 609.8C753.952 609.9 753.252 608.9 753.252 606.1C753.352 592.9 753.452 579.8 753.252 566.6C753.152 562.2 754.752 560.5 758.952 560.6C761.452 560.7 764.152 560.5 766.852 560.5Z" fill="#FEFEFE"/>
<path d="M958.853 959.8C956.053 946.8 949.353 936.9 936.853 931.4C932.953 929.7 928.953 928.1 924.953 926.5C924.953 904.2 924.953 881.8 924.853 859.5C971.853 859.5 1018.75 859.4 1065.75 859.4C1078.75 859.4 1091.75 859.5 1104.75 859.3C1108.25 859.3 1109.75 859.9 1109.75 863.9C1109.55 889.4 1109.75 914.9 1109.65 940.3C1109.65 952.5 1102.05 960.3 1090.25 960.3C1047.75 960.4 1005.35 960.3 962.853 960.3C961.453 960.4 960.153 960 958.853 959.8Z" fill="#FEFEFE"/>
<path d="M556.852 626C551.352 611.1 547.752 595.6 542.852 580.5C541.752 577.1 543.952 577.5 545.952 577.5C559.252 577.5 572.552 577.5 585.752 577.5C587.752 577.5 589.752 577.3 591.752 577.2C593.552 576.2 595.552 576.2 597.552 576.2C601.352 576.2 605.252 576 609.052 576.2C625.552 577.4 641.552 575.2 656.752 568.6C663.252 566.6 669.752 564.5 676.252 562.6C678.152 562 680.052 561.2 682.052 561.8C684.252 561.2 686.552 560.6 688.752 560C693.852 558.6 698.252 560.1 699.152 564C700.152 568.6 696.352 570 693.252 571.9C686.952 575.7 680.152 574.4 673.452 574.6C671.952 574.7 670.452 574.6 668.952 574.6C667.352 574.6 665.852 574.9 665.852 577C665.852 578.8 667.252 579.1 668.652 579.1C673.152 579.1 677.652 579.3 682.152 579C696.252 577.9 709.952 580.2 723.552 583.8C728.852 585.2 731.752 589.6 734.052 594.8C726.452 594.8 719.252 594.8 712.052 594.8C709.252 594.8 706.352 594.7 703.552 594.7C701.952 594.7 699.852 594.3 699.652 596.7C699.452 599.4 701.852 599.2 703.552 599.3C712.552 599.5 721.552 599.8 730.552 599.7C733.952 599.7 735.152 600.5 734.952 604.1C734.852 607.2 733.852 608 730.852 607.9C722.052 607.6 713.252 607.5 704.352 607.5C702.452 607.5 699.352 606.4 699.352 609.7C699.352 612.5 702.252 611.8 704.152 611.8C713.952 611.9 723.752 611.8 733.852 611.8C731.152 621.7 726.152 625.7 717.352 625.7C665.852 625.7 614.352 625.7 562.952 625.7C560.852 625.8 558.852 625.9 556.852 626Z" fill="#FD9993"/>
<path d="M682.152 561.8C674.352 565 666.252 567.2 658.152 569.5C657.152 568.9 656.452 567.9 656.252 566.7C654.452 558.4 651.952 550.2 650.352 541.9C653.052 538.2 651.952 533.8 652.452 529.8C653.952 517.8 655.252 505.7 656.052 493.6C656.752 482.9 651.952 476.8 641.452 475.1C637.452 474.5 637.352 473.2 637.752 469.7C639.152 459.2 640.052 448.6 640.952 438C641.152 435 641.952 434.3 644.852 435.4C654.252 438.8 660.952 445 664.752 454.4C672.052 472.4 677.552 491.1 683.152 509.7C682.252 511.4 682.252 513.2 682.252 515C682.152 530.6 682.152 546.2 682.152 561.8Z" fill="#6DB5DE"/>
<path d="M642.753 389.8C640.353 389.7 638.853 388.1 637.153 386.8C633.853 382 630.453 377.3 631.653 370.9C633.153 362.3 640.953 356 649.453 356.9C658.253 357.9 664.553 365.1 664.353 373.9C664.153 382.6 657.153 389.6 648.353 389.8C646.453 389.8 644.553 389.8 642.753 389.8Z" fill="#FD9993"/>
<path d="M741.852 635.7C734.552 637.4 727.152 639.1 719.852 640.8C701.952 639.7 684.052 638.4 666.152 637.8C659.852 637.6 661.952 632.6 660.252 629.8C687.452 629.8 714.652 629.8 741.852 629.8C743.352 631.8 743.252 633.7 741.852 635.7Z" fill="#FEFEFE"/>
<path d="M685.652 372.4C689.152 372.8 691.852 374.6 694.152 377C698.552 381.6 698.652 383.6 694.752 388.6C691.452 392.9 687.752 397 684.852 401.6C682.652 405.2 680.352 405.2 677.152 403.9C675.152 403.1 673.052 402.6 671.752 400.8C671.252 396 673.952 392.1 675.152 387.7C676.152 385.9 676.752 384 676.952 382C677.252 380.4 677.752 378.8 678.152 377.2C679.152 373.3 681.352 371.3 685.652 372.4Z" fill="#FEFEFE"/>
<path d="M685.653 372.4C682.053 372 680.153 373.5 679.653 377.2C679.353 379.1 678.453 381 677.853 382.8C676.653 383.5 674.553 382.5 673.953 384.3C673.253 386.2 675.553 386.5 676.153 387.7C675.353 392.3 673.653 396.6 671.853 400.8C671.353 400.8 670.753 400.8 670.253 400.8C669.853 400.4 669.453 399.9 669.053 399.5C669.453 397.6 667.853 396.5 667.253 395C664.853 388.8 665.353 382.8 669.853 377.7C673.853 373.1 679.153 370.6 685.653 372.4Z" fill="#FB9893"/>
<path d="M713.752 427.8C716.452 433.6 719.152 439.3 721.952 445.1C721.452 445.4 720.852 445.6 720.352 445.9C716.252 438 711.352 430.5 708.952 421.8C710.252 422.7 711.552 423.7 712.852 424.6C713.352 425.6 713.552 426.7 713.752 427.8Z" fill="#6188B1"/>
<path d="M663.953 397.9C659.453 396.3 654.853 394.6 650.353 393C654.753 393.4 658.053 390.8 661.553 388.7C662.353 391.9 663.153 394.9 663.953 397.9Z" fill="#F89893"/>
<path d="M741.853 635.7C741.853 633.8 741.853 631.8 741.853 629.9C742.553 629.9 743.353 629.9 744.053 629.9C744.053 631.8 744.053 633.7 744.053 635.6C743.253 635.5 742.553 635.6 741.853 635.7Z" fill="#5882AE"/>
<path d="M713.752 427.8C712.952 426.9 711.952 426 712.752 424.6C713.452 425.3 714.252 425.9 714.952 426.6C714.652 427 714.252 427.4 713.752 427.8Z" fill="#BFCFDF"/>
<path d="M1111.85 834.6C1111.85 819.8 1111.95 805 1111.75 790.2C1111.75 786.9 1112.25 785.5 1116.05 785.6C1130.65 785.8 1145.35 785.8 1159.95 785.6C1163.05 785.6 1164.35 786.2 1164.25 789.7C1164.15 819.8 1164.15 849.9 1164.25 880.1C1164.25 883.2 1163.65 884.6 1160.15 884.5C1145.35 884.3 1130.55 884.3 1115.75 884.5C1112.15 884.5 1111.75 883 1111.75 880.1C1111.85 864.9 1111.85 849.7 1111.85 834.6Z" fill="#FEFEFE"/>
<path d="M1048.85 1002.6C1041.55 1002.6 1034.25 1002.5 1026.85 1002.7C1023.75 1002.8 1022.45 1002.1 1022.55 998.6C1022.75 988 1022.75 977.3 1022.55 966.7C1022.45 963.3 1023.75 962.6 1026.85 962.6C1041.45 962.7 1056.15 962.7 1070.75 962.6C1073.85 962.6 1075.15 963.3 1075.05 966.7C1074.85 977.3 1074.85 988 1075.05 998.6C1075.15 1002 1073.85 1002.8 1070.75 1002.7C1063.55 1002.5 1056.15 1002.6 1048.85 1002.6Z" fill="#FEFEFE"/>
<path d="M1047.75 179.8C1047.75 236.9 1047.65 294.1 1047.85 351.2C1047.85 355.7 1046.65 356.7 1042.25 356.7C960.252 356.6 878.352 356.6 796.352 356.7C791.752 356.7 790.952 355.3 790.952 351.1C791.052 236.8 791.052 122.5 790.952 8.20003C790.952 3.60003 792.252 2.40002 796.752 2.40002C878.552 2.50002 960.352 2.50002 1042.15 2.40002C1046.95 2.40002 1047.85 3.90003 1047.85 8.30003C1047.75 65.5 1047.75 122.6 1047.75 179.8Z" fill="#FEFEFE"/>
<path d="M308.153 222.5C216.353 222.5 124.553 222.5 32.6527 222.6C27.6527 222.6 26.1527 221.4 26.2527 216.2C26.4527 181.9 26.3527 147.5 26.3527 113.2C26.3527 82.5 47.8527 60.9 78.5527 60.9C231.553 60.9 384.553 60.9 537.453 60.9C568.553 60.9 589.953 82.2 589.953 113.3C589.953 147.8 589.853 182.3 590.053 216.8C590.053 221.6 588.553 222.6 584.153 222.6C492.053 222.5 400.053 222.5 308.153 222.5Z" fill="#5B84B0"/>
<path d="M650.352 542C651.552 543.1 652.452 544.3 652.752 546C654.552 553.9 656.352 561.8 658.152 569.6C645.252 574.6 632.352 578.7 618.152 577.7C609.452 577 600.552 577.4 591.752 577.3C590.152 555.6 588.552 533.9 586.852 512.2C586.652 509.9 586.352 507.6 586.052 505.3C583.452 500.4 583.952 495 583.652 489.8C582.552 470.6 580.552 451.5 580.152 432.3C580.152 430.6 579.952 428.7 581.052 427.1C592.352 428.2 603.552 429.3 614.852 430.4C618.552 430.9 622.152 431.4 625.852 431.9C626.552 432.6 627.352 433.3 627.552 434.3C630.352 445.8 634.452 457.2 633.152 469.4C633.552 473.7 631.452 475 626.652 473.4C634.752 496.7 642.552 519.3 650.352 542Z" fill="black"/>
<path d="M581.152 427.1C582.852 452 584.552 476.9 586.152 501.8C586.252 503 586.152 504.1 586.152 505.3C586.052 505.9 585.852 506.5 585.752 507.1C584.052 501.3 581.052 496.6 574.952 494.5C573.452 494 573.052 492.9 573.252 491.4C575.052 474.3 576.852 457.2 578.652 440.1C579.152 435.7 579.552 431.2 579.952 426.8C580.352 426.9 580.752 427 581.152 427.1Z" fill="#6DB5DE"/>
<path d="M814.852 761.7C814.852 747.4 814.852 733.1 814.852 718.7C814.752 694.8 796.652 676.7 772.752 676.6C758.752 676.5 744.752 676.7 730.852 675.8C729.652 675.7 727.852 676.2 727.552 674.5C727.252 672.6 728.952 672.5 730.252 672.5C747.352 673 764.552 671.2 781.652 673.7C801.552 676.6 816.952 693.6 818.152 713.6C819.952 745.4 818.652 777.2 819.052 809C819.052 810.3 819.652 812.5 817.352 812.4C815.052 812.4 815.152 810.3 815.152 808.6C815.152 792.9 815.152 777.3 815.152 761.6C814.952 761.7 814.952 761.7 814.852 761.7Z" fill="#FEFDFD"/>
<path d="M594.952 383.6C598.652 375.5 602.352 367.5 606.052 359.4C609.452 364 612.852 368.5 616.352 373.1C616.752 374.4 616.852 375.7 616.152 377C612.952 383.3 608.752 388.8 603.352 393.3C602.752 393.8 601.952 394.1 601.052 393.8C598.952 390.4 596.952 387 594.952 383.6Z" fill="#010101"/>
<path d="M600.952 393.8C607.452 387.9 613.252 381.6 616.252 373.1C616.852 373.9 617.352 374.7 617.852 375.5C622.952 383.5 622.952 383.6 616.252 390.6C614.352 392.6 612.052 394.4 609.952 396.2C604.252 400.9 604.152 400.9 600.952 393.8Z" fill="#FD9A94"/>
<path d="M633.153 469.3C633.253 457.2 628.553 446 626.253 434.3C626.053 433.5 625.953 432.7 625.853 431.9C636.953 433.2 636.853 433.2 635.753 443.7C634.953 452.3 634.053 460.8 633.153 469.3Z" fill="#6CB4DC"/>
<path d="M492.952 285.4C510.652 285.4 528.252 285.5 545.952 285.3C549.652 285.3 551.052 286.3 550.752 290.1C550.452 294.4 550.452 298.8 550.752 303.1C551.052 307 549.852 308.2 545.752 308.2C523.552 308 501.452 308.1 479.252 308.1C465.952 308.1 452.552 308 439.252 308.2C435.652 308.3 434.652 307.1 434.852 303.7C435.152 299.6 435.252 295.3 434.852 291.2C434.252 286.1 436.352 285.3 440.952 285.3C458.352 285.5 475.652 285.4 492.952 285.4Z" fill="#FEFEFE"/>
<path d="M108.652 374.7C99.9525 374.7 91.3525 374.5 82.7525 374.8C79.0525 374.9 78.5525 373.4 79.1525 370.4C81.0525 361.2 85.8525 354.1 94.1525 349.8C97.4525 348.1 98.1525 346.2 98.1525 342.8C97.9525 330.5 98.1525 318.2 98.0525 305.9C98.0525 302.7 98.7525 301.4 102.152 301.6C106.752 301.9 111.452 301.9 116.152 301.6C119.852 301.4 120.552 302.9 120.452 306.2C120.252 318.8 120.452 331.5 120.352 344.1C120.352 346.9 121.153 348.5 123.752 350C131.653 354.5 136.452 361.5 138.152 370.5C138.752 373.6 138.252 374.9 134.652 374.7C125.952 374.5 117.352 374.7 108.652 374.7Z" fill="#FEFEFE"/>
<path d="M108.953 376.9C117.453 376.9 125.953 377.1 134.353 376.8C137.953 376.7 138.553 378.1 138.153 381.2C136.353 395.2 122.953 406 107.553 405.8C93.4526 405.6 80.2525 393.8 78.9525 380.5C78.6525 377.6 79.6525 376.7 82.4525 376.8C91.2525 377 100.153 376.9 108.953 376.9Z" fill="#FEFEFE"/>
<path d="M522.053 344.2C522.053 334.5 522.153 324.9 521.953 315.2C521.853 311.8 522.753 310.6 526.353 310.6C535.153 310.7 535.153 310.5 535.153 319.2C535.153 337.3 535.053 355.5 535.253 373.6C535.253 377.6 534.353 379.1 530.053 378.9C522.053 378.6 522.053 378.8 522.053 371C522.053 362.2 522.053 353.2 522.053 344.2Z" fill="#FEFEFE"/>
<path d="M254.952 375.9C254.952 383.2 254.952 390.5 254.952 397.8C254.952 402.4 252.152 405.5 248.252 405.5C244.552 405.5 241.852 402.6 241.852 398.1C241.752 383 241.852 367.8 241.752 352.7C241.752 350.1 242.652 349.3 245.252 349.2C254.952 348.7 254.952 348.7 254.952 358.3C254.952 364.3 254.952 370.1 254.952 375.9Z" fill="#FEFEFE"/>
<path d="M269.052 405.6C264.152 405.6 259.952 405.6 255.152 405.6C257.752 400.9 257.052 396 257.052 391.1C257.052 374.9 257.352 358.8 256.852 342.6C256.752 338.9 259.452 337.2 260.252 334.3C260.552 333.2 262.852 333.2 263.252 334.1C264.352 336.8 267.052 338.5 266.952 342.2C266.652 359.9 266.852 377.5 266.852 395.2C266.852 398.7 266.452 402.2 269.052 405.6Z" fill="#FDFDFD"/>
<path d="M296.252 405.5C291.452 405.5 287.252 405.5 282.452 405.5C285.252 400.4 284.652 395 284.652 389.6C284.652 374.1 284.852 358.7 284.552 343.2C284.452 339.7 286.152 337.4 287.452 334.6C288.152 333 290.152 333 291.052 334.4C292.652 337.1 294.352 339.5 294.352 343.2C293.952 360 294.152 376.8 294.152 393.6C293.952 397.6 293.652 401.6 296.252 405.5Z" fill="#FDFDFD"/>
<path d="M309.353 378.6C309.353 385.1 309.353 391.5 309.353 398C309.353 402.3 307.553 405.1 303.153 405.5C299.353 405.9 296.253 402.6 296.153 398.1C296.053 384.7 296.153 371.2 296.053 357.8C296.053 355.5 296.753 354.7 299.153 354.5C309.353 353.8 309.353 353.7 309.353 363.7C309.353 368.7 309.353 373.7 309.353 378.6Z" fill="#FDFDFD"/>
<path d="M268.953 384C268.953 379.4 269.053 374.7 268.953 370.1C268.853 367.6 269.453 366.6 272.253 366.5C282.153 366.1 282.153 366 282.153 375.9C282.153 383.2 282.153 390.5 282.153 397.8C282.153 402.7 279.653 405.5 275.653 405.6C271.753 405.7 269.053 402.6 269.053 397.9C268.953 393.3 268.953 388.7 268.953 384Z" fill="#FEFEFE"/>
<path d="M282.152 349C282.152 351.7 282.152 354.3 282.152 357C282.052 365.1 283.252 363.7 274.952 364.2C270.152 364.5 268.552 363.1 268.952 358.2C269.452 351.4 269.252 344.6 269.052 337.8C268.952 334.5 270.052 333.6 273.352 333.6C282.252 333.6 282.252 333.5 282.252 342.5C282.152 344.7 282.152 346.8 282.152 349Z" fill="#FEFEFE"/>
<path d="M309.352 343.2C309.352 343.4 309.352 343.5 309.352 343.7C308.952 346.4 310.752 350.4 308.252 351.5C305.352 352.8 301.452 352 297.952 351.9C296.152 351.9 296.152 350.3 296.152 348.9C296.152 346.4 296.152 343.9 296.152 341.4C296.252 332.1 295.252 333.9 304.052 333.4C308.052 333.2 309.952 334.2 309.352 338.5C309.152 340.2 309.352 341.7 309.352 343.2Z" fill="#FDFDFE"/>
<path d="M254.952 339.5C254.852 347.7 255.852 346.4 248.152 346.9C243.052 347.2 241.252 345.8 241.652 340.5C242.152 331.9 241.452 334.2 249.052 333.5C255.152 332.9 255.552 335.9 254.952 339.5Z" fill="#FDFEFE"/>
<path d="M309.352 323.5C309.352 331.1 309.352 331.1 302.252 331.1C296.152 331.1 296.052 331.1 296.152 323.8C296.252 316.7 295.352 318.1 303.252 317.6C308.852 317.1 310.452 319.2 309.352 323.5Z" fill="#FBFCFD"/>
<path d="M274.753 317.6C283.053 317.8 282.053 316.6 282.053 324.4C282.053 331.9 282.753 331 275.353 331C267.853 331 269.353 331.6 268.753 323.6C268.453 318 270.653 316.7 274.753 317.6Z" fill="#FEFEFE"/>
<path d="M254.952 323.3C254.952 331.1 254.952 331.1 248.552 331.1C240.952 331.1 241.752 332 241.752 324C241.752 316.7 240.852 318 248.652 317.5C253.852 317.2 256.352 318.5 254.952 323.3Z" fill="#FCFCFD"/>
<path d="M144.952 963.4C120.952 963.4 96.9525 963.3 72.9525 963.5C69.0525 963.5 67.8525 962.6 67.9525 958.6C68.1525 924.1 68.0525 889.6 67.9525 855.1C67.9525 851.5 68.6525 850.2 72.5525 850.2C87.0525 850.4 101.552 850.4 116.052 850.2C119.952 850.1 120.952 851.4 120.752 855.1C120.452 860.3 120.752 865.4 120.652 870.6C120.552 873.3 121.352 874.5 124.252 874.5C138.052 874.4 151.952 874.4 165.752 874.5C168.852 874.5 169.752 873.2 169.752 870.3C169.652 864.8 169.852 859.3 169.652 853.8C169.552 851.3 170.452 850.3 173.052 850.3C188.252 850.4 203.352 850.4 218.552 850.3C221.152 850.3 222.052 851.1 222.052 853.7C221.952 889.2 221.952 924.7 222.052 960.2C222.052 964.1 219.652 963.4 217.452 963.4C193.352 963.4 169.152 963.4 144.952 963.4Z" fill="#FEFEFE"/>
<path d="M350.053 905.6C320.053 905.6 290.153 905.5 260.153 905.7C255.953 905.7 254.753 904.6 254.953 900.4C255.353 894.3 255.253 888.1 254.953 881.9C254.753 878 256.153 877.2 259.753 877.2C297.753 877.3 335.653 877.3 373.653 877.3C396.153 877.3 418.653 877.4 441.053 877.2C445.353 877.2 446.453 878.5 446.253 882.5C445.953 888.5 445.853 894.5 446.253 900.5C446.553 904.9 444.853 905.6 440.953 905.6C410.653 905.6 380.353 905.6 350.053 905.6Z" fill="#FEFEFE"/>
<path d="M338.452 936C308.952 936 279.452 935.8 249.952 936.1C244.652 936.2 243.452 934.6 243.852 929.7C244.252 923.9 244.152 918 243.852 912.2C243.752 908.8 244.652 907.6 248.252 907.7C257.052 908 265.952 907.8 274.752 907.8C325.552 907.8 376.352 907.9 427.152 907.7C432.152 907.7 433.452 909.1 433.052 913.8C432.652 919.3 432.652 924.8 433.052 930.3C433.352 934.8 432.052 936.2 427.352 936.2C397.752 935.9 368.152 936 338.452 936Z" fill="#FEFEFE"/>
<path d="M360.952 963.4C328.852 963.4 296.652 963.3 264.552 963.5C260.452 963.5 258.952 962.5 259.152 958.2C259.452 952.7 259.352 947.2 259.252 941.7C259.252 939.4 259.952 938.2 262.352 938.5C263.152 938.6 264.052 938.5 264.852 938.5C329.152 938.5 393.452 938.5 457.752 938.4C462.052 938.4 463.752 939.3 463.352 943.8C462.952 948.4 462.952 953.2 463.352 957.8C463.852 962.7 461.852 963.5 457.452 963.5C425.252 963.3 393.152 963.4 360.952 963.4Z" fill="#FEFEFE"/>
<path d="M144.952 835.5C173.052 835.5 201.252 835.7 229.352 835.3C235.352 835.2 234.152 838.5 234.252 841.9C234.452 845.4 234.552 847.9 229.252 847.9C173.152 847.7 117.052 847.7 60.9524 847.9C55.4524 847.9 55.7524 845.3 55.7524 841.6C55.7524 837.8 55.5524 835.3 60.9524 835.3C88.9524 835.7 116.952 835.5 144.952 835.5Z" fill="#FEFEFE"/>
<path d="M144.952 871.9C138.952 871.9 132.952 871.7 126.952 872C123.552 872.1 122.652 870.9 122.852 867.7C123.052 863 123.052 858.4 122.852 853.7C122.752 851.1 123.752 850.3 126.352 850.3C138.852 850.4 151.352 850.4 163.852 850.3C166.552 850.3 167.352 851.3 167.252 853.8C167.152 858.6 167.052 863.5 167.252 868.3C167.352 871.2 166.152 872 163.452 871.9C157.352 871.8 151.152 871.9 144.952 871.9Z" fill="#FEFEFE"/>
<path d="M182.452 484.6C210.652 484.6 238.752 484.7 266.952 484.5C271.152 484.5 272.352 485.6 272.152 489.7C271.852 497.3 271.752 505 272.152 512.7C272.352 517 270.952 517.9 266.852 517.9C215.852 517.8 164.852 517.8 113.952 517.8C108.152 517.8 102.252 517.7 96.452 517.9C93.652 518 92.752 517 92.752 514.2C92.852 505.9 93.052 497.5 92.752 489.2C92.652 485.3 94.0521 484.6 97.5521 484.6C125.852 484.7 154.152 484.6 182.452 484.6Z" fill="#FEFEFE"/>
<path d="M204.052 556.8C232.052 556.8 259.952 556.9 287.952 556.7C292.152 556.7 293.252 557.9 293.152 562C292.852 569.1 293.052 576.3 293.052 583.5C293.052 590.7 293.952 590 286.752 590C236.952 590 187.152 590 137.352 590C130.852 590 124.352 589.8 117.852 590.1C114.552 590.2 113.552 589 113.652 585.8C113.852 578 113.952 570.1 113.652 562.3C113.452 558 114.552 556.7 119.152 556.7C147.452 557 175.752 556.8 204.052 556.8Z" fill="#FEFEFE"/>
<path d="M222.952 553.6C194.952 553.6 166.952 553.5 138.952 553.7C134.452 553.7 133.352 552.4 133.452 548.1C133.752 540.6 133.752 533.1 133.452 525.6C133.252 521.5 134.352 520.1 138.652 520.2C151.852 520.5 164.952 520.3 178.152 520.3C221.352 520.3 264.452 520.4 307.652 520.2C311.652 520.2 313.252 521 312.952 525.4C312.552 532.7 312.552 540.1 312.952 547.4C313.252 552.2 312.152 553.8 306.852 553.8C278.952 553.5 250.952 553.6 222.952 553.6Z" fill="#FEFEFE"/>
<path d="M217.452 716C193.652 716 169.852 715.9 145.952 716.1C141.752 716.1 140.652 714.9 140.752 710.8C140.952 694.3 140.952 677.8 140.752 661.3C140.752 657.8 141.752 656.8 145.252 656.8C193.352 656.9 241.552 656.9 289.652 656.8C293.152 656.8 294.152 657.9 294.052 661.3C293.852 678 293.852 694.6 294.052 711.3C294.052 715 293.052 716.1 289.252 716.1C265.452 715.9 241.452 716 217.452 716Z" fill="#FEFEFE"/>
<path d="M217.552 777.5C193.552 777.5 169.552 777.4 145.652 777.6C141.852 777.6 140.852 776.6 140.952 772.8C141.152 756.1 141.152 739.5 140.952 722.8C140.952 719.3 141.952 718.4 145.452 718.4C193.552 718.5 241.752 718.5 289.852 718.4C293.352 718.4 294.352 719.3 294.352 722.9C294.152 739.6 294.152 756.2 294.352 772.9C294.352 776.7 293.252 777.6 289.552 777.6C265.452 777.4 241.452 777.5 217.552 777.5Z" fill="#FEFEFE"/>
<path d="M83.7523 682.6C91.5523 682.6 99.4523 682.7 107.252 682.5C110.252 682.4 111.352 683.2 111.152 686.4C109.952 702.7 108.852 718.9 107.752 735.2C106.852 747.8 105.852 760.4 105.152 773C104.952 776.4 103.952 777.6 100.452 777.5C89.1523 777.3 77.8523 777.3 66.4523 777.5C63.5523 777.5 62.3523 776.6 62.1523 773.6C60.5523 748.2 58.7523 722.8 56.9523 697.4C56.6523 693.7 56.4523 690.1 56.0523 686.5C55.6523 683.5 56.5523 682.4 59.7523 682.5C67.7523 682.8 75.7523 682.6 83.7523 682.6Z" fill="#FEFEFE"/>
<path d="M581.052 510.5C580.852 517 575.552 522 568.952 521.7C562.552 521.5 557.252 516 557.352 509.7C557.352 503.4 563.452 497.6 569.652 497.8C576.452 498.1 581.252 503.5 581.052 510.5Z" fill="#6DB5DE"/>
<path d="M651.253 373C651.153 375 650.153 376.2 648.153 376.2C646.453 376.2 645.253 375.2 645.153 373.5C644.953 371.5 646.153 370.2 648.053 370.1C649.753 369.9 651.053 370.9 651.253 373Z" fill="#100A09"/>
<path d="M676.052 387.7C674.152 387.7 672.352 387.5 671.852 385.2C671.552 384 671.952 382.9 672.952 382.1C674.752 380.7 676.352 381.6 677.852 382.8C678.352 384.9 677.752 386.5 676.052 387.7Z" fill="#0C0909"/>
<path d="M1026.75 179.3C1026.75 228.8 1026.65 278.2 1026.85 327.7C1026.85 332.3 1025.65 333.6 1021.05 333.6C958.252 333.4 895.452 333.5 832.652 333.6C828.152 333.6 826.752 332.5 826.752 327.8C826.852 228.5 826.852 129.2 826.752 30C826.752 25.5 827.952 24.5 832.252 24.5C895.252 24.6 958.152 24.7 1021.15 24.5C1025.85 24.5 1026.85 25.9 1026.85 30.4C1026.75 80 1026.75 129.6 1026.75 179.3Z" fill="#5D85B1"/>
<path d="M308.152 63.5C384.952 63.5 461.752 63.5 538.652 63.5C562.752 63.5 581.452 78.1 586.452 100.8C587.252 104.5 587.652 108.4 587.652 112.2C587.752 146.4 587.652 180.5 587.752 214.7C587.752 218.9 586.652 220 582.452 220C545.152 219.8 507.752 219.9 470.452 219.9C463.452 219.9 463.552 219.9 464.052 212.3C466.052 184.1 467.952 155.8 470.152 127.6C470.452 124 469.752 122.7 465.752 122.7C448.752 122.9 431.752 122.9 414.752 122.7C410.952 122.7 410.052 123.7 410.452 127.6C412.152 148.3 413.452 169.1 414.852 189.9C415.452 198.4 415.952 206.8 416.752 215.3C417.052 218.6 416.452 220 412.652 220C375.352 219.9 337.952 219.9 300.652 220C297.352 220 296.352 219 296.452 215.7C296.552 198.9 296.652 182 296.452 165.2C296.452 161.5 297.852 160.8 301.152 160.8C312.652 161 324.152 160.8 335.652 160.9C338.852 160.9 340.052 160.1 339.952 156.7C339.852 138.4 339.852 120 339.952 101.7C339.952 98.6 339.252 97.3 335.852 97.3C285.852 97.4 235.852 97.4 185.852 97.3C182.252 97.3 181.852 98.8 181.852 101.8C181.952 119.1 181.752 136.5 181.952 153.8C182.052 157.8 180.852 158.8 176.952 158.7C165.752 158.4 154.652 158.8 143.452 158.5C139.352 158.4 138.452 159.8 138.552 163.6C138.752 180.8 138.552 197.9 138.752 215.1C138.752 218.9 137.652 219.8 133.952 219.8C100.452 219.7 66.9525 219.6 33.4525 219.8C29.1525 219.8 28.7524 218.1 28.7524 214.6C28.8524 180.1 28.7524 145.6 28.8524 111.1C28.9524 84 49.3525 63.4 76.6525 63.4C127.452 63.3 178.352 63.4 229.152 63.4C255.552 63.5 281.852 63.5 308.152 63.5Z" fill="#FEFEFE"/>
<path d="M260.952 99.7C284.752 99.7 308.552 99.8 332.452 99.6C336.452 99.6 337.952 100.3 337.852 104.7C337.552 121 337.652 137.4 337.852 153.7C337.852 157.4 337.252 158.9 333.052 158.9C285.052 158.7 237.052 158.8 189.152 158.9C185.652 158.9 184.152 158.3 184.252 154.3C184.452 137.6 184.452 121 184.252 104.3C184.152 100.4 185.452 99.6 189.052 99.6C212.952 99.8 236.952 99.7 260.952 99.7Z" fill="#FEFEFE"/>
<path d="M218.052 160.9C241.852 160.9 265.652 161 289.452 160.8C293.252 160.8 294.252 161.8 294.152 165.6C293.952 182.2 293.952 198.9 294.152 215.6C294.152 219.2 293.052 220 289.652 220C241.552 219.9 193.452 219.9 145.252 220C141.752 220 140.752 219 140.752 215.5C140.952 198.9 140.952 182.2 140.752 165.5C140.752 161.7 141.752 160.8 145.452 160.8C169.752 161 193.852 160.9 218.052 160.9Z" fill="#FEFEFE"/>
<path d="M440.452 125C448.252 125 456.052 125.2 463.952 124.9C467.352 124.8 468.152 126 467.952 129.2C466.452 149.3 465.052 169.3 463.652 189.4C463.052 198 462.252 206.6 461.852 215.3C461.652 218.6 460.852 220 457.252 219.9C445.952 219.7 434.652 219.8 423.352 219.9C420.652 219.9 419.152 219.5 418.952 216.2C417.052 187.8 415.152 159.5 412.952 131.1C412.552 125.9 413.952 124.5 419.052 124.8C426.152 125.3 433.352 125 440.452 125Z" fill="#FEFEFE"/>
<path d="M274.152 686.8C274.552 689.8 272.652 690.2 270.452 689.9C265.452 689.2 262.952 690.7 263.952 696.2C264.452 699 263.052 699.9 260.252 699.9C257.452 699.9 256.652 698.6 257.052 696.2C257.752 691.5 256.452 688.8 251.052 689.8C248.852 690.2 247.652 689.3 247.652 686.8C247.652 684.5 248.152 682.6 250.852 683C256.552 683.9 257.652 681.1 257.052 676.3C256.652 673.6 258.352 672.9 260.752 672.9C262.952 672.9 264.452 673.7 264.052 676.1C262.952 682 265.552 683.7 271.052 683C273.552 682.7 274.552 684.3 274.152 686.8Z" fill="#5C85B0"/>
<path d="M260.453 761.4C256.753 761.8 256.753 759.2 257.053 756.9C257.653 752.6 256.153 750.7 251.653 751.5C249.153 751.9 247.653 751.2 247.553 748.1C247.553 745.1 248.953 744.2 251.453 744.7C256.353 745.6 257.453 743.2 256.953 738.9C256.553 736.2 257.153 734.6 260.553 734.6C264.253 734.6 264.153 736.8 263.853 739.2C263.153 743.9 265.153 745.3 269.553 744.8C271.753 744.5 274.153 744.1 274.253 747.9C274.253 751.8 272.053 751.9 269.453 751.5C264.753 750.8 263.253 752.8 263.853 757.2C264.353 759.7 263.853 761.9 260.453 761.4Z" fill="#5D86B1"/>
<path d="M829.052 179C829.052 130.2 829.052 81.4 828.952 32.6C828.952 28.4 829.552 26.7 834.452 26.7C895.952 26.9 957.352 26.9 1018.85 26.7C1023.35 26.7 1024.35 27.9 1024.35 32.2C1024.25 130 1024.25 227.8 1024.35 325.6C1024.35 330.1 1023.05 331.1 1018.75 331.1C957.252 331 895.852 331 834.352 331.1C829.752 331.1 828.952 329.7 828.952 325.5C829.052 276.6 829.052 227.8 829.052 179Z" fill="#FEFEFE"/>
<path d="M303.752 115.8C306.852 115.2 307.552 117.1 307.152 119.6C306.352 124.6 308.152 126.7 313.252 125.8C315.652 125.4 317.852 125.6 317.852 129.2C317.952 132.6 315.952 133 313.452 132.7C308.552 132 306.252 133.6 307.252 138.8C307.752 141.3 306.852 142.8 303.752 142.7C300.752 142.7 300.452 140.9 300.752 138.8C301.652 133.6 299.452 131.9 294.552 132.7C292.152 133.1 290.952 132.2 290.952 129.4C290.952 126.5 291.952 125.3 294.752 125.8C299.952 126.7 301.552 124.5 300.852 119.6C300.452 117.5 300.652 115.4 303.752 115.8Z" fill="#5C85B0"/>
<path d="M260.552 177C264.052 176.5 264.352 178.8 263.952 181.4C263.252 186 265.052 187.7 269.652 187C272.352 186.6 274.452 186.9 274.352 190.7C274.252 194.6 271.652 194 269.552 193.7C264.852 193.1 263.352 195 263.952 199.4C264.252 201.8 264.252 203.9 260.552 203.9C257.052 203.9 256.552 202.1 257.052 199.6C257.852 194.6 255.752 193 251.052 193.8C248.452 194.2 247.552 192.9 247.652 190.4C247.652 187.8 248.652 186.6 251.152 187C256.052 187.8 257.752 185.9 257.052 181.1C256.652 178.6 257.352 176.7 260.552 177Z" fill="#5D86B1"/>
<path d="M272.152 687.1C271.152 687.3 270.552 687.6 269.952 687.6C267.552 687.9 264.552 686.6 262.752 688.2C260.752 689.9 262.252 692.9 261.952 695.3C261.852 696.2 262.052 697.5 260.552 697.4C259.552 697.3 259.452 696.3 259.452 695.5C259.452 695.2 259.352 694.8 259.452 694.5C260.552 688.6 257.952 686.7 252.452 687.6C251.752 687.7 250.752 687.7 250.252 686.4C251.352 684.9 253.152 685.3 254.552 685.5C258.552 686 260.052 684.3 259.552 680.4C259.352 679.3 259.552 678.1 259.652 676.9C259.752 676.2 260.152 675.6 260.952 675.7C261.752 675.8 262.152 676.4 262.052 677.1C260.352 685.4 265.352 686.1 271.552 685.8C271.452 685.8 271.552 686.3 272.152 687.1Z" fill="#F3F5F8"/>
<path d="M272.653 747.9C271.353 748.5 270.953 748.9 270.553 748.8C264.553 748.1 260.353 749.2 261.853 756.7C262.053 757.5 261.753 758.5 260.753 758.6C259.753 758.7 259.453 757.7 259.453 756.9C259.353 755.9 259.253 754.9 259.453 753.9C259.953 750 258.453 748.4 254.453 748.9C253.053 749.1 251.553 749.3 250.053 748C251.453 746 253.453 746.6 254.953 746.8C258.453 747.1 259.753 745.8 259.453 742.3C259.353 740.5 258.553 738.3 260.853 736.8C262.753 738.6 261.953 740.9 261.853 742.8C261.753 745.8 262.653 747 265.753 746.8C267.753 746.6 269.853 746.2 272.653 747.9Z" fill="#F2F5F8"/>
<path d="M852.653 142.9C901.953 142.9 951.253 142.9 1000.45 142.9C1000.45 143.3 1000.45 143.6 1000.45 144C951.153 144 901.853 144 852.553 144C852.653 143.6 852.653 143.3 852.653 142.9Z" fill="#5882AE"/>
<path d="M852.553 84.8C901.853 84.8 951.153 84.8 1000.95 84.8C997.753 87.1 857.353 87.5 852.553 84.8Z" fill="#5882AE"/>
<path d="M1000.45 114C995.453 116.3 855.753 116 851.553 114C901.953 114 951.153 114 1000.45 114Z" fill="#5882AE"/>
<path d="M997.953 285.6C997.953 296.5 989.553 304.9 978.753 305C967.553 305.1 958.853 296.6 958.853 285.6C958.853 274.9 968.053 265.7 978.653 265.9C989.453 266.2 997.953 274.9 997.953 285.6Z" fill="#5C85B1"/>
<path d="M852.553 175.8C879.853 175.8 907.053 175.8 934.353 175.8C934.353 176.2 934.353 176.6 934.353 177C907.053 177 879.753 177 852.553 177C852.553 176.6 852.553 176.2 852.553 175.8Z" fill="#5882AE"/>
<path d="M293.452 129.2C294.452 127.1 296.352 127.7 297.752 127.9C302.052 128.4 303.352 126.6 302.852 122.6C302.652 121.2 302.352 119.6 303.652 118.1C305.852 119.4 304.952 121.7 304.852 123.3C304.652 126.7 305.652 128.4 309.252 127.8C309.752 127.7 310.252 127.7 310.752 127.8C312.252 128.1 314.952 126.9 314.952 129C315.052 131.2 312.252 130.4 310.852 130.3C306.052 129.7 304.152 131.6 304.852 136.4C305.052 137.6 305.152 139 303.952 140.3C301.952 138.7 302.752 136.6 302.852 134.9C303.052 131.5 301.952 130.1 298.352 130.3C296.852 130.5 294.852 131.2 293.452 129.2Z" fill="#F3F6F9"/>
<path d="M272.053 191C271.353 191.3 270.853 191.6 270.453 191.6C267.853 192 264.753 190.6 262.753 192.3C260.853 193.9 262.253 197 261.953 199.4C261.853 200.2 262.053 201.2 260.953 201.3C259.853 201.4 259.453 200.4 259.553 199.7C261.153 191.9 256.653 190.5 250.353 191.6C250.353 189 251.853 189.3 252.753 189.5C257.753 190.2 260.353 188.6 259.353 183.1C259.253 182.5 259.253 181.7 259.453 181.1C259.653 180.6 260.153 179.8 260.553 179.7C261.253 179.5 261.853 180.3 261.753 180.9C259.953 189.2 264.953 190.1 271.153 189.7C271.353 189.8 271.553 190.3 272.053 191Z" fill="#F2F5F8"/>
<path d="M978.752 268.5C988.152 268.6 995.952 276.5 995.852 285.7C995.652 295.2 987.952 302.7 978.552 302.7C969.152 302.7 961.252 295 961.252 285.7C961.152 276.2 968.952 268.5 978.752 268.5Z" fill="#FEFEFE"/>
</svg>
