<svg width="599" height="442" viewBox="0 0 599 442" fill="none" xmlns="http://www.w3.org/2000/svg">
<path opacity="0.1" d="M40.1391 173.241H92.1129V244.1H43.9393C43.8164 244.832 43.6935 245.56 43.5552 246.292H92.1129V303.428C92.0309 303.428 91.949 303.366 91.8722 303.336C90.5064 302.793 89.1407 302.217 87.7749 301.609C87.483 301.476 87.1962 301.338 86.8991 301.21C85.5334 300.564 84.1676 299.881 82.8018 299.161C82.3255 298.91 81.8492 298.649 81.3832 298.382C73.801 294.151 66.9098 288.785 60.9481 282.472C60.7688 282.303 60.6049 282.118 60.4359 281.96C59.6062 281.058 58.7919 280.146 58.0032 279.214C57.7061 278.871 57.4193 278.522 57.1274 278.189C56.1953 277.052 55.2939 275.874 54.4232 274.691C54.29 274.512 54.1671 274.337 54.0391 274.179C50.4724 269.242 47.5146 263.893 45.23 258.248C45.1583 258.079 45.0917 257.894 45.0251 257.736C44.3183 255.943 43.6781 254.124 43.125 252.27C42.8894 251.496 42.6589 250.733 42.4643 249.929C42.3926 249.698 42.3363 249.463 42.2748 249.232C39.3965 237.886 39.0636 226.094 39.0636 214.359C39.0636 212.993 39.0636 211.627 39.0636 210.261C39.1046 205.47 39.1609 200.684 39.2326 195.903C39.2599 194.673 39.2855 193.439 39.3094 192.199C39.3811 189.061 39.4836 185.916 39.6167 182.764C39.6475 181.893 39.6884 181.017 39.7345 180.151C39.755 179.649 39.7806 179.147 39.8114 178.645C39.9035 176.832 40.0128 175.03 40.1391 173.241Z" fill="#1E90FF"/>
<path opacity="0.1" d="M92.1128 94.3451H63.601C68.2378 87.0943 73.3017 80.1257 78.7659 73.4763C83.0066 68.2719 87.4726 63.2007 92.1128 58.3139V94.3451Z" fill="#1E90FF"/>
<path opacity="0.1" d="M92.1128 96.5273V171.049H40.303C40.303 170.833 40.3337 170.613 40.3542 170.398C40.4003 169.809 40.4464 169.225 40.4976 168.636C40.5488 167.949 40.6154 167.263 40.682 166.587C40.7486 165.911 40.8151 165.091 40.8971 164.348C40.979 163.606 41.0456 162.853 41.1276 162.11C41.2095 161.367 41.2914 160.624 41.3836 159.887C41.4758 159.149 41.5578 158.401 41.6602 157.664C41.737 157.054 41.8138 156.439 41.9009 155.825C42.0187 154.959 42.1416 154.093 42.2697 153.233C42.2697 153.099 42.3106 152.971 42.3311 152.843C43.2672 146.544 44.5391 140.3 46.1416 134.136C47.8244 127.672 49.9725 121.338 52.5691 115.183C55.3283 108.735 58.5603 102.499 62.2387 96.5273H92.1128Z" fill="#1E90FF"/>
<path opacity="0.1" d="M104.527 173.241V244.1H215.543V173.241H104.527ZM104.527 246.292V307.147C105.163 307.275 105.787 307.403 106.417 307.51C107.262 307.674 108.113 307.823 108.978 307.951L109.49 308.023C109.828 308.079 110.171 308.125 110.515 308.166C111.37 308.289 112.225 308.381 113.075 308.463C113.475 308.504 113.89 308.535 114.294 308.571L115.283 308.642C115.821 308.683 116.353 308.714 116.886 308.735C117.214 308.735 117.541 308.76 117.874 308.77C118.207 308.781 118.386 308.77 118.653 308.77H119.621C120.061 308.77 120.502 308.77 120.937 308.77H121.5C121.941 308.77 122.381 308.77 122.817 308.729H122.842C123.15 308.729 123.452 308.729 123.759 308.694C123.846 308.699 123.933 308.699 124.02 308.694C124.276 308.694 124.532 308.694 124.778 308.663C124.836 308.658 124.894 308.658 124.952 308.663C125.521 308.627 126.094 308.581 126.673 308.53C127.252 308.478 127.8 308.417 128.379 308.356L129.541 308.212C134.292 307.547 138.99 306.547 143.6 305.221C153.961 302.332 164.086 298.29 174.442 295.334C187.82 291.518 202.611 289.638 215.538 294.284V246.292H104.527ZM215.543 94.3451V0.0102521C203.39 -0.12348 191.27 1.29669 179.477 4.23627C151.364 11.3001 126.12 26.6213 104.527 46.1891V94.34H110.115V96.5273H104.527V171.049H215.543V96.5273H132.973V94.3349L215.543 94.3451ZM358.168 62.4784C351.213 62.2325 344.299 60.035 338.041 56.6286C326.087 50.1282 316.53 40.078 305.857 31.6055C283.68 13.9484 256.177 3.28861 227.963 0.645435V94.3451H386.429L386.824 93.9302L358.168 62.4784ZM372.606 59.9172L387.914 76.7239V55.4965C382.762 56.1471 378.276 57.6582 372.606 59.8967V59.9172ZM387.914 322.258V246.292H355.269C355.188 245.969 355.095 245.642 354.993 245.314C355.09 245.642 355.177 245.969 355.264 246.292H227.963V301.225C229.171 302.122 230.365 303.069 231.548 304.022C232.825 305.067 234.093 306.124 235.353 307.193L236.623 308.243C237.233 308.755 237.852 309.267 238.467 309.754C239.699 310.748 240.941 311.731 242.19 312.704C242.815 313.196 243.443 313.679 244.075 314.154C254.079 321.801 264.63 328.702 275.644 334.803C278.113 336.181 280.607 337.507 283.117 338.803C284.786 339.664 286.468 340.507 288.161 341.334C290.702 342.573 293.263 343.769 295.844 344.919C319.642 355.604 344.807 362.934 370.619 366.7C376.348 367.544 382.103 368.21 387.884 368.698V322.248H388.396L387.914 322.258ZM227.963 96.5273V171.049H387.914V96.5273H227.963ZM227.963 173.231V244.1H387.914V173.241L227.963 173.231ZM400.329 55.3941V79.111L419.863 57.6633C413.389 56.5944 406.878 55.838 400.329 55.3941ZM400.329 173.241V244.1H555.897V173.241H400.329ZM555.349 327.877L555.897 246.292H400.329V369.523C410.35 369.939 420.385 369.818 430.393 369.159H430.567C435.347 368.852 440.105 368.414 444.841 367.848H444.948C470.221 364.905 494.931 358.303 518.305 348.249L555.349 327.877ZM585.909 184.879C585.319 183.513 584.713 182.147 584.091 180.781C582.934 178.22 581.715 175.73 580.455 173.246H568.317V244.1H599C598.974 224.03 593.894 203.54 585.909 184.879ZM568.317 246.292V316.469C576.957 308.186 584.265 298.705 589.52 287.866C595.845 274.809 598.739 260.681 598.98 246.287L568.317 246.292ZM568.317 152.592V171.033H579.318C575.983 164.694 572.311 158.538 568.317 152.592ZM462.812 69.3015C462.003 68.989 461.189 68.6766 460.374 68.3795C451.788 65.2057 443.014 62.5677 434.101 60.4807L404.201 93.295L403.617 93.9251L404.001 94.34H510.417C495.595 84.1392 479.615 75.7343 462.812 69.3015ZM513.541 96.5273H402.511L400.329 98.5199V171.049H419.458H555.897V135.909C543.56 120.987 529.32 107.747 513.541 96.5273Z" fill="#1E90FF"/>
<path opacity="0.1" d="M92.1128 134.121V171.049H40.303C40.303 170.833 40.3337 170.613 40.3542 170.398C40.4003 169.809 40.4464 169.225 40.4976 168.636C40.5488 167.949 40.6154 167.263 40.682 166.587C40.7486 165.911 40.8151 165.091 40.8971 164.348C40.979 163.606 41.0456 162.853 41.1276 162.11C41.2095 161.367 41.2914 160.624 41.3836 159.887C41.4758 159.149 41.5578 158.401 41.6602 157.664C41.737 157.054 41.8138 156.439 41.9009 155.825C42.0187 154.959 42.1416 154.093 42.2697 153.233C42.2697 153.099 42.3106 152.971 42.3311 152.843C43.2672 146.544 44.5391 140.3 46.1416 134.136L92.1128 134.121Z" fill="#1E90FF"/>
<path opacity="0.1" d="M40.1391 173.241H92.1129V244.1H43.9393C43.8164 244.832 43.6935 245.56 43.5552 246.292H92.1129V303.428C92.0309 303.428 91.949 303.366 91.8722 303.336C90.5064 302.793 89.1407 302.217 87.7749 301.609C87.483 301.476 87.1962 301.338 86.8991 301.21C85.5334 300.564 84.1676 299.881 82.8018 299.161C82.3255 298.91 81.8492 298.649 81.3832 298.382C73.801 294.151 66.9098 288.785 60.9481 282.472C60.7688 282.303 60.6049 282.118 60.4359 281.96C59.6062 281.058 58.7919 280.146 58.0032 279.214C57.7061 278.871 57.4193 278.522 57.1274 278.189C56.1953 277.052 55.2939 275.874 54.4232 274.691C54.29 274.512 54.1671 274.337 54.0391 274.179C50.4724 269.242 47.5146 263.893 45.23 258.248C45.1583 258.079 45.0917 257.894 45.0251 257.736C44.3183 255.943 43.6781 254.124 43.125 252.27C42.8894 251.496 42.6589 250.733 42.4643 249.929C42.3926 249.698 42.3363 249.463 42.2748 249.232C39.3965 237.886 39.0636 226.094 39.0636 214.359C39.0636 212.993 39.0636 211.627 39.0636 210.261C39.1046 205.47 39.1609 200.684 39.2326 195.903C39.2599 194.673 39.2855 193.439 39.3094 192.199C39.3811 189.061 39.4836 185.916 39.6167 182.764C39.6475 181.893 39.6884 181.017 39.7345 180.151C39.755 179.649 39.7806 179.147 39.8114 178.645C39.9035 176.832 40.0128 175.03 40.1391 173.241Z" fill="#1E90FF"/>
<path opacity="0.1" d="M143.605 107.202V171.049H104.522V107.202H110.095V85.5857H132.968V107.202H143.605Z" fill="#1E90FF"/>
<path opacity="0.1" d="M143.6 173.236H104.522V244.095H143.6V173.236Z" fill="#1E90FF"/>
<path opacity="0.1" d="M104.527 246.292H143.605V305.2C138.995 306.527 134.297 307.525 129.546 308.186C129.157 308.243 128.773 308.289 128.384 308.33C127.81 308.396 127.242 308.458 126.673 308.509L124.957 308.647H124.783L124.025 308.688H123.764C123.457 308.688 123.155 308.724 122.847 308.729H122.822C122.381 308.729 121.946 308.76 121.505 308.77H120.942C120.507 308.77 120.071 308.77 119.626 308.77H118.663H117.879C117.547 308.77 117.219 308.77 116.886 308.729C116.36 308.709 115.827 308.678 115.288 308.637L114.299 308.566C113.89 308.535 113.48 308.494 113.075 308.453C112.215 308.378 111.361 308.28 110.515 308.161L109.49 308.017L108.978 307.946C108.123 307.818 107.273 307.674 106.417 307.51C105.782 307.398 105.157 307.27 104.527 307.136V246.292Z" fill="#1E90FF"/>
<path opacity="0.1" d="M387.909 99.6622H355.684V171.043H387.909V99.6622Z" fill="#1E90FF"/>
<path opacity="0.1" d="M387.914 173.236V244.1H227.963V213.534H313.16V231.565H355.684V173.236H387.914Z" fill="#1E90FF"/>
<path opacity="0.1" d="M388.421 322.273C388.252 322.273 388.083 322.273 387.909 322.242V368.729C382.136 368.254 376.382 367.59 370.65 366.736C344.828 362.971 319.654 355.645 295.844 344.966C288.971 341.865 282.238 338.486 275.644 334.828C264.634 328.725 254.084 321.823 244.08 314.18C241.56 312.254 239.078 310.285 236.633 308.274C234.938 306.87 233.258 305.436 231.548 304.048C230.37 303.09 229.176 302.142 227.963 301.24V246.292H355.264C355.172 245.964 355.09 245.641 354.998 245.314C355.095 245.641 355.188 245.964 355.269 246.292H387.914V322.237C388.083 322.242 388.252 322.258 388.421 322.273Z" fill="#1E90FF"/>
<path opacity="0.1" d="M471.959 94.3451H450.961V87.8191H460.369V68.3795C461.185 68.68 461.998 68.9873 462.807 69.3015V87.8191H471.954L471.959 94.3451Z" fill="#1E90FF"/>
<path opacity="0.1" d="M522.555 171.049H419.458C419.468 171.051 419.479 171.051 419.489 171.049H419.443H400.329V99.6673H405.748V152.428H430.505V121.182H450.966V96.5273H471.965V121.197H492.415V152.444H522.561L522.555 171.049Z" fill="#1E90FF"/>
<path opacity="0.1" d="M400.329 173.241V244.1H522.561V173.241H400.329ZM555.723 327.503L555.897 271.413H522.561V246.313H400.329V369.523C410.35 369.939 420.385 369.818 430.393 369.159H430.567C435.347 368.852 440.105 368.414 444.841 367.848H444.948C470.221 364.905 494.931 358.303 518.305 348.249" fill="#1E90FF"/>
<path opacity="0.1" d="M570.468 246.292H598.979C598.734 260.681 595.845 274.814 589.52 287.866C584.265 298.71 576.957 308.192 568.317 316.475V271.397H570.468V246.292Z" fill="#1E90FF"/>
<path opacity="0.1" d="M599 244.1H570.468V184.879H585.909C593.894 203.54 598.975 224.03 599 244.1Z" fill="#1E90FF"/>
<path opacity="0.1" d="M387.914 119.507H370.65V141.886H387.914V119.507Z" fill="#1E90FF"/>
<path opacity="0.1" d="M387.914 165.895H370.65V171.049H387.914V165.895Z" fill="#1E90FF"/>
<path opacity="0.1" d="M387.914 173.236H370.65V188.27H387.914V173.236Z" fill="#1E90FF"/>
<path opacity="0.1" d="M387.914 212.284H370.65V234.664H387.914V212.284Z" fill="#1E90FF"/>
<path opacity="0.1" d="M387.914 258.673H370.65V281.053H387.914V258.673Z" fill="#1E90FF"/>
<path opacity="0.1" d="M387.914 322.237C388.083 322.237 388.252 322.237 388.427 322.273C388.258 322.273 388.088 322.273 387.914 322.242V327.442H370.65V305.062H387.914V322.237Z" fill="#1E90FF"/>
<path opacity="0.1" d="M387.914 351.445V368.729C382.137 368.254 376.382 367.59 370.65 366.736V351.445H387.914Z" fill="#1E90FF"/>
<path opacity="0.1" d="M301.954 242.455H227.963V244.1H301.954V242.455Z" fill="#1E90FF"/>
<path opacity="0.1" d="M301.954 246.287H227.963V252.588H301.954V246.287Z" fill="#1E90FF"/>
<path opacity="0.1" d="M301.954 273.241H227.963V283.373H301.954V273.241Z" fill="#1E90FF"/>
<path opacity="0.1" d="M301.954 304.027V314.159H244.08C241.56 312.24 239.078 310.27 236.633 308.248C234.933 306.85 233.253 305.415 231.548 304.027H301.954Z" fill="#1E90FF"/>
<path opacity="0.1" d="M301.954 334.808V344.966H295.844C288.971 341.865 282.238 338.486 275.644 334.828L301.954 334.808Z" fill="#1E90FF"/>
<path opacity="0.1" d="M444.958 180.105H430.393V194.673H444.958V180.105Z" fill="#1E90FF"/>
<path opacity="0.1" d="M129.582 112.228H115.016V126.796H129.582V112.228Z" fill="#1E90FF"/>
<path opacity="0.1" d="M129.582 146.066H115.016V160.635H129.582V146.066Z" fill="#1E90FF"/>
<path opacity="0.1" d="M129.582 179.905H115.016V194.473H129.582V179.905Z" fill="#1E90FF"/>
<path opacity="0.1" d="M129.582 213.739H115.016V228.307H129.582V213.739Z" fill="#1E90FF"/>
<path opacity="0.1" d="M129.582 247.578H115.016V262.146H129.582V247.578Z" fill="#1E90FF"/>
<path opacity="0.1" d="M129.582 281.417H115.016V295.985H129.582V281.417Z" fill="#1E90FF"/>
<path opacity="0.1" d="M500.563 180.105H485.998V194.673H500.563V180.105Z" fill="#1E90FF"/>
<path opacity="0.1" d="M444.958 216.039H430.393V230.607H444.958V216.039Z" fill="#1E90FF"/>
<path opacity="0.1" d="M500.563 216.039H485.998V230.607H500.563V216.039Z" fill="#1E90FF"/>
<path opacity="0.1" d="M444.958 251.968H430.393V266.536H444.958V251.968Z" fill="#1E90FF"/>
<path opacity="0.1" d="M500.563 251.968H485.998V266.536H500.563V251.968Z" fill="#1E90FF"/>
<path opacity="0.1" d="M444.958 287.902H430.393V302.47H444.958V287.902Z" fill="#1E90FF"/>
<path opacity="0.1" d="M500.563 287.902H485.998V302.47H500.563V287.902Z" fill="#1E90FF"/>
<path opacity="0.1" d="M444.958 323.836H430.393V338.404H444.958V323.836Z" fill="#1E90FF"/>
<path opacity="0.1" d="M500.563 323.836H485.998V338.404H500.563V323.836Z" fill="#1E90FF"/>
<path opacity="0.1" d="M430.393 369.159V359.764H444.953V367.822L430.393 369.159Z" fill="#1E90FF"/>
<path opacity="0.1" d="M42.2697 152.828V161.162H92.1128V152.828H42.2697ZM47.2325 160.64H43.1352V153.356H47.2325V160.64ZM52.1953 160.64H48.098V153.356H52.1953V160.64ZM57.1478 160.64H53.0506V153.356H57.1478V160.64ZM62.1106 160.64H58.0134V153.356H62.1106V160.64ZM67.0683 160.64H62.971V153.356H67.0683V160.64ZM72.0311 160.64H67.9339V153.356H72.0311V160.64ZM76.9939 160.64H72.8967V153.356H76.9939V160.64ZM81.9516 160.64H77.8543V153.356H81.9516V160.64ZM86.9093 160.64H82.812V153.356H86.9093V160.64ZM91.8721 160.64H87.7748V153.356H91.8721V160.64Z" fill="#1E90FF"/>
<path opacity="0.1" d="M42.2697 177.088V185.422H92.1128V177.088H42.2697ZM47.2325 184.9H43.1352V177.616H47.2325V184.9ZM52.1953 184.9H48.098V177.616H52.1953V184.9ZM57.1478 184.9H53.0506V177.616H57.1478V184.9ZM62.1106 184.9H58.0134V177.616H62.1106V184.9ZM67.0683 184.9H62.971V177.616H67.0683V184.9ZM72.0311 184.9H67.9339V177.616H72.0311V184.9ZM76.9939 184.9H72.8967V177.616H76.9939V184.9ZM81.9516 184.9H77.8543V177.616H81.9516V184.9ZM86.9093 184.9H82.812V177.616H86.9093V184.9ZM91.8721 184.9H87.7748V177.616H91.8721V184.9Z" fill="#1E90FF"/>
<path opacity="0.1" d="M42.2697 201.353V209.682H92.1128V201.353H42.2697ZM47.2325 209.154H43.1352V201.87H47.2325V209.154ZM52.1953 209.154H48.098V201.87H52.1953V209.154ZM57.1478 209.154H53.0506V201.87H57.1478V209.154ZM62.1106 209.154H58.0134V201.87H62.1106V209.154ZM67.0683 209.154H62.971V201.87H67.0683V209.154ZM72.0311 209.154H67.9339V201.87H72.0311V209.154ZM76.9939 209.154H72.8967V201.87H76.9939V209.154ZM81.9516 209.154H77.8543V201.87H81.9516V209.154ZM86.9093 209.154H82.812V201.87H86.9093V209.154ZM91.8721 209.154H87.7748V201.87H91.8721V209.154Z" fill="#1E90FF"/>
<path opacity="0.1" d="M42.2697 225.613V233.942H92.1128V225.613H42.2697ZM47.2325 233.419H43.1352V226.125H47.2325V233.419ZM52.1953 233.419H48.098V226.125H52.1953V233.419ZM57.1478 233.419H53.0506V226.125H57.1478V233.419ZM62.1106 233.419H58.0134V226.125H62.1106V233.419ZM67.0683 233.419H62.971V226.125H67.0683V233.419ZM72.0311 233.419H67.9339V226.125H72.0311V233.419ZM76.9939 233.419H72.8967V226.125H76.9939V233.419ZM81.9516 233.419H77.8543V226.125H81.9516V233.419ZM86.9093 233.419H82.812V226.125H86.9093V233.419ZM91.8721 233.419H87.7748V226.125H91.8721V233.419Z" fill="#1E90FF"/>
<path opacity="0.1" d="M42.5104 249.862C42.705 250.651 42.9355 251.43 43.1711 252.203V250.39H47.2683V257.669H45.0712C45.1326 257.843 45.1992 258.022 45.2709 258.181H92.1333V249.862H42.5104ZM52.2414 257.669H48.1441V250.39H52.2414V257.669ZM57.1939 257.669H53.0967V250.39H57.1939V257.669ZM62.1567 257.669H58.0595V250.39H62.1567V257.669ZM67.1144 257.669H63.0171V250.39H67.1144V257.669ZM72.0772 257.669H67.98V250.39H72.0772V257.669ZM77.04 257.669H72.9428V250.39H77.04V257.669ZM81.9977 257.669H77.9004V250.39H81.9977V257.669ZM86.9554 257.669H82.8581V250.39H86.9554V257.669ZM91.9182 257.669H87.8209V250.39H91.9182V257.669Z" fill="#1E90FF"/>
<path opacity="0.1" d="M54.0544 274.122C54.1876 274.286 54.3105 274.471 54.4386 274.635H57.1479V278.133L58.0237 279.158V274.614H62.1209V281.96H60.4359C60.5998 282.129 60.7586 282.308 60.9481 282.472H92.1026V274.122H54.0544ZM67.094 281.96H62.9967V274.645H67.094V281.96ZM72.0568 281.96H67.9595V274.645H72.0568V281.96ZM77.0196 281.96H72.9223V274.645H77.0196V281.96ZM81.9773 281.96H77.88V274.645H81.9773V281.96ZM86.9349 281.96H82.8377V274.645H86.9349V281.96ZM91.8977 281.96H87.8005V274.645H91.8977V281.96Z" fill="#1E90FF"/>
<path opacity="0.1" d="M81.3984 298.382C81.8696 298.649 82.3459 298.894 82.8222 299.156V298.9H86.9195V301.21C87.2166 301.338 87.4982 301.476 87.7902 301.609V298.9H91.8874V303.336C91.9653 303.371 92.0458 303.4 92.1282 303.423V298.382H81.3984Z" fill="#1E90FF"/>
<path opacity="0.1" d="M387.909 322.237H388.421H387.909ZM354.993 245.314C355.09 245.641 355.177 245.969 355.264 246.292C355.188 245.969 355.095 245.641 354.993 245.314ZM110.115 94.3451V96.5273H132.993V94.3349L110.115 94.3451ZM387.914 322.237H388.427H387.914ZM354.993 245.314C355.09 245.641 355.177 245.969 355.264 246.292C355.188 245.969 355.095 245.641 354.993 245.314ZM387.909 322.237H388.421H387.909ZM354.993 245.314C355.09 245.641 355.177 245.969 355.264 246.292C355.188 245.969 355.095 245.641 354.993 245.314Z" fill="#1E90FF"/>
<path opacity="0.1" d="M451.407 442C478.968 442 501.311 438.411 501.311 433.983C501.311 429.556 478.968 425.967 451.407 425.967C423.845 425.967 401.502 429.556 401.502 433.983C401.502 438.411 423.845 442 451.407 442Z" fill="#1E90FF"/>
<path opacity="0.1" d="M226.334 433.983C253.895 433.983 276.238 430.394 276.238 425.967C276.238 421.539 253.895 417.95 226.334 417.95C198.772 417.95 176.429 421.539 176.429 425.967C176.429 430.394 198.772 433.983 226.334 433.983Z" fill="#1E90FF"/>
<path d="M283.788 213.99C283.775 213.939 283.749 213.893 283.711 213.857C282.948 213.104 273.217 199.34 273.217 199.34C273.217 199.34 272.705 197.803 271.875 195.805C272.141 195.461 272.341 195.07 272.464 194.653C272.509 194.476 272.541 194.296 272.561 194.115C272.561 194.059 272.602 194.012 272.617 193.956C272.795 193.261 272.778 192.531 272.566 191.846C272.509 192.021 272.439 192.193 272.356 192.358C272.164 191.761 271.906 191.187 271.588 190.647C270.297 188.424 268.454 186.549 267.096 184.382C265.041 181.016 264.224 177.038 264.787 173.133C264.787 173.333 264.787 173.538 264.787 173.738C264.838 172.963 264.941 172.193 265.094 171.433C265.308 170.567 265.594 169.72 265.949 168.902C267.168 166.11 269.14 163.677 270.338 160.875C270.741 159.93 271.046 158.947 271.25 157.94C271.672 156.259 271.826 154.521 271.706 152.792C271.706 153.202 271.639 153.612 271.578 154.016C271.448 149.859 269.769 145.899 266.871 142.916C262.687 138.711 256.679 137.077 250.933 136.216C248.518 135.934 246.212 135.054 244.223 133.655C242.016 132.226 239.163 131.882 236.582 132.195C233.615 132.516 230.859 133.879 228.802 136.042C226.073 139.044 224.89 143.295 221.704 145.826C219.773 147.362 217.325 148.079 215.077 149.124C212.828 150.169 210.703 151.686 209.981 153.929C209.981 153.929 209.981 153.899 209.981 153.883V154.011L209.95 154.093C209.202 156.747 210.646 159.446 211.399 162.094C212.183 164.835 212.234 167.729 212.275 170.562C212.331 174.025 212.383 177.493 212.326 180.96C212.301 182.323 212.255 183.701 212.152 185.058C210.94 185.425 209.763 185.898 208.634 186.472C207.486 187.22 203.195 191.856 203.195 191.856L194.8 223.933L194.913 224.061L194.8 224.496L195.225 224.399C196.414 225.679 199.963 229.327 203.794 231.601L204.152 237.891C204.152 237.891 204.582 244.202 210.385 246.809C210.518 248.997 210.933 257.879 209.013 261.398C207.683 263.969 207.057 266.846 207.2 269.737C207.2 269.737 207.871 275.075 207.107 277.882C206.662 279.758 206.628 281.709 207.01 283.599C207.01 283.599 207.01 284.219 207.01 285.284C207.01 290.965 207.077 309.17 207.01 311.229C206.913 313.662 207.01 349.648 207.01 349.648C207.01 349.648 206.534 367.632 205.008 372.504C203.481 377.375 203.865 393.506 203.865 393.506C203.865 393.506 202.908 412.72 206.293 416.511C206.293 416.68 206.262 416.854 206.257 417.023C206.257 417.1 206.257 417.187 206.257 417.264C206.216 418.724 206.498 420.276 207.753 420.752C210.314 421.736 213.699 424.686 214.339 425.531C214.979 426.377 218.703 428.482 223.558 427.918C226.599 427.576 229.66 427.436 232.72 427.498C232.72 427.498 234.636 427.15 234.016 424.768C233.617 423.283 232.121 420.998 231.056 419.497C231.251 419.548 231.44 419.589 231.619 419.625L231.804 419.661H231.947C232.026 419.666 232.104 419.666 232.183 419.661H232.285C232.381 419.669 232.476 419.669 232.572 419.661C233.857 419.538 238.651 421.771 239.507 423.247C240.362 424.722 243.378 425.844 245.652 426.126C247.004 426.29 250.415 426.013 253.278 425.644C254.72 425.495 256.148 425.235 257.55 424.865C258.226 424.609 258.369 423.79 258.175 422.868C257.945 421.697 257.319 420.64 256.403 419.876C255.573 419.287 254.477 417.735 253.668 416.465L253.453 416.121C254.881 414.759 257.463 410.302 258.246 409.38C259.199 408.258 256.71 367.233 256.71 367.233V346.666L260.525 327.201L263.194 316.9L265.483 301.348C265.483 301.348 269.488 283.184 268.254 281.401C268.254 281.365 267.23 262.663 266.154 258.171C265.688 256.168 265.806 251.66 266.082 247.276C266.371 246.988 266.573 246.625 266.664 246.228C266.754 245.831 266.73 245.416 266.594 245.032C266.518 244.769 266.419 244.514 266.297 244.269C266.297 244.192 266.297 244.11 266.297 244.033C268.51 243.015 270.822 242.229 273.196 241.687C277.012 240.939 276.059 238.972 276.059 238.972C276.059 238.972 276.92 237.287 277.488 236.257C278.057 235.228 277.585 226.14 277.488 225.393C277.452 225.09 277.217 223.42 276.945 221.525C278.169 220.654 279.762 219.573 281.498 218.549C284.802 216.592 284.059 214.528 283.788 213.99ZM234.006 343.859C234.006 343.859 231.143 351.164 232.29 353.033C233.437 354.903 232.101 361.844 232.101 361.844L231.143 372.145C231.143 372.145 228.475 391.252 229.427 395.744C230.175 399.269 230.452 409.795 230.539 414.185C230.473 414.211 230.41 414.242 230.349 414.277L230.221 414.344C230.662 412.618 230.477 409.124 228.29 402.096L228.106 373.067C228.106 373.067 227.768 339.536 230.416 335.786C233.064 332.037 234.001 325.669 234.001 325.669C234.001 325.669 233.427 334.854 233.053 337.287C232.679 339.72 234.006 343.859 234.006 343.859ZM228.674 416.014C228.649 416.075 228.618 416.137 228.598 416.193L228.454 416.009C228.527 416.016 228.601 416.018 228.674 416.014Z" fill="url(#paint0_linear)"/>
<path d="M257.872 427.519C256.392 428.087 248.367 429.056 246.124 428.784C243.88 428.513 240.91 427.375 240.065 425.89C239.22 424.404 234.482 422.161 233.212 422.304C232.691 422.32 232.172 422.247 231.676 422.089C230.799 421.824 229.944 421.495 229.115 421.106C228.999 420.46 229.018 419.797 229.171 419.159C229.201 419.03 229.238 418.904 229.284 418.78C229.583 417.94 230.201 417.251 231.005 416.864L231.189 416.777C231.544 416.624 231.915 416.51 232.295 416.439C236.321 415.666 252.93 417.218 252.93 417.218C252.93 417.218 253.396 418.053 254.036 419.087C254.835 420.368 255.921 421.93 256.741 422.519C257.648 423.295 258.264 424.358 258.487 425.531C258.682 426.438 258.538 427.268 257.872 427.519Z" fill="white"/>
<path opacity="0.1" d="M257.873 427.519C256.392 428.087 248.372 429.056 246.129 428.784C243.886 428.513 240.915 427.37 240.065 425.89C239.215 424.41 234.487 422.161 233.217 422.304C231.947 422.448 229.12 421.106 229.12 421.106C229.12 421.106 228.68 419.057 229.96 417.658L232.521 419.477C232.521 419.477 239.373 421.602 240.644 423.575C241.914 425.547 244.229 426.648 247.573 426.848C250.072 427.012 255.814 426.038 258.503 425.552C258.682 426.438 258.543 427.268 257.873 427.519Z" fill="black"/>
<path d="M233.356 430.131C230.335 430.072 227.313 430.215 224.311 430.557C219.502 431.12 215.83 429.02 215.189 428.154C214.549 427.288 211.235 424.363 208.69 423.339C207.446 422.857 207.154 421.29 207.21 419.825C207.21 419.748 207.21 419.661 207.21 419.584C207.257 418.656 207.394 417.735 207.62 416.833L227.548 416.408L229.274 418.749L229.54 419.108L230.59 420.537C230.59 420.537 231.066 421.162 231.691 422.074C232.746 423.61 234.221 425.88 234.615 427.381C235.245 429.783 233.356 430.131 233.356 430.131Z" fill="white"/>
<path opacity="0.1" d="M233.356 430.131C230.335 430.072 227.313 430.214 224.311 430.557C219.507 431.12 215.83 429.02 215.194 428.154C214.559 427.288 211.235 424.338 208.69 423.349C207.446 422.868 207.154 421.3 207.21 419.835C208.634 420.168 211.625 421.018 212.798 422.499C214.334 424.476 217.084 427.801 220.992 428.011C224.147 428.18 231.829 427.616 234.646 427.391C235.251 429.783 233.356 430.131 233.356 430.131Z" fill="black"/>
<path opacity="0.1" d="M230.984 416.844C230.754 418.555 230.042 419.016 229.53 419.118C229.405 419.143 229.276 419.143 229.151 419.118C229.083 419.113 229.017 419.103 228.951 419.087C228.951 419.087 211.056 423.042 207.44 419.84C207.349 419.758 207.263 419.669 207.184 419.574C207.231 418.646 207.369 417.725 207.594 416.823L227.522 416.398L229.248 418.739C229.547 417.899 230.165 417.21 230.969 416.823L230.984 416.844Z" fill="black"/>
<path opacity="0.1" d="M254.031 419.067C253.632 419.507 253.299 419.758 253.089 419.671C252.147 419.292 244.423 417.976 241.97 419.108C239.517 420.24 231.215 419.292 231.215 419.292C231.215 419.292 231.215 418.309 231.169 416.731C231.524 416.578 231.895 416.464 232.275 416.393C236.3 415.619 252.91 417.172 252.91 417.172C252.91 417.172 253.396 418.032 254.031 419.067Z" fill="black"/>
<path d="M265.719 303.197L263.455 318.841L260.823 329.209L257.053 348.807V369.553C257.053 369.553 259.501 410.83 258.559 411.957C257.616 413.084 254.036 419.502 253.094 419.128C252.152 418.754 244.428 417.433 241.975 418.56C239.522 419.687 231.22 418.749 231.22 418.749C231.22 418.749 231.03 402.731 230.088 398.208C229.146 393.685 231.783 374.461 231.783 374.461L232.726 364.098C232.726 364.098 234.047 357.121 232.915 355.236C231.783 353.351 234.61 346.016 234.61 346.016C234.61 346.016 233.294 341.861 233.673 339.413C234.052 336.964 234.61 327.729 234.61 327.729C234.61 327.729 233.673 334.142 231.056 337.907C228.439 341.672 228.772 375.413 228.772 375.413L228.956 404.611C233.673 420.071 228.956 418.56 228.956 418.56C228.956 418.56 211.061 422.519 207.445 419.313C203.83 416.106 204.864 395.924 204.864 395.924C204.864 395.924 204.49 379.716 205.996 374.819C207.502 369.922 207.978 351.825 207.978 351.825C207.978 351.825 207.881 315.635 207.978 313.191C208.05 311.142 207.978 292.799 207.978 287.067C207.978 286.001 207.978 285.371 207.978 285.371L210.139 280.003L235.747 276.796H247.998C247.998 276.796 266.436 281.13 268.341 282.999C268.382 283.031 268.416 283.069 268.443 283.112C269.678 284.92 265.719 303.197 265.719 303.197Z" fill="#1E90FF"/>
<path opacity="0.1" d="M234.626 385.371C234.626 385.371 240.259 398.941 242.918 399.883C245.576 400.826 234.626 385.371 234.626 385.371Z" fill="black"/>
<path opacity="0.1" d="M236.71 405.349C236.71 405.349 255.732 406.291 255.542 408.366C255.353 410.441 236.71 405.349 236.71 405.349Z" fill="black"/>
<path opacity="0.1" d="M211.261 399.924C212.014 400.636 225.77 401.973 224.639 403.274C223.507 404.575 212.393 407.106 212.393 407.106L211.261 399.924Z" fill="black"/>
<path opacity="0.1" d="M209.002 376.515C209.002 377.078 211.83 394.607 212.588 395.36C213.346 396.113 219.558 396.866 219.558 396.866L209.002 376.515Z" fill="black"/>
<path d="M229.514 136.918C226.815 139.935 225.648 144.212 222.503 146.763C220.593 148.3 218.175 149.032 215.952 150.077C213.73 151.122 211.527 152.715 210.867 155.082C210.129 157.746 211.553 160.466 212.301 163.129C213.074 165.885 213.12 168.764 213.166 171.648C213.217 175.136 213.274 178.625 213.212 182.113C213.12 187.548 212.669 193.234 209.786 197.839C220.198 201.153 231.271 201.604 242.19 202.029C244.289 202.179 246.396 202.126 248.485 201.87C250.294 201.51 252.084 201.057 253.847 200.513C257.333 199.59 260.925 199.13 264.53 199.145C266.103 199.145 267.706 199.242 269.222 198.833C270.738 198.423 272.197 197.373 272.607 195.856C272.971 194.494 272.438 193.044 271.742 191.82C270.472 189.587 268.669 187.722 267.306 185.519C265.916 183.193 265.091 180.572 264.898 177.868C264.704 175.164 265.149 172.453 266.195 169.952C267.404 167.14 269.35 164.692 270.538 161.874C271.755 158.849 272.079 155.539 271.47 152.335C270.862 149.132 269.348 146.17 267.107 143.802C262.974 139.571 257.043 137.932 251.368 137.061C248.979 136.779 246.699 135.898 244.741 134.5C242.564 133.066 239.742 132.717 237.192 133.035C234.249 133.365 231.524 134.743 229.514 136.918Z" fill="#3F3D56"/>
<g opacity="0.1">
<path opacity="0.1" d="M266.354 166.997C265.31 169.465 264.862 172.145 265.048 174.819C265.163 172.907 265.604 171.029 266.354 169.266C267.557 166.454 269.504 164.005 270.692 161.188C271.663 158.835 272.072 156.288 271.885 153.75C271.78 155.529 271.376 157.278 270.692 158.924C269.504 161.741 267.557 164.184 266.354 166.997Z" fill="black"/>
<path opacity="0.1" d="M213.32 170.951C213.351 172.959 213.381 174.972 213.386 176.98C213.386 174.214 213.361 171.453 213.32 168.692C213.279 165.829 213.228 162.929 212.454 160.168C211.942 158.417 211.184 156.639 210.918 154.872C210.462 157.382 211.758 159.928 212.454 162.433C213.228 165.168 213.279 168.088 213.32 170.951Z" fill="black"/>
<path opacity="0.1" d="M269.396 195.903C267.86 196.317 266.282 196.225 264.71 196.215C261.107 196.192 257.517 196.643 254.031 197.557C252.268 198.099 250.478 198.55 248.669 198.909C246.579 199.169 244.47 199.224 242.369 199.073C231.819 198.658 221.12 198.213 211.015 195.196C210.715 195.865 210.373 196.516 209.991 197.142C220.403 200.451 231.476 200.907 242.39 201.332C244.49 201.483 246.6 201.428 248.689 201.168C250.492 200.812 252.275 200.363 254.031 199.821C257.509 198.904 261.092 198.448 264.689 198.464C266.262 198.464 267.86 198.561 269.375 198.146C270.891 197.731 272.351 196.691 272.761 195.175C272.933 194.473 272.916 193.737 272.71 193.044C272.254 194.479 270.845 195.477 269.396 195.903Z" fill="black"/>
</g>
<path d="M254.226 189.833C253.847 190.683 252.249 198.028 251.87 198.781C251.491 199.534 249.422 211.588 249.232 212.264C249.043 212.94 235.594 209.436 235.594 209.436L227.496 202.649L219.174 194.366C219.174 194.366 218.928 186.892 225.059 184.495C225.475 184.331 225.903 184.198 226.339 184.095C233.775 182.308 233.028 159.692 233.028 159.692L248.29 166.285C248.29 166.285 245.463 179.48 245.56 182.026C245.586 182.881 246.257 183.414 247.132 183.737C248.487 184.122 249.896 184.275 251.301 184.188C251.301 184.188 254.605 188.987 254.226 189.833Z" fill="#FBBEBE"/>
<path d="M281.55 214.615L283.716 215.183C283.716 215.183 285.319 217.622 281.55 219.891C279.156 221.345 276.859 222.952 274.671 224.701L263.532 228.092L261.386 221.356L271.752 213.488L281.55 214.615Z" fill="#1E90FF"/>
<path opacity="0.1" d="M281.55 214.615L283.716 215.183C283.716 215.183 285.319 217.622 281.55 219.891C279.156 221.345 276.859 222.952 274.671 224.701L263.532 228.092L261.386 221.356L271.752 213.488L281.55 214.615Z" fill="black"/>
<path d="M200.255 221.12L195.922 225.362C195.922 225.362 203.738 234.408 209.75 234.971C215.763 235.535 219.64 228.092 219.64 228.092L214.437 219.896L200.255 221.12Z" fill="#1E90FF"/>
<path opacity="0.1" d="M200.255 221.12L195.922 225.362C195.922 225.362 203.738 234.408 209.75 234.971C215.763 235.535 219.64 228.092 219.64 228.092L214.437 219.896L200.255 221.12Z" fill="black"/>
<path opacity="0.1" d="M241.412 174.47C249.736 174.47 256.485 167.721 256.485 159.395C256.485 151.069 249.736 144.32 241.412 144.32C233.087 144.32 226.339 151.069 226.339 159.395C226.339 167.721 233.087 174.47 241.412 174.47Z" fill="black"/>
<path d="M241.412 173.338C249.736 173.338 256.485 166.589 256.485 158.263C256.485 149.937 249.736 143.188 241.412 143.188C233.087 143.188 226.339 149.937 226.339 158.263C226.339 166.589 233.087 173.338 241.412 173.338Z" fill="#FBBEBE"/>
<path opacity="0.1" d="M268.454 284.823C265.022 285.216 261.641 285.973 258.369 287.082C252.736 288.957 208.588 287.113 207.973 287.082C207.973 286.017 207.973 285.387 207.973 285.387L210.134 280.018L235.742 276.812H247.993C247.993 276.812 266.431 281.145 268.336 283.015C268.413 284.142 268.454 284.823 268.454 284.823Z" fill="black"/>
<path opacity="0.1" d="M254.226 189.833C253.847 190.683 252.249 198.028 251.87 198.781C251.491 199.534 249.422 211.588 249.232 212.264C249.043 212.94 235.594 209.436 235.594 209.436L227.496 202.649L219.174 194.366C219.174 194.366 218.928 186.892 225.059 184.495L240.28 201.998L247.132 183.737C248.487 184.122 249.896 184.275 251.301 184.188C251.301 184.188 254.605 188.987 254.226 189.833Z" fill="black"/>
<path d="M240.28 202.562L224.7 184.633C223.788 184.051 222.746 183.704 221.667 183.625C220.588 183.545 219.506 183.735 218.518 184.177C215.03 185.688 210.698 186.913 209.566 187.666C208.434 188.419 204.193 193.08 204.193 193.08L216.823 226.125L211.261 247.89C211.261 247.89 212.111 259.011 209.945 263.063C208.626 265.654 208.008 268.545 208.152 271.448C208.152 271.448 208.813 276.822 208.06 279.644C207.62 281.531 207.587 283.491 207.963 285.392C207.963 285.392 252.72 287.277 258.369 285.392C261.64 284.28 265.021 283.522 268.454 283.133C268.454 283.133 267.429 264.282 266.405 259.759C265.381 255.236 267.255 237.994 267.255 237.994L266.031 219.522L273.375 200.569C273.375 200.569 269.396 188.419 265.248 187.194C265.248 187.194 257.714 185.402 256.111 184.556C254.508 183.711 249.796 182.953 249.796 182.953L247.322 183.783L240.28 202.562Z" fill="#1E90FF"/>
<path opacity="0.1" d="M262.017 218.898L229.233 216.669C228.403 216.612 227.685 217.239 227.628 218.069L224.109 269.84C224.052 270.67 224.679 271.388 225.509 271.445L258.293 273.674C259.123 273.731 259.841 273.104 259.898 272.274L263.417 220.503C263.474 219.673 262.847 218.955 262.017 218.898Z" fill="black"/>
<path d="M263.146 217.774L230.362 215.544C229.532 215.488 228.814 216.115 228.757 216.945L225.238 268.716C225.181 269.545 225.808 270.264 226.638 270.32L259.422 272.55C260.252 272.606 260.97 271.979 261.026 271.15L264.546 219.379C264.603 218.549 263.976 217.831 263.146 217.774Z" fill="#3F3D56"/>
<path d="M262.064 221.832L230.884 219.712L227.68 266.842L258.86 268.963L262.064 221.832Z" fill="white"/>
<path opacity="0.1" d="M259.268 233.862L233.799 232.079L233.302 239.179L258.771 240.962L259.268 233.862Z" fill="black"/>
<path opacity="0.1" d="M258.347 262.076L254.305 261.801L254.053 265.501L258.095 265.776L258.347 262.076Z" fill="black"/>
<path opacity="0.1" d="M254.36 253.146L233.67 251.739L233.419 255.439L254.108 256.846L254.36 253.146Z" fill="black"/>
<path d="M258.205 220.07L236.662 218.605L236.275 224.293L257.818 225.758L258.205 220.07Z" fill="#3F3D56"/>
<path opacity="0.1" d="M258.205 220.07L236.662 218.605L236.275 224.293L257.818 225.758L258.205 220.07Z" fill="black"/>
<path opacity="0.1" d="M242.165 283.783C242.165 283.783 241.975 311.68 234.626 327.698C234.626 327.698 243.486 306.588 243.486 305.743C243.486 304.898 248.382 296.036 247.071 293.398C245.76 290.76 242.165 283.783 242.165 283.783Z" fill="black"/>
<path opacity="0.1" d="M242.564 154.493C242.283 152.024 242.887 149.535 244.27 147.47C244.105 149.54 244.69 151.599 245.918 153.273C247.146 154.947 248.935 156.124 250.958 156.588C250.786 156.438 250.663 156.239 250.605 156.018C250.547 155.797 250.558 155.563 250.636 155.348C251.686 156.537 252.49 157.945 253.678 158.99C254.866 160.035 256.648 160.66 258.047 159.917C259.947 158.893 259.967 156.193 259.476 154.093C258.42 149.621 256.256 145.486 253.181 142.071C252.414 141.039 251.418 140.198 250.272 139.615C249.126 139.032 247.86 138.722 246.574 138.711C243.665 138.485 240.644 138.741 238.037 140.048C236.57 140.848 235.196 141.808 233.939 142.911L226.769 148.761C226.079 149.258 225.489 149.88 225.028 150.595C224.72 151.192 224.536 151.845 224.485 152.516C224.302 154.431 224.656 156.36 225.508 158.086C226.361 159.811 227.677 161.265 229.31 162.284C229.275 160.77 229.691 159.28 230.506 158.003C231.32 156.726 232.496 155.72 233.883 155.113C234.1 155.294 234.276 155.52 234.399 155.776C234.522 156.031 234.589 156.31 234.595 156.593L236.106 153.899C236.331 153.408 236.685 152.989 237.13 152.685C238.062 152.172 239.225 152.777 240.019 153.499C240.813 154.221 241.586 155.123 242.651 155.236L242.692 151.225" fill="black"/>
<path d="M242.564 153.929C242.282 151.459 242.886 148.968 244.27 146.901C243.809 150.999 246.897 155.23 250.963 156.019C250.791 155.871 250.667 155.673 250.61 155.452C250.552 155.232 250.563 154.999 250.641 154.785C251.691 155.973 252.495 157.377 253.683 158.427C254.871 159.477 256.654 160.097 258.052 159.349C259.952 158.324 259.972 155.625 259.481 153.53C258.426 149.057 256.261 144.922 253.186 141.507C252.232 140.344 251.03 139.41 249.668 138.772C248.682 138.407 247.645 138.196 246.595 138.147C243.686 137.922 240.664 138.173 238.057 139.479C236.591 140.283 235.217 141.245 233.96 142.348L226.79 148.197C226.099 148.693 225.508 149.315 225.048 150.031C224.74 150.628 224.555 151.282 224.505 151.952C224.323 153.867 224.677 155.795 225.53 157.52C226.382 159.245 227.698 160.697 229.33 161.715C229.297 160.202 229.714 158.712 230.528 157.435C231.342 156.158 232.517 155.152 233.904 154.544C234.12 154.726 234.295 154.953 234.418 155.208C234.541 155.463 234.608 155.741 234.615 156.024L236.121 153.34C236.345 152.849 236.699 152.429 237.145 152.126C238.078 151.614 239.24 152.218 240.034 152.941C240.828 153.663 241.601 154.559 242.667 154.677L242.708 150.661" fill="#3F3D56"/>
<path d="M249.704 249.017C248.387 248.351 226.621 251.747 226.621 251.747C226.621 251.747 223.036 250.723 214.37 249.299C205.704 247.875 205.151 239.402 205.151 239.402L204.203 222.442L207.128 219.881L219.655 228.077C219.655 228.077 219.85 232.221 219.655 232.969C219.532 233.481 219.205 234.09 219.235 234.505C219.245 234.618 219.291 234.724 219.367 234.807C219.443 234.89 219.544 234.946 219.655 234.966C220.505 235.181 232.09 237.056 232.09 237.056C232.09 237.056 258.943 235.217 265.637 244.264C266.167 244.928 266.568 245.685 266.82 246.497C268.479 252.68 250.897 249.606 249.704 249.017Z" fill="#FBBEBE"/>
<path opacity="0.1" d="M266.835 246.533C265.811 246.989 265.176 247.317 265.176 247.317C265.176 247.317 255.568 247.035 250.17 245.078C244.771 243.121 238.211 243.47 238.211 243.47C238.211 243.47 215.717 239.597 219.205 234.541C219.214 234.654 219.26 234.76 219.336 234.843C219.412 234.926 219.514 234.982 219.625 235.002C220.475 235.217 232.06 237.092 232.06 237.092C232.06 237.092 258.912 235.253 265.606 244.299C266.153 244.96 266.57 245.718 266.835 246.533Z" fill="black"/>
<path d="M276.177 216.689C276.177 216.689 277.498 226.017 277.591 226.776C277.683 227.534 278.159 236.667 277.591 237.707C277.022 238.747 276.177 240.437 276.177 240.437C276.177 240.437 277.119 242.414 273.35 243.172C269.58 243.931 265.155 246.184 265.155 246.184C265.155 246.184 255.542 245.903 250.175 243.925C244.807 241.948 238.211 242.322 238.211 242.322C238.211 242.322 209.658 237.42 221.909 231.437C234.16 225.454 242.825 233.558 242.825 233.558L256.485 232.712C256.485 232.712 261.575 229.598 262.989 229.885C263.987 230.012 265.001 229.848 265.908 229.414L266.006 219.517L276.177 216.689Z" fill="#FBBEBE"/>
<path opacity="0.1" d="M206.913 193.792L204.178 193.649L195.891 225.92C195.891 225.92 204.839 223.656 208.695 225.92C212.552 228.184 219.625 228.65 219.625 228.65L216.987 202.925L206.913 193.792Z" fill="black"/>
<path d="M206.913 193.224L204.178 193.08L195.891 225.352C195.891 225.352 204.839 223.087 208.695 225.352C212.552 227.616 219.625 228.082 219.625 228.082L216.987 202.357L206.913 193.224Z" fill="#1E90FF"/>
<path opacity="0.1" d="M269.586 200.293L273.35 201.143C273.35 201.143 282.963 214.973 283.716 215.747C284.469 216.52 280.131 219.333 278.343 219.333C276.556 219.333 267.793 220.357 265.248 222.724C262.702 225.09 263.762 213.181 263.762 212.909C263.762 212.638 266.922 205.123 266.922 205.123L269.586 200.293Z" fill="black"/>
<path d="M269.586 199.729L273.35 200.574C273.35 200.574 282.963 214.43 283.716 215.183C284.469 215.936 280.131 218.769 278.343 218.769C276.556 218.769 267.793 219.794 265.248 222.16C262.702 224.527 263.762 212.617 263.762 212.346C263.762 212.074 266.943 204.534 266.943 204.534L269.586 199.729Z" fill="#1E90FF"/>
<g opacity="0.1">
<path opacity="0.1" d="M244.244 146.947C244.222 146.555 244.23 146.161 244.27 145.769C243.49 146.94 242.953 148.255 242.692 149.637V150.825C242.692 150.825 242.692 150.8 242.692 150.784V151.066C242.692 151.896 242.692 152.731 242.667 153.56H242.595V153.945C242.595 153.811 242.595 153.683 242.569 153.55C241.545 153.386 240.813 152.526 240.049 151.839C239.286 151.153 238.093 150.497 237.161 151.025C236.714 151.328 236.36 151.748 236.137 152.239L234.615 154.923C234.609 154.641 234.542 154.363 234.419 154.108C234.296 153.854 234.12 153.629 233.904 153.448C232.516 154.055 231.341 155.061 230.526 156.338C229.712 157.615 229.295 159.105 229.33 160.619C227.931 159.742 226.76 158.545 225.915 157.126C225.07 155.707 224.574 154.107 224.47 152.459C224.381 154.3 224.784 156.131 225.638 157.763C226.493 159.396 227.767 160.771 229.33 161.746C229.297 160.232 229.714 158.743 230.528 157.466C231.342 156.189 232.517 155.183 233.904 154.575C234.12 154.757 234.296 154.983 234.418 155.239C234.541 155.494 234.608 155.772 234.615 156.055L236.121 153.371C236.345 152.88 236.699 152.46 237.146 152.157C238.078 151.645 239.24 152.249 240.034 152.971C240.828 153.694 241.601 154.59 242.667 154.708C242.667 153.397 242.68 152.089 242.708 150.784C242.959 149.416 243.481 148.111 244.244 146.947Z" fill="black"/>
<path opacity="0.1" d="M242.513 152.106C242.538 151.757 242.579 151.409 242.631 151.081L242.687 149.667C242.533 150.47 242.475 151.289 242.513 152.106Z" fill="black"/>
<path opacity="0.1" d="M258.052 158.217C256.654 158.965 254.871 158.34 253.683 157.295C252.495 156.25 251.691 154.841 250.641 153.653C250.563 153.868 250.552 154.101 250.61 154.323C250.668 154.544 250.791 154.742 250.963 154.892C250.861 154.892 250.764 154.841 250.666 154.815C251.691 155.994 252.505 157.377 253.683 158.401C254.861 159.426 256.654 160.071 258.052 159.323C259.45 158.575 259.849 156.823 259.727 155.118C259.634 156.46 259.153 157.623 258.052 158.217Z" fill="black"/>
<path opacity="0.1" d="M250.636 154.805C248.923 154.338 247.394 153.359 246.253 151.999C245.113 150.638 244.415 148.961 244.254 147.193C243.962 151.214 246.994 155.246 250.964 156.019C250.794 155.872 250.673 155.678 250.615 155.462C250.556 155.246 250.564 155.017 250.636 154.805Z" fill="black"/>
</g>
<path d="M496.594 238.526C496.594 238.526 494.576 238.245 494.576 235.31C494.576 232.374 493.132 226.878 493.132 226.878C493.132 226.878 491.882 217.314 490.156 215.798C488.43 214.282 486.213 205.379 486.213 205.379C486.213 205.379 485.834 200.549 485.06 199.509C484.287 198.469 483.242 195.923 481.7 192.291C480.159 188.659 473.747 186.17 473.747 186.17C473.747 186.17 462.126 179.429 458.833 177.231C458.531 177.049 458.25 176.836 457.993 176.596C457.419 175.848 454.92 175.833 454.92 175.833C454.659 174.178 454.408 172.283 454.326 170.567C454.326 170.383 454.326 170.198 454.326 170.014C457.998 167.843 460.764 164.42 462.116 160.373C462.177 160.179 462.228 159.979 462.285 159.779C462.509 159.71 462.717 159.594 462.893 159.438C463.07 159.283 463.212 159.092 463.309 158.878C463.601 158.217 463.611 157.448 463.98 156.829C464.41 156.101 465.23 155.712 465.875 155.169C467.503 153.781 467.923 151.45 467.847 149.335C467.795 147.613 467.519 145.882 467.626 144.176C467.626 144.033 467.626 143.889 467.657 143.746C467.688 143.495 467.724 143.234 467.77 142.988C468.021 141.717 468.569 140.519 468.876 139.259C469.183 137.999 469.214 136.58 468.497 135.494C467.447 133.901 465.26 133.583 463.34 133.445C461.163 133.26 459.242 133.496 457.824 131.688C457.173 130.743 456.439 129.859 455.632 129.045C455.345 128.778 452.559 127.072 452.559 126.965C449.833 125.697 446.74 125.459 443.852 126.294C442.403 126.714 441.045 127.4 439.576 127.743C436.421 128.491 432.784 127.682 430.101 129.49C428.605 130.515 427.709 132.149 426.869 133.732C426.186 135.036 425.493 136.342 424.79 137.65C423.653 139.797 422.505 141.979 422.029 144.355C421.929 144.875 421.866 145.4 421.84 145.928C421.84 146.118 421.84 146.307 421.84 146.497C421.84 146.579 421.84 146.661 421.84 146.743C421.84 146.917 421.84 147.091 421.87 147.255C421.901 147.419 421.87 147.465 421.906 147.572C421.942 147.68 421.952 147.921 421.983 148.085C422.014 148.249 422.075 148.541 422.137 148.761C422.137 148.858 422.198 148.95 422.229 149.048C422.26 149.145 422.341 149.391 422.408 149.56C422.475 149.729 422.48 149.739 422.521 149.826C422.598 150.006 422.69 150.18 422.782 150.339C422.823 150.405 422.854 150.472 422.895 150.538C423.035 150.778 423.193 151.007 423.366 151.225C424.457 152.592 426.075 153.463 427.268 154.744C427.268 154.795 427.268 154.846 427.268 154.897C427.268 155.036 427.268 155.174 427.268 155.318C427.341 158.174 428.111 160.969 429.511 163.46C430.911 165.951 432.898 168.062 435.299 169.609C435.299 169.804 435.325 170.004 435.335 170.203C435.435 171.722 435.416 173.246 435.279 174.762C435.07 174.517 434.808 174.322 434.514 174.191C434.22 174.06 433.9 173.996 433.578 174.004C433.358 173.993 433.138 174.012 432.923 174.061L432.877 174.025V174.071C431.75 174.347 430.362 175.52 429.035 178.855C429.035 178.855 425 183.404 421.927 183.214C418.854 183.025 411.074 187.953 411.074 187.953C411.074 187.953 403.484 192.875 401.855 197.895C400.945 200.743 399.852 203.528 398.583 206.235L389.174 225.556L387.448 240.924C387.448 240.924 388.406 247.742 388.216 248.787C388.027 249.832 392.155 259.206 392.155 259.206C392.155 259.206 405.794 283.169 411.366 284.398L411.765 284.121C412.005 284.242 412.258 284.335 412.518 284.398L413.666 283.594C413.737 284.494 413.706 285.4 413.573 286.293C412.81 288.665 413.865 304.104 415.207 307.131C416.549 310.159 416.073 349.858 416.073 349.858L415.883 353.356C415.883 353.356 415.883 353.469 415.929 353.663L415.883 354.493L416.021 354.565C416.165 355.678 416.118 356.807 415.883 357.905C415.402 359.442 415.207 363.78 415.207 363.78C415.207 363.78 411.366 388.307 413.189 393.234C415.013 398.162 416.554 403.561 416.554 403.561C416.554 403.561 418.475 409.708 416.646 410.733C414.818 411.757 409.64 413.576 410.695 416.132C411.668 418.498 415.361 424.84 415.909 425.767L415.863 426.279L415.11 434.439C415.232 435.517 415.524 436.568 415.975 437.554C416.8 439.336 418.398 441.175 421.45 440.975C421.962 440.94 422.551 440.883 423.13 440.806C428.708 440.053 435.571 437.564 435.571 437.564C435.215 437.339 434.889 437.068 434.603 436.76C434.328 436.494 434.111 436.175 433.964 435.823C433.817 435.471 433.743 435.092 433.747 434.711C433.829 433.22 431.048 426.146 430.352 424.399L430.193 424.01C430.193 424.01 436.533 417.376 435.478 411.506C435.478 411.506 428.462 407.408 430.772 405.154C433.081 402.9 437.209 396.446 437.209 396.446C437.209 396.446 437.399 372.294 437.209 368.693C437.012 366.188 437.131 363.668 437.563 361.193C437.64 360.825 437.732 360.461 437.829 360.097C441.026 360.58 444.255 360.825 447.488 360.83C448.67 360.83 449.865 360.806 451.073 360.758C451.073 361.1 451.089 361.468 451.12 361.865C451.386 367.848 451.883 378.343 452.287 382.242C452.861 387.825 456.031 402.89 456.031 402.89C456.031 402.89 449.983 406.768 457.086 416.342C457.086 416.342 457.086 419.804 456.615 420.312C456.112 421.954 455.706 423.625 455.401 425.316C455.104 427.114 454.981 428.943 455.463 429.885C456.615 432.15 463.529 431.965 463.529 431.965C463.585 431.952 463.641 431.944 463.698 431.939C465.003 431.802 466.323 431.925 467.579 432.303C468.836 432.682 470.005 433.307 471.017 434.142C473.644 436.253 483.611 435.331 489.014 434.654C491.129 434.383 492.543 434.142 492.543 434.142C492.611 433.903 492.635 433.653 492.615 433.405C492.558 432.078 491.519 429.168 484.471 426.571C484.471 426.571 477.844 422.115 477.936 418.232H477.788H477.024C477.506 418.216 477.844 418.216 477.844 418.216C477.844 418.216 475.247 408.745 476.307 407.972C477.368 407.198 474.192 396.702 474.192 396.702C474.192 396.702 472.374 379.081 472.272 377.852C472.278 376.792 472.441 375.739 472.753 374.727L472.272 365.061C472.272 365.061 472.179 361.849 472.272 360.804C472.261 359.897 472.19 358.992 472.057 358.094C472.01 357.736 471.964 357.362 471.913 356.993C474.397 356.363 476.01 355.784 476.01 355.784L475.724 322.155C477.834 318.057 478.223 309.062 478.213 302.69C478.213 298.592 478.028 295.56 478.028 295.56L480.912 290.852C480.912 290.852 481.578 285.217 480.522 283.983C480.056 283.425 480.266 282.846 480.651 282.369C480.853 282.204 481.067 282.053 481.291 281.919C481.266 281.883 481.243 281.845 481.224 281.806C481.425 281.638 481.64 281.485 481.864 281.35C481.864 281.35 480.84 279.762 481.757 279.091C482.617 279.675 483.385 280.141 483.969 280.474C483.928 280.848 483.887 281.063 483.887 281.063L484.133 280.551C484.697 280.869 485.04 281.063 485.04 281.063C485.04 281.063 489.557 272.063 489.46 270.741C489.362 269.42 492.533 263.826 492.533 263.826C492.533 263.826 492.917 260.886 494.648 259.657C496.379 258.427 495.99 249.519 495.99 249.519C495.99 249.519 496.471 244.878 497.623 242.988C498.776 241.098 496.594 238.526 496.594 238.526ZM410.162 234.577L410.249 236.723C409.737 235.899 409.369 235.31 409.369 235.31L410.162 234.577Z" fill="url(#paint1_linear)"/>
<path d="M485.306 277.17L484.2 281.883C484.2 281.883 475.34 277.349 473.747 271.612C472.154 265.875 476.415 263.688 476.415 263.688L484.676 267.181L485.306 277.17Z" fill="white"/>
<path opacity="0.1" d="M485.306 277.17L484.2 281.883C484.2 281.883 475.34 277.349 473.747 271.612C472.154 265.875 476.415 263.688 476.415 263.688L484.676 267.181L485.306 277.17Z" fill="black"/>
<path d="M435.581 437.559C435.581 437.559 427.386 440.571 421.753 440.95C418.762 441.15 417.189 439.316 416.38 437.549C415.94 436.574 415.654 435.537 415.53 434.475L416.273 426.356L416.662 422.038L428.631 418.923L430.326 424.112L430.485 424.502C431.161 426.238 433.896 433.276 433.814 434.747C433.807 435.127 433.878 435.504 434.021 435.857C434.165 436.209 434.378 436.528 434.649 436.796C434.926 437.088 435.239 437.345 435.581 437.559Z" fill="white"/>
<path d="M491.529 433.43C491.55 433.678 491.526 433.928 491.457 434.168C491.457 434.168 473.931 437.088 470.346 434.168C469.338 433.315 468.164 432.682 466.897 432.309C465.631 431.935 464.301 431.831 462.992 432.001C462.992 432.001 456.211 432.185 455.079 429.952C454.608 429.015 454.731 427.196 455.022 425.408C455.321 423.727 455.717 422.064 456.211 420.429L456.482 420.214L458.095 418.918L476.984 418.36H477.127C477.035 422.222 483.534 426.653 483.534 426.653C490.453 429.214 491.473 432.109 491.529 433.43Z" fill="white"/>
<path opacity="0.1" d="M491.534 433.43C491.552 433.679 491.526 433.928 491.457 434.168C491.457 434.168 473.931 437.088 470.351 434.168C469.343 433.314 468.167 432.681 466.9 432.307C465.633 431.934 464.301 431.83 462.991 432.001C462.991 432.001 456.205 432.185 455.073 429.952C454.607 429.015 454.725 427.196 455.017 425.403C457.629 425.665 461.752 426.315 463.37 427.872C465.819 430.229 469.967 432.585 472.507 432.775C474.515 432.897 486.453 433.277 491.534 433.43Z" fill="black"/>
<path opacity="0.1" d="M435.581 437.559C435.581 437.559 427.386 440.571 421.753 440.95C418.762 441.15 417.189 439.316 416.38 437.549C418.47 438.25 421.363 438.983 422.885 438.312C424.687 437.508 431.079 436.995 434.664 436.775C434.934 437.075 435.243 437.339 435.581 437.559Z" fill="black"/>
<path d="M447.739 194.812C440.979 192.184 432.283 183.501 434.454 179.444C434.934 178.42 435.221 177.315 435.299 176.186C435.439 174.653 435.459 173.112 435.361 171.576C435.208 169.059 434.905 166.553 434.454 164.072C434.454 164.072 455.56 164.548 454.331 167.657C453.972 168.574 453.911 170.157 454.013 171.924C454.116 173.692 454.367 175.705 454.633 177.4C454.997 179.721 455.371 181.498 455.371 181.498C455.371 181.498 454.075 183.307 453.322 183.404C452.569 183.501 457.44 198.576 447.739 194.812Z" fill="#CF6F80"/>
<path opacity="0.1" d="M430.464 424.476L430.305 424.65C423.996 417.018 416.365 426.535 416.365 426.535L416.252 426.33L416.641 422.012L428.61 418.898L430.305 424.087L430.464 424.476Z" fill="black"/>
<path opacity="0.1" d="M477.137 418.898C477.137 418.898 472.528 418.806 470.07 420.978C467.611 423.149 455.729 421.444 456.241 420.978C456.391 420.741 456.482 420.472 456.508 420.194L458.121 418.898L477.009 418.339C477.081 418.698 477.137 418.898 477.137 418.898Z" fill="black"/>
<path d="M438.316 358.96C437.973 359.809 437.712 360.689 437.537 361.588C437.11 364.05 436.991 366.555 437.184 369.046C437.373 372.632 437.184 396.661 437.184 396.661C437.184 396.661 433.133 403.069 430.869 405.328C428.605 407.587 435.478 411.644 435.478 411.644C436.503 417.489 430.295 424.087 430.295 424.087C423.986 416.454 416.354 425.967 416.354 425.967C416.354 425.967 412.206 418.795 411.171 416.234C410.137 413.673 415.223 411.906 417.01 410.861C418.797 409.816 416.918 403.689 416.918 403.689C416.918 403.689 415.412 398.316 413.62 393.414C411.827 388.512 415.596 364.113 415.596 364.113C415.596 364.113 415.791 359.775 416.257 358.263C416.49 357.173 416.536 356.05 416.395 354.944C416.365 354.57 416.329 354.263 416.303 354.048C416.278 353.833 416.257 353.74 416.257 353.74L416.329 353.617L418.89 348.843C418.89 348.843 439.545 355.953 438.316 358.96Z" fill="#1E90FF"/>
<path d="M477.137 418.334C477.137 418.334 472.528 418.237 470.069 420.383C467.611 422.53 455.729 420.855 456.241 420.383C456.753 419.912 456.707 416.429 456.707 416.429C449.737 406.906 455.683 403.044 455.683 403.044C455.683 403.044 452.574 388.061 452.011 382.503C451.616 378.625 451.13 368.16 450.869 362.233C450.756 359.672 450.689 357.905 450.689 357.905L456.333 356.783L457.066 356.64L470.802 353.879C470.802 353.879 471.181 356.44 471.437 358.535C471.566 359.429 471.637 360.331 471.647 361.234C471.56 362.259 471.647 365.471 471.647 365.471L472.118 375.08C471.814 376.089 471.655 377.136 471.647 378.19C471.744 379.419 473.532 396.943 473.532 396.943C473.532 396.943 476.64 407.403 475.58 408.156C474.52 408.909 477.137 418.334 477.137 418.334Z" fill="#1E90FF"/>
<path opacity="0.1" d="M454.331 167.673C453.972 168.59 453.911 170.173 454.013 171.94C451.186 173.642 447.936 174.513 444.637 174.451C441.337 174.39 438.122 173.399 435.361 171.591C435.208 169.074 434.905 166.568 434.454 164.087C434.454 164.087 455.56 164.563 454.331 167.673Z" fill="black"/>
<path d="M462.479 156.362C462.535 161.01 460.742 165.489 457.496 168.815C454.25 172.141 449.815 174.041 445.168 174.096C440.522 174.152 436.043 172.359 432.718 169.112C429.393 165.865 427.493 161.43 427.438 156.783C427.438 156.639 427.438 156.506 427.438 156.362C427.438 151.714 429.284 147.255 432.571 143.968C435.858 140.68 440.315 138.833 444.964 138.833C449.612 138.833 454.07 140.68 457.356 143.968C460.643 147.255 462.49 151.714 462.49 156.362H462.479Z" fill="#CF6F80"/>
<path opacity="0.1" d="M447.739 194.812C440.979 192.184 432.283 183.501 434.454 179.444C434.934 178.42 435.221 177.315 435.299 176.186L444.554 183.798L450.28 188.496L454.633 177.416C454.997 179.736 455.371 181.514 455.371 181.514C455.371 181.514 454.075 183.322 453.322 183.419C452.569 183.517 457.44 198.577 447.739 194.812Z" fill="black"/>
<path d="M471.673 228.451L463.944 358.304L453.865 358.965L427.76 283.671L432.042 194.279L432.948 175.392L444.554 184.925L450.28 189.622L454.761 178.215L463.094 185.478L471.673 228.451Z" fill="#1E90FF"/>
<path opacity="0.1" d="M438.316 358.96C437.973 359.809 437.712 360.689 437.537 361.588C430.196 360.457 423.066 358.232 416.385 354.985L416.247 354.913L416.293 354.089V353.658L418.854 348.884C418.854 348.884 439.545 355.953 438.316 358.96Z" fill="black"/>
<path opacity="0.1" d="M456.502 361.608C454.628 361.929 452.737 362.146 450.838 362.259C450.725 359.698 450.659 357.931 450.659 357.931L456.333 356.783L456.502 361.608Z" fill="black"/>
<path opacity="0.1" d="M471.457 358.535C467.816 359.483 462.187 360.548 457.158 359.882L457.086 356.64L470.822 353.879C470.822 353.879 471.186 356.419 471.457 358.535Z" fill="black"/>
<path opacity="0.1" d="M457.066 360.476C436.067 364.062 416.836 353.781 416.836 353.781L417.02 350.298C417.02 350.298 417.497 310.809 416.175 307.782C414.854 304.754 413.824 289.423 414.572 287.082C415.32 284.741 411.842 249.396 411.842 249.396L411.279 235.053L390.644 226.668L399.863 207.443C401.108 204.749 402.179 201.977 403.069 199.145C404.672 194.151 412.114 189.249 412.114 189.249C412.114 189.249 419.745 184.351 422.762 184.536C425.778 184.72 429.732 180.202 429.732 180.202C432.651 172.759 435.294 176.104 435.294 176.104C435.294 176.463 435.294 176.104 435.151 177.206C434.126 185.376 451.714 211.193 451.965 211.654L453.66 252.459L455.355 304.099L457.066 360.476Z" fill="black"/>
<path d="M456.503 360.476C435.504 364.062 416.267 353.781 416.267 353.781L416.457 350.298C416.457 350.298 416.928 310.809 415.607 307.782C414.285 304.754 413.256 289.408 414.009 287.046C414.762 284.685 411.264 249.376 411.264 249.376L410.695 235.033L390.065 226.647L399.284 207.423C400.526 204.729 401.597 201.959 402.49 199.13C404.093 194.151 411.561 189.243 411.561 189.243C411.561 189.243 419.192 184.346 422.203 184.531C425.215 184.715 429.189 180.202 429.189 180.202C432.114 172.759 435.335 176.104 435.335 176.104C435.335 176.463 435.028 176.617 435.192 177.206C437.445 185.13 451.191 211.193 451.442 211.654L453.138 252.459L454.797 304.124L456.503 360.476Z" fill="white"/>
<path opacity="0.1" d="M450.843 212.807C448.584 211.864 436.62 198.203 436.62 198.203V195.093C436.185 194.069 433.594 194.694 431.499 195.411L432.4 176.524L433.425 177.375C435.663 185.294 450.597 212.351 450.843 212.807Z" fill="black"/>
<path d="M451.412 211.68C449.148 210.732 437.184 197.076 437.184 197.076V193.961C436.748 192.937 434.162 193.562 432.062 194.279L432.948 175.413L433.973 176.258C436.231 184.167 451.161 211.219 451.412 211.68Z" fill="white"/>
<path opacity="0.1" d="M416.836 279.808C417.118 279.808 431.438 278.302 431.438 278.302C431.438 278.302 440.108 295.36 439.54 299.504C438.971 303.648 437.942 307.326 434.454 306.675C430.966 306.025 415.684 307.188 415.684 307.188L416.836 279.808Z" fill="black"/>
<path d="M416.267 278.676C416.554 278.676 430.874 277.17 430.874 277.17C430.874 277.17 439.54 294.253 438.976 298.351C438.413 302.449 437.373 306.173 433.891 305.523C430.408 304.872 415.115 306.035 415.115 306.035L416.267 278.676Z" fill="white"/>
<path d="M427.059 270.69C427.059 270.69 440.201 277.759 440.482 279.911C440.764 282.062 433.793 278.968 432.288 278.589C431.296 278.353 430.287 278.196 429.271 278.118L419.228 278.389L427.059 270.69Z" fill="#CF6F80"/>
<path opacity="0.1" d="M447.171 213.688C447.935 213.688 448.554 213.068 448.554 212.305C448.554 211.541 447.935 210.922 447.171 210.922C446.407 210.922 445.788 211.541 445.788 212.305C445.788 213.068 446.407 213.688 447.171 213.688Z" fill="black"/>
<path d="M447.171 213.124C447.935 213.124 448.554 212.505 448.554 211.741C448.554 210.977 447.935 210.358 447.171 210.358C446.407 210.358 445.788 210.977 445.788 211.741C445.788 212.505 446.407 213.124 447.171 213.124Z" fill="#3F3D56"/>
<path opacity="0.1" d="M449.716 273.559C450.48 273.559 451.099 272.94 451.099 272.176C451.099 271.412 450.48 270.793 449.716 270.793C448.953 270.793 448.334 271.412 448.334 272.176C448.334 272.94 448.953 273.559 449.716 273.559Z" fill="black"/>
<path d="M449.716 272.99C450.48 272.99 451.099 272.371 451.099 271.607C451.099 270.843 450.48 270.224 449.716 270.224C448.953 270.224 448.334 270.843 448.334 271.607C448.334 272.371 448.953 272.99 449.716 272.99Z" fill="#3F3D56"/>
<path opacity="0.1" d="M448.554 243.623C449.318 243.623 449.937 243.004 449.937 242.24C449.937 241.476 449.318 240.857 448.554 240.857C447.79 240.857 447.171 241.476 447.171 242.24C447.171 243.004 447.79 243.623 448.554 243.623Z" fill="black"/>
<path d="M448.554 243.06C449.318 243.06 449.937 242.441 449.937 241.677C449.937 240.913 449.318 240.294 448.554 240.294C447.79 240.294 447.171 240.913 447.171 241.677C447.171 242.441 447.79 243.06 448.554 243.06Z" fill="#3F3D56"/>
<path d="M480.43 277.831C480.43 277.831 481.373 279.245 480.43 279.88C479.488 280.515 480.523 282.144 480.523 282.144C480.523 282.144 478.172 283.517 479.206 284.762C480.241 286.006 479.585 291.595 479.585 291.595L476.758 296.302C476.758 296.302 476.927 299.32 476.938 303.397C476.938 309.759 476.564 318.703 474.495 322.78L474.771 356.235C474.771 356.235 464.871 359.857 456.584 358.75L455.355 305.067C455.355 305.067 457.148 274.624 457.808 268.785C458.195 265.753 458.353 262.696 458.28 259.641C458.28 259.641 457.998 250.503 457.05 246.266C457.05 246.266 456.026 227.887 455.924 222.801C455.878 220.367 456.006 213.268 456.149 206.516C456.308 199.135 456.487 192.173 456.487 192.173L454.618 177.375C454.618 177.375 456.487 177.19 457.05 177.938C457.303 178.174 457.577 178.385 457.87 178.568C461.102 180.75 472.502 187.461 472.502 187.461C472.502 187.461 478.812 189.971 480.323 193.567C481.834 197.163 482.884 199.714 483.616 200.738C484.348 201.763 484.748 206.578 484.748 206.578C484.748 206.578 486.92 215.44 488.615 216.94C490.31 218.441 491.529 227.969 491.529 227.969L476.548 239.751C476.548 239.751 475.232 259.349 474.95 260.107C474.669 260.865 480.43 277.831 480.43 277.831Z" fill="white"/>
<path d="M480.999 277.831C480.999 277.831 481.936 279.245 480.999 279.88C480.062 280.515 481.086 282.144 481.086 282.144C481.086 282.144 478.735 283.517 479.77 284.762C480.804 286.006 480.149 291.595 480.149 291.595L477.332 296.302C477.332 296.302 477.501 299.32 477.516 303.397C477.516 309.759 477.142 318.703 475.073 322.78L475.355 356.235C475.355 356.235 465.455 359.857 457.168 358.75L455.944 305.067C455.944 305.067 457.732 274.624 458.398 268.785C458.785 265.753 458.94 262.696 458.864 259.641C458.864 259.641 458.582 250.503 457.64 246.266C457.64 246.266 456.615 227.887 456.508 222.801C456.462 220.367 456.59 213.268 456.733 206.516C456.892 199.135 457.071 192.173 457.071 192.173L454.602 177.175C454.602 177.175 457.071 177.175 457.64 177.938C457.889 178.177 458.164 178.388 458.459 178.568C461.686 180.75 473.086 187.461 473.086 187.461C473.086 187.461 479.381 189.971 480.917 193.567C482.454 197.163 483.478 199.714 484.21 200.738C484.943 201.763 485.342 206.578 485.342 206.578C485.342 206.578 487.514 215.44 489.209 216.94C490.904 218.441 492.128 227.969 492.128 227.969L477.148 239.751C477.148 239.751 475.831 259.349 475.545 260.107C475.258 260.865 480.999 277.831 480.999 277.831Z" fill="white"/>
<path opacity="0.1" d="M463.058 196.522L464.415 200.467L457.291 207.638C457.45 200.257 457.629 193.295 457.629 193.295L455.161 178.302C455.161 178.302 457.629 178.302 458.198 179.065C458.448 179.304 458.722 179.515 459.017 179.695L465.071 197.158L463.058 196.522Z" fill="black"/>
<path d="M462.479 195.39L463.837 199.33L456.718 206.501C456.871 199.12 457.056 192.158 457.056 192.158L454.582 177.16C454.582 177.16 457.056 177.16 457.619 177.923C457.87 178.16 458.145 178.371 458.438 178.553L464.528 196.031L462.479 195.39Z" fill="white"/>
<path opacity="0.1" d="M462.479 156.362C462.481 158.208 462.191 160.043 461.619 161.797C461.522 161.814 461.424 161.81 461.329 161.787C461.234 161.764 461.144 161.722 461.066 161.664C460.927 157.054 458.664 152.72 455.872 149.037C455.087 147.927 454.138 146.942 453.056 146.118C451.96 145.295 450.598 144.91 449.235 145.037C447.698 145.247 446.341 146.292 444.789 146.425C442.741 146.594 440.907 145.175 438.874 145.108C438.047 145.115 437.231 145.299 436.482 145.647C435.732 145.995 435.065 146.5 434.526 147.127C433.457 148.388 432.663 149.859 432.195 151.445C431.39 153.852 430.952 156.366 430.895 158.903C430.869 160.337 430.731 162.135 429.399 162.658C429.5 161.604 429.38 160.54 429.048 159.535C428.715 158.53 428.177 157.605 427.468 156.818L427.438 156.783C427.438 156.639 427.438 156.506 427.438 156.362C427.438 151.714 429.284 147.255 432.571 143.968C435.858 140.68 440.315 138.833 444.964 138.833C449.612 138.833 454.07 140.68 457.356 143.968C460.643 147.255 462.49 151.714 462.49 156.362H462.479Z" fill="black"/>
<path d="M452.236 128.532C449.575 127.28 446.548 127.043 443.724 127.866C442.305 128.286 440.969 128.968 439.53 129.311C436.457 130.054 432.872 129.249 430.234 131.047C428.769 132.072 427.888 133.691 427.069 135.268L425.02 139.166C423.904 141.303 422.777 143.474 422.311 145.826C421.845 148.177 422.126 150.81 423.617 152.705C424.697 154.078 426.306 154.944 427.484 156.24C428.191 157.03 428.728 157.958 429.059 158.965C429.391 159.973 429.51 161.039 429.409 162.095C430.741 161.582 430.874 159.774 430.905 158.34C430.962 155.803 431.401 153.288 432.206 150.881C432.673 149.295 433.467 147.825 434.536 146.563C435.075 145.936 435.741 145.43 436.491 145.081C437.241 144.732 438.057 144.548 438.884 144.54C440.933 144.612 442.772 146.031 444.8 145.856C446.336 145.728 447.698 144.683 449.245 144.473C450.609 144.344 451.972 144.73 453.066 145.554C454.149 146.376 455.097 147.361 455.878 148.474C458.674 152.162 460.943 156.475 461.076 161.101C461.655 161.521 462.49 160.968 462.776 160.312C463.063 159.656 463.073 158.888 463.437 158.263C463.857 157.541 464.661 157.151 465.291 156.608C466.889 155.23 467.289 152.91 467.227 150.805C467.166 148.699 466.756 146.563 467.155 144.494C467.396 143.229 467.939 142.035 468.236 140.78C468.533 139.525 468.569 138.116 467.867 137.036C466.843 135.453 464.687 135.135 462.807 134.987C460.671 134.802 458.761 135.038 457.399 133.24C456.758 132.303 456.038 131.422 455.248 130.607C454.966 130.335 452.236 128.645 452.236 128.532Z" fill="#512E4E"/>
<path opacity="0.1" d="M396.554 236.554L391.208 226.663L389.512 241.928C389.512 241.928 390.455 248.71 390.265 249.75C390.076 250.79 394.127 260.112 394.127 260.112C394.127 260.112 407.51 283.957 412.974 285.182L431.412 271.986L426.516 265.768C426.516 265.768 424.82 265.107 424.395 265.768C424.395 265.768 415.299 250.124 414.362 248.997C413.425 247.87 413.604 245.601 413.604 245.601C413.604 245.601 412.191 244.095 412.662 242.681C413.133 241.267 409.958 236.37 409.958 236.37L412.877 233.64L396.554 236.554Z" fill="black"/>
<path d="M391.489 225.531L390.076 226.663L388.38 241.928C388.38 241.928 389.323 248.71 389.133 249.75C388.944 250.79 393 260.112 393 260.112C393 260.112 406.378 283.957 411.842 285.182L430.311 271.986L425.409 265.768C425.409 265.768 423.714 265.107 423.289 265.768C423.289 265.768 414.198 250.124 413.256 248.997C412.314 247.87 412.503 245.601 412.503 245.601C412.503 245.601 411.089 244.095 411.561 242.681C412.032 241.267 408.826 236.37 408.826 236.37L411.745 233.64L391.489 225.531Z" fill="white"/>
<path opacity="0.1" d="M479.206 285.351C480.231 286.595 479.585 292.189 479.585 292.189L476.758 296.866C476.758 296.866 476.927 299.888 476.938 303.966L472.185 305.451C471.755 305.585 471.298 305.615 470.855 305.537C470.411 305.459 469.992 305.276 469.633 305.003C469.274 304.73 468.986 304.376 468.792 303.969C468.598 303.562 468.504 303.115 468.518 302.665L469.342 276.233L480.43 280.469C479.488 281.125 480.523 282.733 480.523 282.733C480.523 282.733 478.172 284.106 479.206 285.351Z" fill="black"/>
<path d="M479.77 284.787C480.794 286.027 480.149 291.62 480.149 291.62L477.332 296.302C477.332 296.302 477.501 299.32 477.516 303.397L472.676 304.908C472.256 305.04 471.81 305.069 471.376 304.994C470.943 304.918 470.533 304.74 470.182 304.473C469.831 304.207 469.549 303.861 469.359 303.463C469.17 303.066 469.078 302.628 469.091 302.188L469.916 275.664L480.999 279.911C480.051 280.566 481.086 282.175 481.086 282.175C481.086 282.175 478.735 283.542 479.77 284.787Z" fill="white"/>
<path d="M483.447 272.176C483.447 272.176 482.694 276.986 480.809 277.267C478.925 277.549 478.08 285.048 476.2 284.787C474.32 284.526 475.565 277.81 475.631 276.509C475.698 275.208 473.583 269.819 475.16 268.595C476.738 267.371 481.757 268.595 481.757 268.595L483.447 272.176Z" fill="#CF6F80"/>
<path opacity="0.1" d="M487.432 235.14L490.981 227.969C490.981 227.969 492.4 233.435 492.4 236.355C492.4 239.274 494.377 239.561 494.377 239.561C494.377 239.561 496.543 242.122 495.401 243.992C494.259 245.862 493.803 250.492 493.803 250.492C493.803 250.492 494.177 259.349 492.482 260.573C490.786 261.798 490.407 264.723 490.407 264.723C490.407 264.723 487.298 270.28 487.396 271.602C487.493 272.924 483.063 281.872 483.063 281.872C483.063 281.872 485.229 270.752 472.605 265.947C472.605 265.947 472.507 262.177 473.45 261.142C474.392 260.107 475.862 259.605 474.94 254.401C474.018 249.196 474.674 242.921 474.674 241.666C474.674 240.411 477.501 232.59 477.501 232.59L487.432 235.14Z" fill="black"/>
<path d="M489.009 226.945L492.113 227.969C492.113 227.969 493.531 233.435 493.531 236.354C493.531 239.274 495.508 239.561 495.508 239.561C495.508 239.561 497.675 242.122 496.533 243.992C495.391 245.862 494.93 250.492 494.93 250.492C494.93 250.492 495.309 259.349 493.613 260.573C491.918 261.798 491.565 264.723 491.565 264.723C491.565 264.723 488.456 270.28 488.553 271.602C488.651 272.924 484.215 281.873 484.215 281.873C484.215 281.873 486.382 270.752 473.757 265.947C473.757 265.947 473.665 262.177 474.607 261.142C475.55 260.107 477.02 259.605 476.098 254.401C475.176 249.196 475.831 242.921 475.831 241.666C475.831 240.411 478.658 232.589 478.658 232.589L489.009 226.945Z" fill="white"/>
<path opacity="0.1" d="M420.441 412.823C420.441 412.823 425.389 409.713 428.636 411.972C431.883 414.231 420.441 412.823 420.441 412.823Z" fill="black"/>
<path opacity="0.1" d="M458.894 403.208C458.894 403.208 463.273 402.644 466.95 406.604C470.628 410.564 458.894 403.208 458.894 403.208Z" fill="black"/>
<g opacity="0.1">
<path opacity="0.1" d="M465.291 155.481C464.661 156.03 463.852 156.414 463.432 157.136C463.073 157.756 463.063 158.524 462.776 159.185C462.49 159.846 461.655 160.394 461.071 159.974C460.938 155.364 458.669 151.035 455.878 147.347C455.097 146.236 454.149 145.252 453.066 144.432C451.97 143.606 450.606 143.219 449.24 143.346C447.704 143.556 446.351 144.601 444.8 144.735C442.751 144.904 440.912 143.485 438.879 143.418C438.053 143.424 437.238 143.608 436.489 143.956C435.739 144.304 435.074 144.809 434.536 145.436C433.467 146.698 432.673 148.168 432.206 149.755C431.401 152.161 430.962 154.676 430.905 157.213C430.874 158.642 430.741 160.425 429.42 160.957C429.45 161.338 429.45 161.72 429.42 162.1C430.756 161.587 430.889 159.779 430.92 158.345C430.978 155.808 431.416 153.293 432.221 150.887C432.688 149.301 433.482 147.83 434.551 146.568C435.089 145.941 435.755 145.436 436.504 145.087C437.253 144.738 438.068 144.553 438.894 144.545C440.943 144.617 442.787 146.036 444.815 145.862C446.351 145.733 447.714 144.688 449.255 144.478C450.621 144.35 451.985 144.735 453.081 145.559C454.164 146.381 455.113 147.366 455.893 148.479C458.684 152.167 460.953 156.48 461.086 161.106C461.67 161.526 462.505 160.973 462.792 160.317C463.079 159.661 463.089 158.893 463.447 158.268C463.867 157.546 464.676 157.157 465.306 156.614C466.904 155.236 467.304 152.915 467.242 150.81C467.242 150.743 467.242 150.682 467.242 150.615C467.14 152.449 466.653 154.308 465.291 155.481Z" fill="black"/>
<path opacity="0.1" d="M427.479 155.123C426.306 153.827 424.698 152.956 423.617 151.583C422.704 150.371 422.184 148.909 422.126 147.393C421.966 149.289 422.495 151.179 423.617 152.715C424.698 154.088 426.306 154.954 427.479 156.25C428.611 157.517 429.292 159.124 429.414 160.819C429.492 159.788 429.36 158.752 429.027 157.774C428.694 156.795 428.168 155.893 427.479 155.123Z" fill="black"/>
<path opacity="0.1" d="M468.236 139.653C467.934 140.908 467.396 142.102 467.15 143.367C467.003 144.222 466.949 145.092 466.991 145.959C467.008 145.469 467.061 144.981 467.15 144.499C467.396 143.234 467.934 142.04 468.236 140.785C468.41 140.093 468.467 139.376 468.405 138.664C468.372 138.998 468.316 139.328 468.236 139.653Z" fill="black"/>
</g>
<path opacity="0.1" d="M68.9786 429.711C96.5401 429.711 118.883 426.122 118.883 421.695C118.883 417.267 96.5401 413.678 68.9786 413.678C41.417 413.678 19.074 417.267 19.074 421.695C19.074 426.122 41.417 429.711 68.9786 429.711Z" fill="#1E90FF"/>
<path d="M70.5868 268.119H67.3756V340.432H70.5868V268.119Z" fill="#535461"/>
<path d="M90.771 340.217L90.5661 343.475L90.2844 348.085L90.1666 350.001L89.8798 354.611L89.7569 356.527L89.4752 361.137L86.2332 413.422C86.095 415.671 85.104 417.784 83.4623 419.328C81.8206 420.871 79.652 421.731 77.3985 421.73H60.5639C58.3043 421.732 56.1299 420.868 54.4871 419.316C52.8442 417.764 51.8574 415.642 51.7292 413.386L48.4872 361.101L48.2056 356.491L48.0878 354.575L47.7958 349.965L47.678 348.049L47.3964 343.439L47.1915 340.181C47.156 339.557 47.248 338.932 47.4618 338.344C47.6756 337.756 48.0067 337.218 48.4351 336.762C48.8634 336.307 49.3799 335.943 49.9533 335.693C50.5267 335.443 51.1448 335.313 51.7702 335.31H86.1974C86.8255 335.313 87.4463 335.445 88.0216 335.698C88.5969 335.95 89.1146 336.317 89.5428 336.776C89.9711 337.236 90.301 337.778 90.5122 338.37C90.7234 338.962 90.8114 339.59 90.771 340.217Z" fill="#3F3D56"/>
<path d="M90.5661 343.47L90.2793 348.07H47.678L47.3912 343.47H90.5661Z" fill="#9D9CB5"/>
<path d="M90.1614 349.986L89.8797 354.586H48.0826L47.7958 349.986H90.1614Z" fill="#9D9CB5"/>
<path d="M89.7569 356.506L89.4752 361.101H48.4872L48.2004 356.506H89.7569Z" fill="#9D9CB5"/>
<path d="M42.5104 295.227C61.2144 308.76 69.0043 329.926 69.0043 329.926C69.0043 329.926 46.4693 329.153 27.7602 315.619C9.05113 302.086 1.25098 280.935 1.25098 280.935C1.25098 280.935 23.7859 281.693 42.5104 295.227Z" fill="#1E90FF"/>
<path d="M1.25098 280.935C1.25098 280.935 24.6412 293.921 32.1443 304.673C39.6474 315.425 68.9838 329.936 68.9838 329.936" stroke="#535461" stroke-width="2" stroke-miterlimit="10"/>
<path d="M54.5614 267.965C64.7431 275.326 68.9837 286.846 68.9837 286.846C68.9837 286.846 56.692 286.426 46.5359 279.065C36.3798 271.704 32.1135 260.179 32.1135 260.179C32.1135 260.179 44.3848 260.599 54.5614 267.965Z" fill="#1E90FF"/>
<path d="M32.1135 260.179C32.1135 260.179 44.8458 267.248 48.9328 273.098C53.0198 278.948 68.9837 286.846 68.9837 286.846" stroke="#535461" stroke-width="2" stroke-miterlimit="10"/>
<path d="M83.7749 286.262C72.0824 299.115 69.6086 315.911 69.6086 315.911C69.6086 315.911 86.095 311.864 97.7773 299.007C109.46 286.15 111.944 269.358 111.944 269.358C111.944 269.358 95.4675 273.41 83.7749 286.262Z" fill="#1E90FF"/>
<path d="M111.954 269.363C111.954 269.363 96.7222 282.538 92.8503 291.615C88.9784 300.692 69.6086 315.911 69.6086 315.911" stroke="#535461" stroke-width="2" stroke-miterlimit="10"/>
<defs>
<linearGradient id="paint0_linear" x1="239.425" y1="428.011" x2="239.425" y2="132.113" gradientUnits="userSpaceOnUse">
<stop stop-color="#808080" stop-opacity="0.25"/>
<stop offset="0.54" stop-color="#808080" stop-opacity="0.12"/>
<stop offset="1" stop-color="#808080" stop-opacity="0.1"/>
</linearGradient>
<linearGradient id="paint1_linear" x1="97453.8" y1="277304" x2="97453.8" y2="83357.1" gradientUnits="userSpaceOnUse">
<stop stop-color="#808080" stop-opacity="0.25"/>
<stop offset="0.54" stop-color="#808080" stop-opacity="0.12"/>
<stop offset="1" stop-color="#808080" stop-opacity="0.1"/>
</linearGradient>
</defs>
</svg>
